<svg width="172" height="16" viewBox="0 0 172 16" fill="none" xmlns="http://www.w3.org/2000/svg">
<path d="M9.52 9H5.98V12.5H3.84V9H0.3V7H3.84V3.5H5.98V7H9.52V9ZM22.4416 0.999999V2.74L17.0016 15H14.2216L19.4816 3.2H13.9816V5.58H11.5616V0.999999H22.4416ZM35.0969 0.799999C37.0169 0.799999 38.5035 1.4 39.5569 2.6C40.6235 3.8 41.1569 5.52 41.1569 7.76C41.1569 9.33333 40.8702 10.68 40.2969 11.8C39.7235 12.9067 38.9169 13.7533 37.8769 14.34C36.8502 14.9133 35.6569 15.2 34.2969 15.2C33.5769 15.2 32.8969 15.1267 32.2569 14.98C31.6302 14.82 31.0835 14.5933 30.6169 14.3L31.5769 12.34C32.2702 12.7933 33.1569 13.02 34.2369 13.02C35.5835 13.02 36.6369 12.6067 37.3969 11.78C38.1569 10.9533 38.5369 9.76 38.5369 8.2V8.18C38.1235 8.66 37.5969 9.02667 36.9569 9.28C36.3169 9.52 35.5969 9.64 34.7969 9.64C33.8769 9.64 33.0502 9.46667 32.3169 9.12C31.5835 8.76 31.0102 8.25333 30.5969 7.6C30.1835 6.94667 29.9769 6.19333 29.9769 5.34C29.9769 4.43333 30.2035 3.64 30.6569 2.96C31.1102 2.26667 31.7235 1.73333 32.4969 1.36C33.2702 0.986666 34.1369 0.799999 35.0969 0.799999ZM35.2969 7.6C36.1369 7.6 36.8169 7.37333 37.3369 6.92C37.8702 6.46667 38.1369 5.89333 38.1369 5.2C38.1369 4.52 37.8769 3.96 37.3569 3.52C36.8502 3.06667 36.1435 2.84 35.2369 2.84C34.4235 2.84 33.7635 3.06 33.2569 3.5C32.7502 3.92667 32.4969 4.5 32.4969 5.22C32.4969 5.95333 32.7502 6.53333 33.2569 6.96C33.7635 7.38667 34.4435 7.6 35.2969 7.6ZM53.3583 12.8V15H43.0383V13.26L48.5983 7.98C49.2249 7.38 49.6449 6.86 49.8583 6.42C50.0849 5.96667 50.1983 5.52 50.1983 5.08C50.1983 4.42667 49.9783 3.92667 49.5383 3.58C49.0983 3.23333 48.4516 3.06 47.5983 3.06C46.1716 3.06 45.0783 3.54667 44.3183 4.52L42.4983 3.12C43.0449 2.38667 43.7783 1.82 44.6983 1.42C45.6316 1.00667 46.6716 0.799999 47.8183 0.799999C49.3383 0.799999 50.5516 1.16 51.4583 1.88C52.3649 2.6 52.8183 3.58 52.8183 4.82C52.8183 5.58 52.6583 6.29333 52.3383 6.96C52.0183 7.62667 51.4049 8.38667 50.4983 9.24L46.7583 12.8H53.3583ZM64.3389 7.64C65.0722 7.97333 65.6322 8.42667 66.0189 9C66.4189 9.56 66.6189 10.22 66.6189 10.98C66.6189 11.8333 66.3789 12.58 65.8989 13.22C65.4322 13.86 64.7656 14.3533 63.8989 14.7C63.0322 15.0333 62.0256 15.2 60.8789 15.2C59.7322 15.2 58.7256 15.0333 57.8589 14.7C57.0056 14.3533 56.3456 13.86 55.8789 13.22C55.4122 12.58 55.1789 11.8333 55.1789 10.98C55.1789 10.22 55.3722 9.56 55.7589 9C56.1456 8.42667 56.6989 7.97333 57.4189 7.64C56.8589 7.33333 56.4256 6.93333 56.1189 6.44C55.8256 5.93333 55.6789 5.35333 55.6789 4.7C55.6789 3.91333 55.8922 3.22667 56.3189 2.64C56.7589 2.05333 57.3722 1.6 58.1589 1.28C58.9456 0.959999 59.8522 0.799999 60.8789 0.799999C61.9189 0.799999 62.8322 0.959999 63.6189 1.28C64.4056 1.6 65.0189 2.05333 65.4589 2.64C65.8989 3.22667 66.1189 3.91333 66.1189 4.7C66.1189 5.35333 65.9656 5.92667 65.6589 6.42C65.3522 6.91333 64.9122 7.32 64.3389 7.64ZM60.8789 2.84C60.0656 2.84 59.4189 3.01333 58.9389 3.36C58.4722 3.70667 58.2389 4.19333 58.2389 4.82C58.2389 5.42 58.4722 5.9 58.9389 6.26C59.4189 6.60667 60.0656 6.78 60.8789 6.78C61.7056 6.78 62.3589 6.60667 62.8389 6.26C63.3189 5.9 63.5589 5.42 63.5589 4.82C63.5589 4.19333 63.3122 3.70667 62.8189 3.36C62.3389 3.01333 61.6922 2.84 60.8789 2.84ZM60.8789 13.16C61.8389 13.16 62.5989 12.96 63.1589 12.56C63.7189 12.16 63.9989 11.6067 63.9989 10.9C63.9989 10.2067 63.7189 9.66 63.1589 9.26C62.5989 8.86 61.8389 8.66 60.8789 8.66C59.9189 8.66 59.1656 8.86 58.6189 9.26C58.0722 9.66 57.7989 10.2067 57.7989 10.9C57.7989 11.6067 58.0722 12.16 58.6189 12.56C59.1656 12.96 59.9189 13.16 60.8789 13.16ZM80.5931 6.78C81.8865 6.94 82.8731 7.38 83.5531 8.1C84.2331 8.82 84.5731 9.72 84.5731 10.8C84.5731 11.6133 84.3665 12.3533 83.9531 13.02C83.5398 13.6867 82.9131 14.22 82.0731 14.62C81.2465 15.0067 80.2331 15.2 79.0331 15.2C78.0331 15.2 77.0665 15.06 76.1331 14.78C75.2131 14.4867 74.4265 14.0867 73.7731 13.58L74.8931 11.56C75.3998 11.9867 76.0131 12.3267 76.7331 12.58C77.4665 12.82 78.2198 12.94 78.9931 12.94C79.9131 12.94 80.6331 12.7533 81.1531 12.38C81.6865 11.9933 81.9531 11.4733 81.9531 10.82C81.9531 10.1667 81.6998 9.66 81.1931 9.3C80.6998 8.92667 79.9398 8.74 78.9131 8.74H77.6331V6.96L80.8131 3.18H74.4531V0.999999H83.9931V2.74L80.5931 6.78ZM92.5361 6.78C93.8294 6.94 94.8161 7.38 95.4961 8.1C96.1761 8.82 96.5161 9.72 96.5161 10.8C96.5161 11.6133 96.3094 12.3533 95.8961 13.02C95.4828 13.6867 94.8561 14.22 94.0161 14.62C93.1894 15.0067 92.1761 15.2 90.9761 15.2C89.9761 15.2 89.0094 15.06 88.0761 14.78C87.1561 14.4867 86.3694 14.0867 85.7161 13.58L86.8361 11.56C87.3428 11.9867 87.9561 12.3267 88.6761 12.58C89.4094 12.82 90.1628 12.94 90.9361 12.94C91.8561 12.94 92.5761 12.7533 93.0961 12.38C93.6294 11.9933 93.8961 11.4733 93.8961 10.82C93.8961 10.1667 93.6428 9.66 93.1361 9.3C92.6428 8.92667 91.8828 8.74 90.8561 8.74H89.5761V6.96L92.7561 3.18H86.3961V0.999999H95.9361V2.74L92.5361 6.78ZM104.479 6.78C105.772 6.94 106.759 7.38 107.439 8.1C108.119 8.82 108.459 9.72 108.459 10.8C108.459 11.6133 108.252 12.3533 107.839 13.02C107.426 13.6867 106.799 14.22 105.959 14.62C105.132 15.0067 104.119 15.2 102.919 15.2C101.919 15.2 100.952 15.06 100.019 14.78C99.0991 14.4867 98.3124 14.0867 97.6591 13.58L98.7791 11.56C99.2857 11.9867 99.8991 12.3267 100.619 12.58C101.352 12.82 102.106 12.94 102.879 12.94C103.799 12.94 104.519 12.7533 105.039 12.38C105.572 11.9933 105.839 11.4733 105.839 10.82C105.839 10.1667 105.586 9.66 105.079 9.3C104.586 8.92667 103.826 8.74 102.799 8.74H101.519V6.96L104.699 3.18H98.3391V0.999999H107.879V2.74L104.479 6.78ZM126.627 12.8V15H116.307V13.26L121.867 7.98C122.494 7.38 122.914 6.86 123.127 6.42C123.354 5.96667 123.467 5.52 123.467 5.08C123.467 4.42667 123.247 3.92667 122.807 3.58C122.367 3.23333 121.72 3.06 120.867 3.06C119.44 3.06 118.347 3.54667 117.587 4.52L115.767 3.12C116.314 2.38667 117.047 1.82 117.967 1.42C118.9 1.00667 119.94 0.799999 121.087 0.799999C122.607 0.799999 123.82 1.16 124.727 1.88C125.634 2.6 126.087 3.58 126.087 4.82C126.087 5.58 125.927 6.29333 125.607 6.96C125.287 7.62667 124.674 8.38667 123.767 9.24L120.027 12.8H126.627ZM134.829 6.36C135.749 6.36 136.576 6.54 137.309 6.9C138.042 7.24667 138.616 7.74667 139.029 8.4C139.442 9.05333 139.649 9.80667 139.649 10.66C139.649 11.5667 139.422 12.3667 138.969 13.06C138.516 13.74 137.902 14.2667 137.129 14.64C136.356 15.0133 135.489 15.2 134.529 15.2C132.609 15.2 131.116 14.6 130.049 13.4C128.996 12.2 128.469 10.48 128.469 8.24C128.469 6.66667 128.756 5.32667 129.329 4.22C129.902 3.1 130.702 2.25333 131.729 1.68C132.769 1.09333 133.969 0.799999 135.329 0.799999C136.049 0.799999 136.722 0.879999 137.349 1.04C137.989 1.18667 138.542 1.40667 139.009 1.7L138.049 3.66C137.356 3.20667 136.469 2.98 135.389 2.98C134.042 2.98 132.989 3.39333 132.229 4.22C131.469 5.04667 131.089 6.24 131.089 7.8V7.82C131.502 7.34 132.029 6.98 132.669 6.74C133.309 6.48667 134.029 6.36 134.829 6.36ZM134.389 13.16C135.202 13.16 135.862 12.9467 136.369 12.52C136.876 12.08 137.129 11.5 137.129 10.78C137.129 10.0467 136.876 9.46667 136.369 9.04C135.862 8.61333 135.182 8.4 134.329 8.4C133.489 8.4 132.802 8.62667 132.269 9.08C131.749 9.53333 131.489 10.1067 131.489 10.8C131.489 11.48 131.742 12.0467 132.249 12.5C132.769 12.94 133.482 13.16 134.389 13.16ZM159.815 11.82H157.335V15H154.815V11.82H147.135V10.02L154.035 0.999999H156.815L150.315 9.62H154.895V6.8H157.335V9.62H159.815V11.82ZM165.631 6.42C167.604 6.42 169.064 6.80667 170.011 7.58C170.958 8.34 171.431 9.38 171.431 10.7C171.431 11.54 171.224 12.3 170.811 12.98C170.398 13.66 169.778 14.2 168.951 14.6C168.124 15 167.104 15.2 165.891 15.2C164.891 15.2 163.924 15.06 162.991 14.78C162.058 14.4867 161.271 14.0867 160.631 13.58L161.731 11.56C162.251 11.9867 162.871 12.3267 163.591 12.58C164.324 12.82 165.078 12.94 165.851 12.94C166.771 12.94 167.491 12.7533 168.011 12.38C168.544 11.9933 168.811 11.4667 168.811 10.8C168.811 10.08 168.524 9.54 167.951 9.18C167.391 8.80667 166.424 8.62 165.051 8.62H161.671L162.391 0.999999H170.611V3.18H164.591L164.291 6.42H165.631Z" fill="white"/>
</svg>
