<svg width="134" height="134" viewBox="0 0 134 134" fill="none" xmlns="http://www.w3.org/2000/svg">
<path d="M59.8604 6.1748C58.8042 6.22282 57.5079 7.08703 56.4516 11.7922C55.7794 14.913 55.7314 19.9062 56.3076 27.156C57.2678 38.775 62.261 50.922 62.261 50.922L69.7029 50.7299L78.201 11.7922C78.249 11.8402 61.4448 6.51089 59.8604 6.1748Z" fill="url(#paint0_linear_23_2840)"/>
<path d="M59.8604 6.1748C58.8042 6.22282 57.5079 7.08703 56.4516 11.7922C55.7794 14.913 55.7314 19.9062 56.3076 27.156C57.2678 38.775 62.261 50.922 62.261 50.922L69.7029 50.7299L78.201 11.7922C78.249 11.8402 61.4448 6.51089 59.8604 6.1748Z" fill="url(#paint1_linear_23_2840)"/>
<path d="M69.943 51.018L62.165 51.2101C62.021 50.874 62.069 51.018 61.973 50.7299C61.877 50.4419 61.7329 50.1058 61.5889 49.7697C61.2048 48.7134 60.7727 47.5131 60.3406 46.1688C59.0923 42.4239 57.988 38.4869 57.2198 34.5979C56.6917 32.0533 56.3556 29.5566 56.1635 27.2521C55.5874 20.0023 55.6354 14.961 56.3076 11.7922C57.2198 7.71118 58.3721 6.12679 59.9085 6.03076C65.1418 7.47112 70.3271 9.15154 75.4644 10.7839C76.2326 11.024 76.9047 11.2161 77.5289 11.4561L78.5371 11.7922L69.943 51.018ZM62.4531 50.7299L69.5589 50.5859L77.961 12.0323C76.0405 11.4081 76.9047 11.6962 75.3203 11.2161C73.1598 10.5439 70.9992 9.87172 68.9827 9.24757C66.6782 8.52739 64.4216 7.80721 62.117 7.13504C61.6369 6.991 60.9647 6.79895 60.4366 6.65492C59.5724 6.41486 59.5724 6.51088 58.7562 6.991C57.5079 8.33534 57.1238 10.1598 56.7397 11.8882C56.0675 15.009 56.0195 20.0023 56.5956 27.2041C56.7877 29.5086 57.1238 31.9572 57.6519 34.5019C58.4201 38.3909 59.5244 42.2798 60.7727 46.0248C61.2048 47.3211 61.6369 48.5214 62.021 49.5777C62.165 49.9618 62.3091 50.2498 62.4051 50.5379L62.4531 50.7299Z" fill="#FFA7A9"/>
<path d="M6.32708 59.7081C6.37509 58.6518 7.23931 57.3555 11.9445 56.2993C15.0653 55.6271 20.0585 55.5791 27.3083 56.1552C38.9272 57.1155 51.0743 62.1087 51.0743 62.1087L50.8822 69.5506L11.9445 78.0487C11.9445 78.0967 6.66316 61.2925 6.32708 59.7081Z" fill="url(#paint2_linear_23_2840)"/>
<path d="M6.32708 59.7081C6.37509 58.6518 7.23931 57.3555 11.9445 56.2993C15.0653 55.6271 20.0585 55.5791 27.3083 56.1552C38.9272 57.1155 51.0743 62.1087 51.0743 62.1087L50.8822 69.5506L11.9445 78.0487C11.9445 78.0967 6.66316 61.2925 6.32708 59.7081Z" fill="url(#paint3_linear_23_2840)"/>
<path d="M51.1703 69.7905L11.8004 78.3846C11.4644 77.3764 11.1763 76.3201 10.8402 75.3119C10.168 73.1513 9.49586 70.9908 8.8717 68.9743C8.15152 66.6697 7.43134 64.3651 6.75917 62.1086C6.56713 61.4364 6.13502 60.4281 6.08701 59.756C6.18303 58.2196 7.76743 57.0673 11.8484 56.1551C15.0172 55.4829 20.0585 55.3869 27.3083 56.011C29.6609 56.2031 32.1095 56.5392 34.6541 57.0673C38.5431 57.8355 42.4801 58.9398 46.225 60.1881C47.5214 60.6202 48.7217 61.0523 49.8259 61.4364C50.21 61.5804 50.5461 61.7245 50.7862 61.8205C51.0743 61.9645 50.9302 61.8685 51.2663 62.0125L51.1703 69.7905ZM12.1365 77.8085L50.6902 69.4064L50.8342 62.3006L50.6421 62.2046C50.3541 62.1086 50.018 61.9645 49.6819 61.8205C48.6256 61.4364 47.4253 61.0043 46.129 60.5722C42.3841 59.3239 38.4951 58.2196 34.6061 57.4514C32.0615 56.9233 29.6129 56.5872 27.3083 56.3951C20.1065 55.819 15.1133 55.867 11.9925 56.5392C10.2641 56.9233 8.43959 57.3554 7.09526 58.5557C6.56712 59.2758 6.51911 59.4679 6.75917 60.2361C6.90321 60.7162 7.09526 61.3884 7.23929 61.9165C7.62339 63.2608 8.0555 64.6052 8.48761 65.9495C9.44785 68.9743 10.3601 72.047 11.3203 75.0718C11.5604 75.84 11.8004 76.5122 11.9925 77.1363L12.1365 77.8085Z" fill="#FFA7A9"/>
<path d="M86.6512 128.461C86.6512 128.461 91.4044 93.7487 71.3834 70.1748C66.8702 71.4711 51.0263 74.976 50.7862 75.2161C72.6317 99.03 54.4831 133.119 54.4831 133.119L72.3916 121.164L86.6512 128.461Z" fill="url(#paint4_linear_23_2840)"/>
<path opacity="0.4" d="M30.8612 107.768C32.3496 108.296 35.2303 107.528 37.0067 104.887C38.5911 102.487 40.4636 96.005 44.4486 88.9472C49.2018 80.4971 70.9032 67.4858 70.9032 67.4858L78.2971 80.305C78.2971 80.305 75.5604 83.1377 71.0473 85.4903C71.4794 91.3478 71.7674 97.9254 71.3833 103.687C70.6152 115.258 65.958 118.667 62.4531 119.099C60.8687 119.291 55.1553 116.458 47.4734 113.673C42.8642 112.089 32.4456 109.112 30.8612 107.768Z" fill="#121214"/>
<path d="M1.5739 94.2287C0.901735 93.0284 0.0855324 89.8116 4.50264 85.3945C7.43137 82.4658 13.5289 77.9527 21.931 73.4395C35.3263 66.2858 51.5064 61.8687 51.5064 61.8687L57.3638 73.6316L20.6347 110.361C20.6827 110.409 3.06228 95.7171 1.5739 94.2287Z" fill="url(#paint5_linear_23_2840)"/>
<path d="M20.6827 110.697C18.6662 109.016 19.6744 109.833 17.7539 108.248C15.6414 106.52 13.5289 104.743 11.5124 103.015C8.91973 100.854 6.32708 98.6458 3.78244 96.4373C3.25431 96.0052 1.81395 94.8529 1.38184 94.2767C0.13353 92.0202 0.709674 88.8514 4.35859 85.2025C7.71943 81.8416 14.2011 77.2805 21.835 73.1995C25.7719 71.0869 30.189 69.1185 34.8942 67.246C38.8312 65.6616 42.8162 64.3172 46.5611 63.1169C47.8575 62.6848 49.0578 62.3488 50.114 62.0127C50.4981 61.9166 50.8342 61.8206 51.0743 61.7246C51.4104 61.6286 51.2183 61.6766 51.6024 61.5806L57.6519 73.6796L20.6827 110.697ZM20.6827 110.073L57.1238 73.6316L51.4104 62.2047L51.2663 62.2527C50.9783 62.3488 50.6422 62.4448 50.3061 62.5408C49.2498 62.8289 48.0495 63.213 46.7532 63.6451C43.0083 64.8454 39.0713 66.2377 35.1343 67.7741C30.4291 69.6466 26.06 71.6151 22.123 73.7276C14.4891 77.7606 8.05551 82.2737 4.69467 85.5866C2.87021 87.459 0.805697 90.0517 1.33383 92.8844C1.38184 93.1725 1.57389 93.7966 1.76594 94.0847C1.95799 94.3728 2.91823 95.0929 3.11027 95.285C3.78244 95.8611 4.59865 96.5813 5.31883 97.1575C7.28732 98.8379 9.2078 100.47 11.1763 102.103C11.4164 102.295 11.6084 102.487 11.8485 102.631C13.865 104.311 15.9775 106.088 18.09 107.816C18.8102 108.44 19.4824 109.016 20.1065 109.497L20.6827 110.073Z" fill="#FFA7A9"/>
<path d="M28.0285 108.872C29.5169 109.4 32.3976 108.632 34.174 105.992C35.7584 103.591 37.6309 97.1094 41.6159 90.0517C46.3691 81.6015 55.2033 71.231 55.2033 71.231L67.2063 75.552C67.2063 75.552 69.3188 93.2685 68.5026 104.839C67.7344 116.41 63.0772 119.819 59.5724 120.251C57.988 120.443 52.2745 117.611 44.5926 114.826C40.0315 113.193 29.6129 110.217 28.0285 108.872Z" fill="url(#paint6_linear_23_2840)"/>
<path d="M6.13505 59.6602C9.1118 64.3653 16.8897 65.3256 25.0038 64.9415C34.7022 64.4614 52.6587 62.6849 52.6587 62.6849L55.3954 75.168C55.3954 75.168 41.5199 86.3548 31.2933 91.8282C21.0668 97.3016 16.5056 98.5499 14.2491 95.7652C13.2408 94.5169 10.9363 88.2273 9.20782 80.2093C8.15156 75.5041 5.84698 61.7247 6.13505 59.6602Z" fill="url(#paint7_linear_23_2840)"/>
<path opacity="0.308" d="M55.1553 74.208C45.937 81.4578 36.4786 88.5156 25.868 93.5569C24.2356 94.3251 22.3151 95.1413 20.5866 95.7174C19.0022 96.1975 17.1298 96.6296 15.5454 96.0055C13.913 95.3813 13.3848 94.037 12.7607 92.5486C12.5206 91.9725 12.2806 91.3963 12.0885 90.8202C11.3683 88.8517 10.7922 86.5951 10.216 84.5786C12.7127 86.7391 15.3053 85.5869 17.0818 84.4346C19.1463 83.0422 21.931 80.5456 25.1478 78.049C28.3166 75.6004 32.3016 73.5358 35.0383 72.4316C38.8792 70.8472 45.7449 67.6784 53.1388 64.2695L55.1553 74.208Z" fill="url(#paint8_linear_23_2840)"/>
<path d="M54.2431 66.7178L46.081 71.3749L55.8755 69.7425L45.6009 78.6728L58.084 72.0471L44.6887 87.4109L59.8125 73.8716L56.9317 82.4657L61.877 75.792L56.4996 95.477L64.5176 76.0321C64.6137 75.9841 54.2431 66.7178 54.2431 66.7178Z" fill="#80000D"/>
<path d="M51.8425 63.0206L51.3143 63.0687C50.21 63.1647 48.9617 63.3087 47.6174 63.4047C43.7764 63.7408 39.9355 64.0769 36.2866 64.413C35.9985 64.461 35.6624 64.461 35.3743 64.509C31.2933 64.8451 27.7884 65.0852 25.0518 65.2292C20.6347 65.3732 16.0255 65.4693 11.8004 64.0289C9.83195 63.3567 7.57539 62.0604 6.32708 60.284C5.99099 59.5158 6.18304 59.8519 6.23105 59.1797L6.51912 59.6598C9.11177 63.7888 15.4013 65.2292 25.0037 64.7491C27.6924 64.605 31.1973 64.365 35.2783 64.0289C35.5664 64.0289 35.9025 63.9809 36.1905 63.9329C39.7914 63.6448 43.6804 63.3087 47.5214 62.9246C48.8657 62.7806 50.114 62.6846 51.2183 62.5885L51.6984 62.5405L51.7464 62.6846L51.8425 63.0206Z" fill="#FFA7A9"/>
<path opacity="0.311" d="M53.7149 113.625C52.2745 114.97 50.4501 116.122 48.4336 116.266C45.4568 115.114 46.7532 115.594 44.4966 114.777C39.9835 113.145 29.5649 110.168 27.9805 108.824C29.4688 109.352 32.3496 108.584 34.126 105.943C35.7104 103.543 37.5829 97.0611 41.5679 90.0033C44.3526 85.1061 47.7134 80.545 51.1703 76.0798C52.0825 74.8795 53.0427 73.6792 54.003 72.527C54.3871 72.0948 54.7232 71.5667 55.1553 71.1826L66.9182 75.4077V75.4557C64.9497 84.4339 62.5971 93.3161 59.5244 101.958C58.5641 104.695 57.7479 106.519 56.6436 109.064C56.4996 109.352 55.8754 110.696 55.6354 111.129C55.3473 111.609 55.0592 112.041 54.7712 112.473L53.7149 113.625Z" fill="url(#paint9_linear_23_2840)"/>
<path d="M1.57387 94.2286C3.06224 95.7169 6.80718 96.3891 10.4081 94.2286C13.6249 92.3081 19.3863 85.6824 28.0285 79.5369C38.3031 72.191 54.4831 64.8452 54.4831 64.8452L66.2461 76.6082C66.2461 76.6082 58.9002 98.6457 51.5544 111.849C44.2085 125.052 36.8627 126.541 32.4456 125.052C30.4771 124.38 22.7952 118.475 16.1215 111.945C9.44784 105.367 2.72616 96.6772 1.57387 94.2286Z" fill="url(#paint10_linear_23_2840)"/>
<path d="M53.2348 65.7095C51.7945 66.3816 52.6107 65.9975 50.8342 66.8617C47.9535 68.2541 44.9287 69.7905 41.904 71.4229C39.4074 72.7672 37.0548 74.1116 34.8462 75.4079C32.3496 76.8962 30.093 78.3366 28.1726 79.729C23.6594 82.8977 19.5784 86.5947 15.5454 90.2916C12.9047 92.6922 11.6564 93.7484 10.5521 94.4206C8.3436 95.6689 4.83872 96.5331 2.48613 95.1408C1.81396 94.8047 1.42987 94.3726 1.38186 94.3246L1.76595 94.0365C3.39836 95.6689 7.19131 95.861 10.3121 93.9885C11.3684 93.3644 12.6167 92.3081 15.2573 89.9075C18.042 87.4109 20.7787 84.8182 23.7074 82.5136C25.7239 80.8812 26.156 80.5932 27.9325 79.2968C29.901 77.9045 32.1576 76.4161 34.6542 74.9278C36.8627 73.5834 39.2153 72.2871 41.7119 70.9428C44.7367 69.3104 47.7615 67.774 50.6422 66.3816C52.3706 65.5174 51.6024 65.9015 52.9948 65.2773L53.2348 65.7095Z" fill="#FFA7A9"/>
<path d="M86.9393 128.989L72.3916 121.595L54.9633 133.646L54.4832 133.166C62.1651 127.741 55.9235 131.774 72.3436 120.779L86.3631 127.933C86.4592 127.213 86.4111 127.597 86.4592 126.781C86.5552 125.436 86.6512 123.9 86.7472 122.171C86.8913 117.274 86.6992 111.993 85.979 106.568C84.4426 95.8608 81.4659 85.0581 75.2243 76.0319C75.6084 75.7438 75.4164 75.8878 75.8485 75.5518L76.0405 75.7918C82.1381 85.2982 85.0668 95.3327 86.6992 106.423C87.4194 111.897 87.6595 117.178 87.4674 122.123C87.4194 123.852 87.3234 125.388 87.1793 126.781C87.1313 127.261 87.0833 127.693 87.0353 128.029C86.9873 128.269 86.9873 128.413 86.9873 128.461L86.9393 128.989Z" fill="url(#paint11_linear_23_2840)"/>
<path opacity="0.25" d="M60.3886 81.7453C55.0593 77.3282 49.6339 69.9344 48.2416 65.2772C46.8492 60.6201 50.018 60.428 55.2993 64.8451C60.6287 69.2622 66.054 76.6561 67.4464 81.3132C68.8867 85.9704 65.7179 86.1624 60.3886 81.7453Z" fill="#121214"/>
<path d="M128.614 86.4987C128.614 86.4987 93.901 91.2519 70.3271 71.2309C71.6234 66.7178 75.1283 50.8738 75.3683 50.6338C99.1823 72.4792 133.271 54.3307 133.271 54.3307L121.316 72.2392L128.614 86.4987Z" fill="url(#paint12_linear_23_2840)"/>
<path opacity="0.4" d="M108.017 30.6128C108.545 32.1012 107.776 34.9819 105.136 36.7583C102.735 38.3427 96.2536 40.2152 89.1958 44.2002C80.7457 48.9534 69.1268 69.0704 69.1268 69.0704L80.0255 78.0006C80.0255 78.0006 83.9145 75.2159 86.3631 70.7988C91.9805 71.1829 98.6542 71.423 103.983 71.0869C115.554 70.3187 118.963 65.6616 119.395 62.1567C119.587 60.5723 116.755 54.8589 113.97 47.1769C112.338 42.6158 109.361 32.1972 108.017 30.6128Z" fill="#121214"/>
<path d="M129.142 86.7867L121.748 72.239L133.799 54.8107L133.319 54.3306C127.893 62.0125 131.926 55.7709 120.932 72.191L128.085 86.2105C127.365 86.3066 127.749 86.2586 126.933 86.3066C125.589 86.4026 124.052 86.4986 122.324 86.5946C117.427 86.7387 112.146 86.5466 106.72 85.8264C96.0135 84.2901 85.2108 81.3133 76.1845 75.0718C75.8964 75.4559 76.0405 75.2638 75.7044 75.6959L75.9445 75.888C85.4508 81.9855 95.4853 84.9142 106.576 86.5466C112.049 87.2668 117.331 87.5069 122.276 87.3148C124.004 87.2668 125.541 87.1708 126.933 87.0267C127.413 86.9787 127.845 86.9307 128.182 86.8827C128.422 86.8347 128.566 86.8347 128.614 86.8347L129.142 86.7867Z" fill="url(#paint13_linear_23_2840)"/>
<path d="M94.3811 1.46965C93.1808 0.79748 89.964 -0.0187234 85.5469 4.39838C82.6182 7.32711 78.105 13.4246 73.5919 21.8267C66.4381 35.2221 62.021 51.4021 62.021 51.4021L73.784 57.2596L110.513 20.5304C110.513 20.5304 95.8215 2.91001 94.3811 1.46965Z" fill="url(#paint14_linear_23_2840)"/>
<path d="M110.849 20.5783C109.169 18.5618 109.985 19.57 108.401 17.6495C106.672 15.537 104.896 13.4245 103.167 11.408C101.007 8.81533 98.7982 6.22268 96.5896 3.67804C96.1575 3.14991 95.0052 1.70955 94.4291 1.27744C92.1725 0.0291295 88.9557 0.605272 85.3548 4.25418C81.994 7.61502 77.4329 14.0966 73.3518 21.7306C71.2393 25.6675 69.2708 30.0846 67.3983 34.7898C65.814 38.7268 64.4696 42.7118 63.2693 46.4567C62.8372 47.7531 62.5011 48.9534 62.165 50.0096C62.069 50.3937 61.973 50.7298 61.877 50.9699C61.7809 51.3059 61.829 51.1139 61.7329 51.498L73.832 57.5475L110.849 20.5783ZM110.225 20.5303L73.7839 56.9714L62.3571 51.2579L62.4051 51.1139C62.5011 50.8258 62.5971 50.4897 62.6932 50.1537C62.9812 49.0974 63.3653 47.8971 63.7975 46.6008C64.9978 42.8558 66.3901 38.9189 67.9265 34.9819C69.799 30.2767 71.7674 25.9076 73.88 21.9706C77.961 14.3847 82.4261 7.95111 85.7869 4.59027C87.6594 2.76581 90.2521 0.701296 93.0848 1.22943C93.3728 1.27744 93.997 1.46949 94.2851 1.66154C94.5731 1.85359 95.2933 2.81382 95.4854 3.00587C96.0615 3.67804 96.7817 4.49424 97.3578 5.21442C99.0383 7.18292 100.671 9.1034 102.303 11.0719C102.495 11.312 102.687 11.504 102.831 11.7441C104.512 13.7606 106.288 15.8731 108.016 17.9856C108.641 18.7058 109.217 19.378 109.697 20.0021L110.225 20.5303Z" fill="#FFA7A9"/>
<path d="M109.025 27.876C109.553 29.3643 108.785 32.2451 106.144 34.0215C103.743 35.6059 97.2618 37.4784 90.2041 41.4634C81.7539 46.2166 71.3833 55.0508 71.3833 55.0508L75.7044 67.0538C75.7044 67.0538 93.4209 69.1663 104.992 68.3501C116.563 67.5819 119.972 62.9247 120.404 59.4199C120.596 57.8355 117.763 52.122 114.978 44.4401C113.346 39.879 110.369 29.4604 109.025 27.876Z" fill="url(#paint15_linear_23_2840)"/>
<path d="M59.8125 6.0306C64.5177 9.00735 65.4779 16.7853 65.0938 24.8993C64.6137 34.5977 62.8372 52.5542 62.8372 52.5542L75.3204 55.2909C75.3204 55.2909 86.5071 41.4154 91.9805 31.1889C97.4539 20.9623 98.7022 16.4012 95.9175 14.1446C94.6692 13.1364 88.3796 10.8318 80.3616 9.10337C75.6564 8.04711 61.877 5.69452 59.8125 6.0306Z" fill="url(#paint16_linear_23_2840)"/>
<path opacity="0.308" d="M74.3601 55.0027C81.6099 45.7844 88.6677 36.326 93.7089 25.7154C94.4771 24.083 95.2933 22.1625 95.8695 20.4341C96.3496 18.8497 96.7817 16.9772 96.1575 15.3928C95.5334 13.7604 94.189 13.2323 92.7007 12.6081C92.1245 12.3681 91.5484 12.128 90.9722 11.9359C89.0038 11.2158 86.7472 10.6396 84.7307 10.0635C86.8912 12.5601 85.7389 15.1528 84.5866 16.9292C83.1943 18.9937 80.6977 21.7784 78.201 24.9952C75.7524 28.164 73.6879 32.149 72.5836 34.8857C70.9992 38.7266 67.8305 45.5924 64.4216 52.9862L74.3601 55.0027Z" fill="url(#paint17_linear_23_2840)"/>
<path d="M66.8702 54.1389L71.5274 45.9768L69.895 55.7713L78.8252 45.4967L72.1995 57.9798L87.5634 44.5845L74.024 59.7083L82.6181 56.8275L75.9445 61.8208L95.6294 56.4434L76.1845 64.4614C76.0885 64.4614 66.8702 54.1389 66.8702 54.1389Z" fill="#80000D"/>
<path d="M63.1253 51.69L63.1733 51.1619C63.2693 50.0576 63.4134 48.8093 63.5094 47.465C63.8455 43.624 64.1816 39.783 64.5176 36.1341C64.5656 35.846 64.5656 35.51 64.6137 35.2219C64.9497 31.1409 65.1898 27.636 65.3338 24.8993C65.4779 20.4822 65.5739 15.8731 64.1335 11.648C63.4614 9.6795 62.1651 7.42294 60.3886 6.17462C59.6204 5.83854 59.9565 6.03059 59.2843 6.0786L59.7645 6.36667C63.8935 8.95932 65.3338 15.2489 64.8537 24.8513C64.7097 27.54 64.4696 31.0448 64.1335 35.1259C64.1335 35.4139 64.0855 35.75 64.0375 36.0381C63.7494 39.639 63.4134 43.528 63.0293 47.3689C62.8852 48.7133 62.7892 49.9616 62.6932 51.0659L62.6452 51.546L62.7892 51.594L63.1253 51.69Z" fill="#FFA7A9"/>
<path opacity="0.311" d="M113.778 53.5626C115.122 52.1222 116.275 50.2977 116.419 48.2812C115.266 45.3045 115.746 46.6008 114.93 44.3443C113.298 39.8311 110.321 29.4125 108.977 27.8281C109.505 29.3165 108.737 32.1972 106.096 33.9737C103.695 35.5581 97.2138 37.4305 90.1561 41.4155C85.2588 44.2002 80.6977 47.5611 76.2326 51.0179C75.0323 51.9302 73.832 52.8904 72.6797 53.8506C72.2476 54.2347 71.7194 54.5708 71.3354 55.0029L75.5604 66.7659H75.6084C84.5867 64.7974 93.4689 62.4448 102.111 59.372C104.848 58.4118 106.672 57.5956 109.217 56.4913C109.505 56.3473 110.849 55.7231 111.281 55.483C111.761 55.195 112.194 54.9069 112.626 54.6188L113.778 53.5626Z" fill="url(#paint18_linear_23_2840)"/>
<path d="M94.3811 1.46973C95.8695 2.9581 96.5416 6.70303 94.3811 10.3039C92.4606 13.5207 85.835 19.2822 79.6894 27.9243C72.3436 38.1989 64.9977 54.3789 64.9977 54.3789L76.7607 66.1419C76.7607 66.1419 98.7982 58.7961 112.002 51.4502C125.205 44.1044 126.693 36.7585 125.205 32.3414C124.533 30.373 119.587 23.6993 111.905 16.2094C105.232 9.58375 96.8297 2.574 94.3811 1.46973Z" fill="url(#paint19_linear_23_2840)"/>
<path d="M65.862 53.0824C66.5341 51.6421 66.15 52.4583 67.0142 50.6818C68.4066 47.8011 69.943 44.7764 71.5754 41.7516C72.9197 39.255 74.2641 36.9024 75.5604 34.6939C77.0487 32.1972 78.4891 29.9407 79.8815 28.0202C83.0503 23.5071 86.7472 19.426 90.4441 15.393C92.8447 12.7524 93.901 11.5041 94.5731 10.3998C95.8214 8.19123 96.6857 4.68636 95.2933 2.33377C94.9572 1.6616 94.5251 1.2775 94.4771 1.22949L94.189 1.61359C95.8214 3.246 96.0135 7.03894 94.141 10.1597C93.5169 11.216 92.4606 12.4643 90.06 15.105C87.5634 17.8897 84.9707 20.6263 82.6662 23.5551C81.0337 25.5716 80.7457 26.0037 79.4494 27.7801C78.057 29.7486 76.5686 32.0052 75.0803 34.5018C73.7359 36.7104 72.4396 39.0629 71.0953 41.5596C69.4629 44.5843 67.9265 47.6091 66.5341 50.4898C65.6699 52.2182 66.054 51.45 65.4298 52.8424L65.862 53.0824Z" fill="#FFA7A9"/>
<path opacity="0.25" d="M81.898 60.3804C77.4809 55.051 70.0871 49.6257 65.4299 48.2333C60.7727 46.841 60.5807 50.0098 64.9978 55.2911C69.4149 60.6204 76.8087 66.0458 81.4659 67.4381C86.1231 68.8305 86.3151 65.6617 81.898 60.3804Z" fill="#121214"/>
<path d="M47.8575 61.3406C48.0975 58.5079 59.5244 47.8973 62.069 47.4172C64.6137 46.9851 85.1628 65.3737 84.3946 68.7345C83.7705 71.6152 71.9595 83.0901 68.6467 84.4824C65.4299 85.8268 47.6174 64.1734 47.8575 61.3406Z" fill="url(#paint20_linear_23_2840)"/>
<defs>
<linearGradient id="paint0_linear_23_2840" x1="68.1836" y1="8.0038" x2="58.9782" y2="50.2276" gradientUnits="userSpaceOnUse">
<stop stop-color="#580009"/>
<stop offset="0.135" stop-color="#A40011"/>
<stop offset="0.263" stop-color="#D80016"/>
<stop offset="0.562" stop-color="#AA0012"/>
<stop offset="0.991" stop-color="#5B0009"/>
</linearGradient>
<linearGradient id="paint1_linear_23_2840" x1="72.9741" y1="30.8627" x2="55.9067" y2="27.5733" gradientUnits="userSpaceOnUse">
<stop/>
<stop offset="0.2653" stop-color="#525252"/>
<stop offset="0.5274" stop-color="#9C9C9C"/>
<stop offset="0.7427" stop-color="#D2D2D2"/>
<stop offset="0.9032" stop-color="#F3F3F3"/>
<stop offset="0.991" stop-color="white"/>
</linearGradient>
<linearGradient id="paint2_linear_23_2840" x1="8.1426" y1="68.0449" x2="50.3661" y2="58.8396" gradientUnits="userSpaceOnUse">
<stop stop-color="#580009"/>
<stop offset="0.135" stop-color="#A40011"/>
<stop offset="0.263" stop-color="#D80016"/>
<stop offset="0.562" stop-color="#AA0012"/>
<stop offset="0.991" stop-color="#5B0009"/>
</linearGradient>
<linearGradient id="paint3_linear_23_2840" x1="30.7972" y1="72.8023" x2="27.5401" y2="54.3025" gradientUnits="userSpaceOnUse">
<stop/>
<stop offset="0.4425" stop-color="#787878"/>
<stop offset="0.822" stop-color="#D9D9D9"/>
<stop offset="0.991" stop-color="white"/>
</linearGradient>
<linearGradient id="paint4_linear_23_2840" x1="82.0945" y1="141.528" x2="52.6631" y2="76.1297" gradientUnits="userSpaceOnUse">
<stop stop-color="#D50016"/>
<stop offset="0.342" stop-color="#FF001B"/>
<stop offset="0.536" stop-color="#C70015"/>
<stop offset="0.729" stop-color="#80000D"/>
</linearGradient>
<linearGradient id="paint5_linear_23_2840" x1="8.93882" y1="101.577" x2="50.0618" y2="60.4545" gradientUnits="userSpaceOnUse">
<stop stop-color="#580009"/>
<stop offset="0.135" stop-color="#A40011"/>
<stop offset="0.263" stop-color="#E60018"/>
<stop offset="0.5" stop-color="#BD0014"/>
</linearGradient>
<linearGradient id="paint6_linear_23_2840" x1="45.7753" y1="115.625" x2="61.0178" y2="73.3142" gradientUnits="userSpaceOnUse">
<stop stop-color="#93000F"/>
<stop offset="0.111" stop-color="#D50016"/>
<stop offset="0.226" stop-color="#FF3B46"/>
<stop offset="0.361" stop-color="#E10017"/>
<stop offset="0.551" stop-color="#990010"/>
<stop offset="0.782" stop-color="#67000B"/>
</linearGradient>
<linearGradient id="paint7_linear_23_2840" x1="8.95925" y1="79.1535" x2="54.1193" y2="69.3079" gradientUnits="userSpaceOnUse">
<stop stop-color="#93000F"/>
<stop offset="0.111" stop-color="#D50016"/>
<stop offset="0.226" stop-color="#FF7780"/>
<stop offset="0.361" stop-color="#FF001B"/>
<stop offset="0.551" stop-color="#AD0012"/>
<stop offset="0.865" stop-color="#70000C"/>
</linearGradient>
<linearGradient id="paint8_linear_23_2840" x1="12.8162" y1="90.5365" x2="55.096" y2="72.1607" gradientUnits="userSpaceOnUse">
<stop offset="0.139"/>
<stop offset="0.389" stop-color="#464646"/>
<stop offset="0.835"/>
</linearGradient>
<linearGradient id="paint9_linear_23_2840" x1="40.6578" y1="113.185" x2="57.3347" y2="71.9811" gradientUnits="userSpaceOnUse">
<stop offset="0.126"/>
<stop offset="0.498" stop-color="#464646"/>
<stop offset="0.844"/>
</linearGradient>
<linearGradient id="paint10_linear_23_2840" x1="17.4984" y1="113.327" x2="60.2163" y2="70.6089" gradientUnits="userSpaceOnUse">
<stop stop-color="#93000F"/>
<stop offset="0.111" stop-color="#D50016"/>
<stop offset="0.226" stop-color="#FF7780"/>
<stop offset="0.361" stop-color="#FF001B"/>
<stop offset="0.573" stop-color="#C70015"/>
<stop offset="0.857" stop-color="#6C000B"/>
</linearGradient>
<linearGradient id="paint11_linear_23_2840" x1="86.1426" y1="100.87" x2="48.2125" y2="112.143" gradientUnits="userSpaceOnUse">
<stop stop-color="#80000D"/>
<stop offset="1" stop-color="#C70015"/>
</linearGradient>
<linearGradient id="paint12_linear_23_2840" x1="141.666" y1="81.9552" x2="76.2683" y2="52.524" gradientUnits="userSpaceOnUse">
<stop stop-color="#D50016"/>
<stop offset="0.342" stop-color="#FF001B"/>
<stop offset="0.536" stop-color="#C70015"/>
<stop offset="0.729" stop-color="#80000D"/>
</linearGradient>
<linearGradient id="paint13_linear_23_2840" x1="101.009" y1="86.0033" x2="112.281" y2="48.0728" gradientUnits="userSpaceOnUse">
<stop stop-color="#80000D"/>
<stop offset="1" stop-color="#C70015"/>
</linearGradient>
<linearGradient id="paint14_linear_23_2840" x1="101.716" y1="8.80039" x2="60.5932" y2="49.9231" gradientUnits="userSpaceOnUse">
<stop stop-color="#580009"/>
<stop offset="0.135" stop-color="#A40011"/>
<stop offset="0.263" stop-color="#E60018"/>
<stop offset="0.5" stop-color="#BD0014"/>
</linearGradient>
<linearGradient id="paint15_linear_23_2840" x1="115.764" y1="45.6359" x2="73.4537" y2="60.8782" gradientUnits="userSpaceOnUse">
<stop stop-color="#93000F"/>
<stop offset="0.111" stop-color="#D50016"/>
<stop offset="0.226" stop-color="#FF3B46"/>
<stop offset="0.361" stop-color="#E10017"/>
<stop offset="0.551" stop-color="#990010"/>
<stop offset="0.782" stop-color="#67000B"/>
</linearGradient>
<linearGradient id="paint16_linear_23_2840" x1="79.2922" y1="8.82024" x2="69.4466" y2="53.9806" gradientUnits="userSpaceOnUse">
<stop stop-color="#93000F"/>
<stop offset="0.111" stop-color="#D50016"/>
<stop offset="0.226" stop-color="#FF7780"/>
<stop offset="0.361" stop-color="#FF001B"/>
<stop offset="0.551" stop-color="#AD0012"/>
<stop offset="0.865" stop-color="#70000C"/>
</linearGradient>
<linearGradient id="paint17_linear_23_2840" x1="90.6746" y1="12.6781" x2="72.2984" y2="54.9583" gradientUnits="userSpaceOnUse">
<stop offset="0.139"/>
<stop offset="0.389" stop-color="#464646"/>
<stop offset="0.835"/>
</linearGradient>
<linearGradient id="paint18_linear_23_2840" x1="113.323" y1="40.5195" x2="72.1185" y2="57.1965" gradientUnits="userSpaceOnUse">
<stop offset="0.126"/>
<stop offset="0.498" stop-color="#464646"/>
<stop offset="0.844"/>
</linearGradient>
<linearGradient id="paint19_linear_23_2840" x1="113.307" y1="17.5182" x2="70.7478" y2="60.0774" gradientUnits="userSpaceOnUse">
<stop stop-color="#93000F"/>
<stop offset="0.111" stop-color="#D50016"/>
<stop offset="0.226" stop-color="#FF7780"/>
<stop offset="0.361" stop-color="#FF001B"/>
<stop offset="0.573" stop-color="#C70015"/>
<stop offset="0.857" stop-color="#6C000B"/>
</linearGradient>
<linearGradient id="paint20_linear_23_2840" x1="53.8745" y1="53.9838" x2="77.2259" y2="77.1152" gradientUnits="userSpaceOnUse">
<stop offset="0.011" stop-color="#80000D"/>
<stop offset="0.16" stop-color="#B80013"/>
<stop offset="0.303" stop-color="#E10018"/>
<stop offset="0.5" stop-color="#FF5D61"/>
<stop offset="0.694" stop-color="#E50018"/>
<stop offset="0.853" stop-color="#B60013"/>
<stop offset="1" stop-color="#80000D"/>
</linearGradient>
</defs>
</svg>
