<svg width="285" height="40" viewBox="0 0 285 40" fill="none" xmlns="http://www.w3.org/2000/svg">
<path d="M6.848 8.104C8.132 8.404 8.774 9.178 8.774 10.426C8.774 11.254 8.468 11.89 7.856 12.334C7.244 12.778 6.332 13 5.12 13H0.818V3.532H4.994C6.074 3.532 6.92 3.742 7.532 4.162C8.144 4.582 8.45 5.182 8.45 5.962C8.45 6.478 8.306 6.922 8.018 7.294C7.742 7.654 7.352 7.924 6.848 8.104ZM2.06 7.744H4.904C5.636 7.744 6.194 7.606 6.578 7.33C6.974 7.054 7.172 6.652 7.172 6.124C7.172 5.596 6.974 5.2 6.578 4.936C6.194 4.672 5.636 4.54 4.904 4.54H2.06V7.744ZM5.066 11.992C5.882 11.992 6.494 11.86 6.902 11.596C7.31 11.332 7.514 10.918 7.514 10.354C7.514 9.79 7.328 9.376 6.956 9.112C6.584 8.836 5.996 8.698 5.192 8.698H2.06V11.992H5.066ZM23.6261 3.532V13H22.3481V9.058C21.2561 9.538 20.1821 9.778 19.1261 9.778C17.9861 9.778 17.0981 9.52 16.4621 9.004C15.8261 8.476 15.5081 7.69 15.5081 6.646V3.532H16.7861V6.574C16.7861 7.282 17.0141 7.822 17.4701 8.194C17.9261 8.554 18.5561 8.734 19.3601 8.734C20.2481 8.734 21.2441 8.5 22.3481 8.032V3.532H23.6261ZM35.5355 8.662H27.6155C27.6875 9.646 28.0655 10.444 28.7495 11.056C29.4335 11.656 30.2975 11.956 31.3415 11.956C31.9295 11.956 32.4695 11.854 32.9615 11.65C33.4535 11.434 33.8795 11.122 34.2395 10.714L34.9595 11.542C34.5395 12.046 34.0115 12.43 33.3755 12.694C32.7515 12.958 32.0615 13.09 31.3055 13.09C30.3335 13.09 29.4695 12.886 28.7135 12.478C27.9695 12.058 27.3875 11.482 26.9675 10.75C26.5475 10.018 26.3375 9.19 26.3375 8.266C26.3375 7.342 26.5355 6.514 26.9315 5.782C27.3395 5.05 27.8915 4.48 28.5875 4.072C29.2955 3.664 30.0875 3.46 30.9635 3.46C31.8395 3.46 32.6255 3.664 33.3215 4.072C34.0175 4.48 34.5635 5.05 34.9595 5.782C35.3555 6.502 35.5535 7.33 35.5535 8.266L35.5355 8.662ZM30.9635 4.558C30.0515 4.558 29.2835 4.852 28.6595 5.44C28.0475 6.016 27.6995 6.772 27.6155 7.708H34.3295C34.2455 6.772 33.8915 6.016 33.2675 5.44C32.6555 4.852 31.8875 4.558 30.9635 4.558ZM42.3425 13.09C41.4065 13.09 40.5665 12.886 39.8225 12.478C39.0905 12.07 38.5145 11.5 38.0945 10.768C37.6745 10.024 37.4645 9.19 37.4645 8.266C37.4645 7.342 37.6745 6.514 38.0945 5.782C38.5145 5.05 39.0905 4.48 39.8225 4.072C40.5665 3.664 41.4065 3.46 42.3425 3.46C43.1585 3.46 43.8845 3.622 44.5205 3.946C45.1685 4.258 45.6785 4.72 46.0505 5.332L45.0965 5.98C44.7845 5.512 44.3885 5.164 43.9085 4.936C43.4285 4.696 42.9065 4.576 42.3425 4.576C41.6585 4.576 41.0405 4.732 40.4885 5.044C39.9485 5.344 39.5225 5.776 39.2105 6.34C38.9105 6.904 38.7605 7.546 38.7605 8.266C38.7605 8.998 38.9105 9.646 39.2105 10.21C39.5225 10.762 39.9485 11.194 40.4885 11.506C41.0405 11.806 41.6585 11.956 42.3425 11.956C42.9065 11.956 43.4285 11.842 43.9085 11.614C44.3885 11.386 44.7845 11.038 45.0965 10.57L46.0505 11.218C45.6785 11.83 45.1685 12.298 44.5205 12.622C43.8725 12.934 43.1465 13.09 42.3425 13.09ZM55.0093 4.666H51.4273V13H50.1493V4.666H46.5673V3.532H55.0093V4.666ZM60.9251 6.88C62.1131 6.892 63.0131 7.156 63.6251 7.672C64.2491 8.188 64.5611 8.932 64.5611 9.904C64.5611 10.912 64.2251 11.686 63.5531 12.226C62.8931 12.766 61.9331 13.03 60.6731 13.018L56.8571 13V3.532H58.1351V6.844L60.9251 6.88ZM60.6011 12.046C61.4771 12.058 62.1371 11.884 62.5811 11.524C63.0371 11.152 63.2651 10.612 63.2651 9.904C63.2651 9.208 63.0431 8.692 62.5991 8.356C62.1551 8.02 61.4891 7.846 60.6011 7.834L58.1351 7.798V12.01L60.6011 12.046ZM83.5906 11.848V15.826H82.3486V13H71.3506L71.3326 15.826H70.0906L70.1086 11.848H70.7386C71.5666 11.8 72.1426 11.146 72.4666 9.886C72.7906 8.614 72.9886 6.814 73.0606 4.486L73.2046 0.399999H81.7006V11.848H83.5906ZM74.2486 4.612C74.1886 6.532 74.0386 8.116 73.7986 9.364C73.5706 10.6 73.1806 11.428 72.6286 11.848H80.3866V1.552H74.3566L74.2486 4.612ZM86.0016 3.532H87.2796V7.726H93.2376V3.532H94.5156V13H93.2376V8.824H87.2796V13H86.0016V3.532ZM105.42 3.532V13H104.25V9.868H101.28H100.92L98.7241 13H97.3381L99.6961 9.688C98.9641 9.484 98.4001 9.136 98.0041 8.644C97.6081 8.152 97.4101 7.528 97.4101 6.772C97.4101 5.716 97.7701 4.912 98.4901 4.36C99.2101 3.808 100.194 3.532 101.442 3.532H105.42ZM98.7061 6.808C98.7061 8.212 99.6001 8.914 101.388 8.914H104.25V4.666H101.478C99.6301 4.666 98.7061 5.38 98.7061 6.808ZM118.797 0.399999C120.405 0.399999 121.665 0.783999 122.577 1.552C123.489 2.32 123.945 3.376 123.945 4.72C123.945 6.064 123.489 7.12 122.577 7.888C121.665 8.644 120.405 9.022 118.797 9.022H115.413V13H114.081V0.399999H118.797ZM118.761 7.852C120.009 7.852 120.963 7.582 121.623 7.042C122.283 6.49 122.613 5.716 122.613 4.72C122.613 3.7 122.283 2.92 121.623 2.38C120.963 1.828 120.009 1.552 118.761 1.552H115.413V7.852H118.761ZM130.232 13.09C129.32 13.09 128.498 12.886 127.766 12.478C127.034 12.058 126.458 11.482 126.038 10.75C125.618 10.018 125.408 9.19 125.408 8.266C125.408 7.342 125.618 6.514 126.038 5.782C126.458 5.05 127.034 4.48 127.766 4.072C128.498 3.664 129.32 3.46 130.232 3.46C131.144 3.46 131.966 3.664 132.698 4.072C133.43 4.48 134 5.05 134.408 5.782C134.828 6.514 135.038 7.342 135.038 8.266C135.038 9.19 134.828 10.018 134.408 10.75C134 11.482 133.43 12.058 132.698 12.478C131.966 12.886 131.144 13.09 130.232 13.09ZM130.232 11.956C130.904 11.956 131.504 11.806 132.032 11.506C132.572 11.194 132.992 10.756 133.292 10.192C133.592 9.628 133.742 8.986 133.742 8.266C133.742 7.546 133.592 6.904 133.292 6.34C132.992 5.776 132.572 5.344 132.032 5.044C131.504 4.732 130.904 4.576 130.232 4.576C129.56 4.576 128.954 4.732 128.414 5.044C127.886 5.344 127.466 5.776 127.154 6.34C126.854 6.904 126.704 7.546 126.704 8.266C126.704 8.986 126.854 9.628 127.154 10.192C127.466 10.756 127.886 11.194 128.414 11.506C128.954 11.806 129.56 11.956 130.232 11.956ZM145.733 8.788H143.681V13H142.403V8.788H140.351L137.453 13H135.923L139.325 8.122L136.193 3.532H137.579L140.351 7.69H142.403V3.532H143.681V7.69H145.733L148.523 3.532H149.909L146.777 8.14L150.179 13H148.649L145.733 8.788ZM161.54 11.884V15.286H160.334V13H151.856V15.286H150.65V11.884H151.19C151.826 11.848 152.258 11.38 152.486 10.48C152.714 9.58 152.87 8.32 152.954 6.7L153.08 3.532H160.064V11.884H161.54ZM154.124 6.772C154.064 8.116 153.95 9.226 153.782 10.102C153.614 10.966 153.314 11.56 152.882 11.884H158.786V4.666H154.232L154.124 6.772ZM172.311 8.662H164.391C164.463 9.646 164.841 10.444 165.525 11.056C166.209 11.656 167.073 11.956 168.117 11.956C168.705 11.956 169.245 11.854 169.737 11.65C170.229 11.434 170.655 11.122 171.015 10.714L171.735 11.542C171.315 12.046 170.787 12.43 170.151 12.694C169.527 12.958 168.837 13.09 168.081 13.09C167.109 13.09 166.245 12.886 165.489 12.478C164.745 12.058 164.163 11.482 163.743 10.75C163.323 10.018 163.113 9.19 163.113 8.266C163.113 7.342 163.311 6.514 163.707 5.782C164.115 5.05 164.667 4.48 165.363 4.072C166.071 3.664 166.863 3.46 167.739 3.46C168.615 3.46 169.401 3.664 170.097 4.072C170.793 4.48 171.339 5.05 171.735 5.782C172.131 6.502 172.329 7.33 172.329 8.266L172.311 8.662ZM167.739 4.558C166.827 4.558 166.059 4.852 165.435 5.44C164.823 6.016 164.475 6.772 164.391 7.708H171.105C171.021 6.772 170.667 6.016 170.043 5.44C169.431 4.852 168.663 4.558 167.739 4.558ZM175.158 3.532H176.436V7.726H182.394V3.532H183.672V13H182.394V8.824H176.436V13H175.158V3.532ZM187.304 3.532H188.582V11.056L194.9 3.532H196.034V13H194.756V5.476L188.456 13H187.304V3.532ZM206.969 3.532V13H205.799V9.868H202.829H202.469L200.273 13H198.887L201.245 9.688C200.513 9.484 199.949 9.136 199.553 8.644C199.157 8.152 198.959 7.528 198.959 6.772C198.959 5.716 199.319 4.912 200.039 4.36C200.759 3.808 201.743 3.532 202.991 3.532H206.969ZM200.255 6.808C200.255 8.212 201.149 8.914 202.937 8.914H205.799V4.666H203.027C201.179 4.666 200.255 5.38 200.255 6.808ZM214.586 7.564H219.302V8.68H214.586V7.564ZM236.142 11.884V15.286H234.936V13H226.458V15.286H225.252V11.884H225.792C226.428 11.848 226.86 11.38 227.088 10.48C227.316 9.58 227.472 8.32 227.556 6.7L227.682 3.532H234.666V11.884H236.142ZM228.726 6.772C228.666 8.116 228.552 9.226 228.384 10.102C228.216 10.966 227.916 11.56 227.484 11.884H233.388V4.666H228.834L228.726 6.772ZM241.89 3.46C243.126 3.46 244.074 3.772 244.734 4.396C245.394 5.008 245.724 5.92 245.724 7.132V13H244.5V11.524C244.212 12.016 243.786 12.4 243.222 12.676C242.67 12.952 242.01 13.09 241.242 13.09C240.186 13.09 239.346 12.838 238.722 12.334C238.098 11.83 237.786 11.164 237.786 10.336C237.786 9.532 238.074 8.884 238.65 8.392C239.238 7.9 240.168 7.654 241.44 7.654H244.446V7.078C244.446 6.262 244.218 5.644 243.762 5.224C243.306 4.792 242.64 4.576 241.764 4.576C241.164 4.576 240.588 4.678 240.036 4.882C239.484 5.074 239.01 5.344 238.614 5.692L238.038 4.738C238.518 4.33 239.094 4.018 239.766 3.802C240.438 3.574 241.146 3.46 241.89 3.46ZM241.44 12.082C242.16 12.082 242.778 11.92 243.294 11.596C243.81 11.26 244.194 10.78 244.446 10.156V8.608H241.476C239.856 8.608 239.046 9.172 239.046 10.3C239.046 10.852 239.256 11.29 239.676 11.614C240.096 11.926 240.684 12.082 241.44 12.082ZM254.005 3.46C254.893 3.46 255.697 3.664 256.417 4.072C257.137 4.468 257.701 5.032 258.109 5.764C258.517 6.496 258.721 7.33 258.721 8.266C258.721 9.214 258.517 10.054 258.109 10.786C257.701 11.518 257.137 12.088 256.417 12.496C255.709 12.892 254.905 13.09 254.005 13.09C253.237 13.09 252.541 12.934 251.917 12.622C251.305 12.298 250.801 11.83 250.405 11.218V16.492H249.127V3.532H250.351V5.404C250.735 4.78 251.239 4.3 251.863 3.964C252.499 3.628 253.213 3.46 254.005 3.46ZM253.915 11.956C254.575 11.956 255.175 11.806 255.715 11.506C256.255 11.194 256.675 10.756 256.975 10.192C257.287 9.628 257.443 8.986 257.443 8.266C257.443 7.546 257.287 6.91 256.975 6.358C256.675 5.794 256.255 5.356 255.715 5.044C255.175 4.732 254.575 4.576 253.915 4.576C253.243 4.576 252.637 4.732 252.097 5.044C251.569 5.356 251.149 5.794 250.837 6.358C250.537 6.91 250.387 7.546 250.387 8.266C250.387 8.986 250.537 9.628 250.837 10.192C251.149 10.756 251.569 11.194 252.097 11.506C252.637 11.806 253.243 11.956 253.915 11.956ZM261.466 3.532H262.744V11.056L269.062 3.532H270.196V13H268.918V5.476L262.618 13H261.466V3.532ZM284.443 3.532V13H283.273V5.512L279.439 11.848H278.863L275.029 5.494V13H273.859V3.532H275.155L279.169 10.354L283.255 3.532H284.443ZM0.818 26.532H2.096V34.056L8.414 26.532H9.548V36H8.27V28.476L1.97 36H0.818V26.532ZM23.7946 26.532V36H22.6246V28.512L18.7906 34.848H18.2146L14.3806 28.494V36H13.2106V26.532H14.5066L18.5206 33.354L22.6066 26.532H23.7946ZM35.7113 31.662H27.7913C27.8633 32.646 28.2413 33.444 28.9253 34.056C29.6093 34.656 30.4733 34.956 31.5173 34.956C32.1053 34.956 32.6453 34.854 33.1373 34.65C33.6293 34.434 34.0553 34.122 34.4153 33.714L35.1353 34.542C34.7153 35.046 34.1873 35.43 33.5513 35.694C32.9273 35.958 32.2373 36.09 31.4813 36.09C30.5093 36.09 29.6453 35.886 28.8893 35.478C28.1453 35.058 27.5633 34.482 27.1433 33.75C26.7233 33.018 26.5133 32.19 26.5133 31.266C26.5133 30.342 26.7113 29.514 27.1073 28.782C27.5153 28.05 28.0673 27.48 28.7633 27.072C29.4713 26.664 30.2633 26.46 31.1393 26.46C32.0153 26.46 32.8013 26.664 33.4973 27.072C34.1933 27.48 34.7393 28.05 35.1353 28.782C35.5313 29.502 35.7293 30.33 35.7293 31.266L35.7113 31.662ZM31.1393 27.558C30.2273 27.558 29.4593 27.852 28.8353 28.44C28.2233 29.016 27.8753 29.772 27.7913 30.708H34.5053C34.4213 29.772 34.0673 29.016 33.4433 28.44C32.8313 27.852 32.0633 27.558 31.1393 27.558ZM38.5582 26.532H39.8362V30.726H45.7942V26.532H47.0722V36H45.7942V31.824H39.8362V36H38.5582V26.532ZM50.7047 26.532H51.9827V34.056L58.3007 26.532H59.4347V36H58.1567V28.476L51.8567 36H50.7047V26.532ZM63.0973 26.532H64.3753V30.726H70.3333V26.532H71.6113V36H70.3333V31.824H64.3753V36H63.0973V26.532ZM75.2438 26.532H76.5218V30.726H82.4798V26.532H83.7578V36H82.4798V31.824H76.5218V36H75.2438V26.532ZM87.3903 26.532H88.6683V34.056L94.9863 26.532H96.1203V36H94.8423V28.476L88.5423 36H87.3903V26.532ZM103.221 31.788H101.061V36H99.7828V26.532H101.061V30.69H103.239L106.569 26.532H107.955L104.229 31.122L108.225 36H106.713L103.221 31.788ZM117.743 26.532L113.009 37.134C112.625 38.022 112.181 38.652 111.677 39.024C111.173 39.396 110.567 39.582 109.859 39.582C109.403 39.582 108.977 39.51 108.581 39.366C108.185 39.222 107.843 39.006 107.555 38.718L108.149 37.764C108.629 38.244 109.205 38.484 109.877 38.484C110.309 38.484 110.675 38.364 110.975 38.124C111.287 37.884 111.575 37.476 111.839 36.9L112.253 35.982L108.023 26.532H109.355L112.919 34.578L116.483 26.532H117.743ZM128.405 36.09C127.469 36.09 126.629 35.886 125.885 35.478C125.153 35.07 124.577 34.5 124.157 33.768C123.737 33.024 123.527 32.19 123.527 31.266C123.527 30.342 123.737 29.514 124.157 28.782C124.577 28.05 125.153 27.48 125.885 27.072C126.629 26.664 127.469 26.46 128.405 26.46C129.221 26.46 129.947 26.622 130.583 26.946C131.231 27.258 131.741 27.72 132.113 28.332L131.159 28.98C130.847 28.512 130.451 28.164 129.971 27.936C129.491 27.696 128.969 27.576 128.405 27.576C127.721 27.576 127.103 27.732 126.551 28.044C126.011 28.344 125.585 28.776 125.273 29.34C124.973 29.904 124.823 30.546 124.823 31.266C124.823 31.998 124.973 32.646 125.273 33.21C125.585 33.762 126.011 34.194 126.551 34.506C127.103 34.806 127.721 34.956 128.405 34.956C128.969 34.956 129.491 34.842 129.971 34.614C130.451 34.386 130.847 34.038 131.159 33.57L132.113 34.218C131.741 34.83 131.231 35.298 130.583 35.622C129.935 35.934 129.209 36.09 128.405 36.09ZM138.026 31.788H135.866V36H134.588V26.532H135.866V30.69H138.044L141.374 26.532H142.76L139.034 31.122L143.03 36H141.518L138.026 31.788ZM145.047 26.532H146.325V34.056L152.643 26.532H153.777V36H152.499V28.476L146.199 36H145.047V26.532ZM166.673 34.884V38.286H165.467V36H156.989V38.286H155.783V34.884H156.323C156.959 34.848 157.391 34.38 157.619 33.48C157.847 32.58 158.003 31.32 158.087 29.7L158.213 26.532H165.197V34.884H166.673ZM159.257 29.772C159.197 31.116 159.083 32.226 158.915 33.102C158.747 33.966 158.447 34.56 158.015 34.884H163.919V27.666H159.365L159.257 29.772ZM172.602 31.788H170.442V36H169.164V26.532H170.442V30.69H172.62L175.95 26.532H177.336L173.61 31.122L177.606 36H176.094L172.602 31.788ZM187.124 26.532L182.39 37.134C182.006 38.022 181.562 38.652 181.058 39.024C180.554 39.396 179.948 39.582 179.24 39.582C178.784 39.582 178.358 39.51 177.962 39.366C177.566 39.222 177.224 39.006 176.936 38.718L177.53 37.764C178.01 38.244 178.586 38.484 179.258 38.484C179.69 38.484 180.056 38.364 180.356 38.124C180.668 37.884 180.956 37.476 181.22 36.9L181.634 35.982L177.404 26.532H178.736L182.3 34.578L185.864 26.532H187.124ZM196.436 23.4V36H195.14V24.552H192.17V23.4H196.436ZM204.47 36.108C203.498 36.108 202.628 35.85 201.86 35.334C201.104 34.818 200.51 34.08 200.078 33.12C199.658 32.148 199.448 31.008 199.448 29.7C199.448 28.392 199.658 27.258 200.078 26.298C200.51 25.326 201.104 24.582 201.86 24.066C202.628 23.55 203.498 23.292 204.47 23.292C205.442 23.292 206.306 23.55 207.062 24.066C207.83 24.582 208.43 25.326 208.862 26.298C209.294 27.258 209.51 28.392 209.51 29.7C209.51 31.008 209.294 32.148 208.862 33.12C208.43 34.08 207.83 34.818 207.062 35.334C206.306 35.85 205.442 36.108 204.47 36.108ZM204.47 34.92C205.202 34.92 205.844 34.716 206.396 34.308C206.96 33.9 207.398 33.306 207.71 32.526C208.022 31.746 208.178 30.804 208.178 29.7C208.178 28.596 208.022 27.654 207.71 26.874C207.398 26.094 206.96 25.5 206.396 25.092C205.844 24.684 205.202 24.48 204.47 24.48C203.738 24.48 203.09 24.684 202.526 25.092C201.974 25.5 201.542 26.094 201.23 26.874C200.918 27.654 200.762 28.596 200.762 29.7C200.762 30.804 200.918 31.746 201.23 32.526C201.542 33.306 201.974 33.9 202.526 34.308C203.09 34.716 203.738 34.92 204.47 34.92ZM214.03 30.15C213.178 30.15 212.488 29.838 211.96 29.214C211.444 28.578 211.186 27.75 211.186 26.73C211.186 25.71 211.444 24.888 211.96 24.264C212.488 23.628 213.178 23.31 214.03 23.31C214.87 23.31 215.554 23.622 216.082 24.246C216.61 24.87 216.874 25.698 216.874 26.73C216.874 27.762 216.61 28.59 216.082 29.214C215.554 29.838 214.87 30.15 214.03 30.15ZM221.662 23.4H222.724L214.12 36H213.058L221.662 23.4ZM214.03 29.34C214.618 29.34 215.086 29.112 215.434 28.656C215.794 28.188 215.974 27.546 215.974 26.73C215.974 25.914 215.794 25.278 215.434 24.822C215.086 24.354 214.618 24.12 214.03 24.12C213.43 24.12 212.956 24.354 212.608 24.822C212.26 25.29 212.086 25.926 212.086 26.73C212.086 27.534 212.26 28.17 212.608 28.638C212.956 29.106 213.43 29.34 214.03 29.34ZM221.752 36.09C220.912 36.09 220.228 35.778 219.7 35.154C219.172 34.518 218.908 33.69 218.908 32.67C218.908 31.65 219.172 30.828 219.7 30.204C220.228 29.568 220.912 29.25 221.752 29.25C222.604 29.25 223.288 29.568 223.804 30.204C224.332 30.828 224.596 31.65 224.596 32.67C224.596 33.69 224.332 34.518 223.804 35.154C223.288 35.778 222.604 36.09 221.752 36.09ZM221.752 35.28C222.352 35.28 222.826 35.046 223.174 34.578C223.522 34.11 223.696 33.474 223.696 32.67C223.696 31.866 223.522 31.23 223.174 30.762C222.826 30.294 222.352 30.06 221.752 30.06C221.164 30.06 220.69 30.294 220.33 30.762C219.982 31.218 219.808 31.854 219.808 32.67C219.808 33.486 219.982 34.128 220.33 34.596C220.69 35.052 221.164 35.28 221.752 35.28Z" fill="#373737"/>
</svg>
