<svg width="225" height="52" viewBox="0 0 225 52" fill="none" xmlns="http://www.w3.org/2000/svg">
<path d="M7.592 10.232H4.904V17H1.04V0.199999H4.904V6.992H7.688L12.104 0.199999H16.208L10.712 8.312L16.376 17H11.96L7.592 10.232ZM23.0426 3.896C25.0426 3.896 26.5786 4.376 27.6506 5.336C28.7226 6.28 29.2586 7.712 29.2586 9.632V17H25.7546V15.392C25.0506 16.592 23.7386 17.192 21.8186 17.192C20.8266 17.192 19.9626 17.024 19.2266 16.688C18.5066 16.352 17.9546 15.888 17.5706 15.296C17.1866 14.704 16.9946 14.032 16.9946 13.28C16.9946 12.08 17.4426 11.136 18.3386 10.448C19.2506 9.76 20.6506 9.416 22.5386 9.416H25.5146C25.5146 8.6 25.2666 7.976 24.7706 7.544C24.2746 7.096 23.5306 6.872 22.5386 6.872C21.8506 6.872 21.1706 6.984 20.4986 7.208C19.8426 7.416 19.2826 7.704 18.8186 8.072L17.4746 5.456C18.1786 4.96 19.0186 4.576 19.9946 4.304C20.9866 4.032 22.0026 3.896 23.0426 3.896ZM22.7546 14.672C23.3946 14.672 23.9626 14.528 24.4586 14.24C24.9546 13.936 25.3066 13.496 25.5146 12.92V11.6H22.9466C21.4106 11.6 20.6426 12.104 20.6426 13.112C20.6426 13.592 20.8266 13.976 21.1946 14.264C21.5786 14.536 22.0986 14.672 22.7546 14.672ZM43.3589 7.16H38.9909V17H35.2709V7.16H30.9029V4.088H43.3589V7.16ZM50.3707 3.896C52.3707 3.896 53.9067 4.376 54.9787 5.336C56.0507 6.28 56.5867 7.712 56.5867 9.632V17H53.0827V15.392C52.3787 16.592 51.0667 17.192 49.1467 17.192C48.1547 17.192 47.2907 17.024 46.5547 16.688C45.8347 16.352 45.2827 15.888 44.8987 15.296C44.5147 14.704 44.3227 14.032 44.3227 13.28C44.3227 12.08 44.7707 11.136 45.6667 10.448C46.5787 9.76 47.9787 9.416 49.8667 9.416H52.8427C52.8427 8.6 52.5947 7.976 52.0987 7.544C51.6027 7.096 50.8587 6.872 49.8667 6.872C49.1787 6.872 48.4987 6.984 47.8267 7.208C47.1707 7.416 46.6107 7.704 46.1467 8.072L44.8027 5.456C45.5067 4.96 46.3467 4.576 47.3227 4.304C48.3147 4.032 49.3307 3.896 50.3707 3.896ZM50.0827 14.672C50.7227 14.672 51.2907 14.528 51.7867 14.24C52.2827 13.936 52.6347 13.496 52.8427 12.92V11.6H50.2747C48.7387 11.6 47.9707 12.104 47.9707 13.112C47.9707 13.592 48.1547 13.976 48.5227 14.264C48.9067 14.536 49.4267 14.672 50.0827 14.672ZM59.8391 4.088H63.5591V9.128H69.1751V4.088H72.9191V17H69.1751V12.176H63.5591V17H59.8391V4.088ZM76.5031 4.088H80.2231V11.768L86.5111 4.088H89.9431V17H86.2231V9.32L79.9591 17H76.5031V4.088ZM106.094 10.592C106.094 10.64 106.07 10.976 106.022 11.6H96.2542C96.4302 12.4 96.8462 13.032 97.5022 13.496C98.1582 13.96 98.9742 14.192 99.9502 14.192C100.622 14.192 101.214 14.096 101.726 13.904C102.254 13.696 102.742 13.376 103.19 12.944L105.182 15.104C103.966 16.496 102.19 17.192 99.8542 17.192C98.3982 17.192 97.1102 16.912 95.9902 16.352C94.8702 15.776 94.0062 14.984 93.3982 13.976C92.7902 12.968 92.4862 11.824 92.4862 10.544C92.4862 9.28 92.7822 8.144 93.3742 7.136C93.9822 6.112 94.8062 5.32 95.8462 4.76C96.9022 4.184 98.0782 3.896 99.3742 3.896C100.638 3.896 101.782 4.168 102.806 4.712C103.83 5.256 104.63 6.04 105.206 7.064C105.798 8.072 106.094 9.248 106.094 10.592ZM99.3982 6.728C98.5502 6.728 97.8382 6.968 97.2622 7.448C96.6862 7.928 96.3342 8.584 96.2062 9.416H102.566C102.438 8.6 102.086 7.952 101.51 7.472C100.934 6.976 100.23 6.728 99.3982 6.728ZM0.8 34.088H4.52V39.128H10.136V34.088H13.88V47H10.136V42.176H4.52V47H0.8V34.088ZM22.4801 33.896C24.4801 33.896 26.0161 34.376 27.0881 35.336C28.1601 36.28 28.6961 37.712 28.6961 39.632V47H25.1921V45.392C24.4881 46.592 23.1761 47.192 21.2561 47.192C20.2641 47.192 19.4001 47.024 18.6641 46.688C17.9441 46.352 17.3921 45.888 17.0081 45.296C16.6241 44.704 16.4321 44.032 16.4321 43.28C16.4321 42.08 16.8801 41.136 17.7761 40.448C18.6881 39.76 20.0881 39.416 21.9761 39.416H24.9521C24.9521 38.6 24.7041 37.976 24.2081 37.544C23.7121 37.096 22.9681 36.872 21.9761 36.872C21.2881 36.872 20.6081 36.984 19.9361 37.208C19.2801 37.416 18.7201 37.704 18.2561 38.072L16.9121 35.456C17.6161 34.96 18.4561 34.576 19.4321 34.304C20.4241 34.032 21.4401 33.896 22.4801 33.896ZM22.1921 44.672C22.8321 44.672 23.4001 44.528 23.8961 44.24C24.3921 43.936 24.7441 43.496 24.9521 42.92V41.6H22.3841C20.8481 41.6 20.0801 42.104 20.0801 43.112C20.0801 43.592 20.2641 43.976 20.6321 44.264C21.0161 44.536 21.5361 44.672 22.1921 44.672ZM44.4333 42.104H42.4893V47H38.7453V34.088H42.4893V39.104H44.5053L48.0093 34.088H51.9933L47.4813 40.28L52.3053 47H47.8893L44.4333 42.104ZM64.0078 40.256C65.5278 40.768 66.2878 41.792 66.2878 43.328C66.2878 44.496 65.8478 45.4 64.9678 46.04C64.0878 46.68 62.7758 47 61.0318 47H54.1438V34.088H60.7438C62.3598 34.088 63.6238 34.384 64.5358 34.976C65.4478 35.552 65.9037 36.368 65.9037 37.424C65.9037 38.064 65.7358 38.632 65.3998 39.128C65.0798 39.608 64.6158 39.984 64.0078 40.256ZM57.5758 39.392H60.4078C61.7198 39.392 62.3758 38.928 62.3758 38C62.3758 37.088 61.7198 36.632 60.4078 36.632H57.5758V39.392ZM60.7198 44.456C62.0958 44.456 62.7838 43.984 62.7838 43.04C62.7838 42.544 62.6238 42.184 62.3038 41.96C61.9838 41.72 61.4798 41.6 60.7918 41.6H57.5758V44.456H60.7198ZM74.0894 33.896C76.0894 33.896 77.6254 34.376 78.6974 35.336C79.7694 36.28 80.3054 37.712 80.3054 39.632V47H76.8014V45.392C76.0974 46.592 74.7854 47.192 72.8654 47.192C71.8734 47.192 71.0094 47.024 70.2734 46.688C69.5534 46.352 69.0014 45.888 68.6174 45.296C68.2334 44.704 68.0414 44.032 68.0414 43.28C68.0414 42.08 68.4894 41.136 69.3854 40.448C70.2974 39.76 71.6974 39.416 73.5854 39.416H76.5614C76.5614 38.6 76.3134 37.976 75.8174 37.544C75.3214 37.096 74.5774 36.872 73.5854 36.872C72.8974 36.872 72.2174 36.984 71.5454 37.208C70.8894 37.416 70.3294 37.704 69.8654 38.072L68.5214 35.456C69.2254 34.96 70.0654 34.576 71.0414 34.304C72.0334 34.032 73.0494 33.896 74.0894 33.896ZM73.8014 44.672C74.4414 44.672 75.0094 44.528 75.5054 44.24C76.0014 43.936 76.3534 43.496 76.5614 42.92V41.6H73.9934C72.4574 41.6 71.6894 42.104 71.6894 43.112C71.6894 43.592 71.8734 43.976 72.2414 44.264C72.6254 44.536 73.1454 44.672 73.8014 44.672ZM98.0298 43.928V49.784H94.5498V47H85.4778V49.784H81.9978V43.928H82.5258C83.3258 43.912 83.8778 43.44 84.1818 42.512C84.4858 41.584 84.6778 40.264 84.7578 38.552L84.9258 34.088H96.1818V43.928H98.0298ZM88.1418 38.816C88.0938 40.128 87.9898 41.2 87.8298 42.032C87.6858 42.864 87.4058 43.496 86.9898 43.928H92.4378V37.16H88.2138L88.1418 38.816ZM107.994 33.896C109.194 33.896 110.282 34.176 111.258 34.736C112.25 35.28 113.026 36.056 113.586 37.064C114.146 38.056 114.426 39.216 114.426 40.544C114.426 41.872 114.146 43.04 113.586 44.048C113.026 45.04 112.25 45.816 111.258 46.376C110.282 46.92 109.194 47.192 107.994 47.192C106.346 47.192 105.05 46.672 104.106 45.632V51.656H100.362V34.088H103.938V35.576C104.866 34.456 106.218 33.896 107.994 33.896ZM107.346 44.12C108.306 44.12 109.09 43.8 109.698 43.16C110.322 42.504 110.634 41.632 110.634 40.544C110.634 39.456 110.322 38.592 109.698 37.952C109.09 37.296 108.306 36.968 107.346 36.968C106.386 36.968 105.594 37.296 104.97 37.952C104.362 38.592 104.058 39.456 104.058 40.544C104.058 41.632 104.362 42.504 104.97 43.16C105.594 43.8 106.386 44.12 107.346 44.12ZM123.098 47.192C121.738 47.192 120.514 46.912 119.426 46.352C118.354 45.776 117.514 44.984 116.906 43.976C116.298 42.968 115.994 41.824 115.994 40.544C115.994 39.264 116.298 38.12 116.906 37.112C117.514 36.104 118.354 35.32 119.426 34.76C120.514 34.184 121.738 33.896 123.098 33.896C124.458 33.896 125.674 34.184 126.746 34.76C127.818 35.32 128.658 36.104 129.266 37.112C129.874 38.12 130.178 39.264 130.178 40.544C130.178 41.824 129.874 42.968 129.266 43.976C128.658 44.984 127.818 45.776 126.746 46.352C125.674 46.912 124.458 47.192 123.098 47.192ZM123.098 44.12C124.058 44.12 124.842 43.8 125.45 43.16C126.074 42.504 126.386 41.632 126.386 40.544C126.386 39.456 126.074 38.592 125.45 37.952C124.842 37.296 124.058 36.968 123.098 36.968C122.138 36.968 121.346 37.296 120.722 37.952C120.098 38.592 119.786 39.456 119.786 40.544C119.786 41.632 120.098 42.504 120.722 43.16C121.346 43.8 122.138 44.12 123.098 44.12ZM147.297 43.928V49.832H143.817V47H132.753V34.088H136.473V43.928H141.681V34.088H145.425V43.928H147.297ZM149.652 34.088H153.372V41.768L159.66 34.088H163.092V47H159.372V39.32L153.108 47H149.652V34.088ZM172.379 42.104H170.435V47H166.691V34.088H170.435V39.104H172.451L175.955 34.088H179.939L175.427 40.28L180.251 47H175.835L172.379 42.104ZM194.473 34.088V47H190.729V37.16H186.649L186.529 39.44C186.465 41.136 186.305 42.544 186.049 43.664C185.793 44.784 185.377 45.664 184.801 46.304C184.225 46.944 183.425 47.264 182.401 47.264C181.857 47.264 181.209 47.168 180.457 46.976L180.649 43.904C180.905 43.936 181.089 43.952 181.201 43.952C181.761 43.952 182.177 43.752 182.449 43.352C182.737 42.936 182.929 42.416 183.025 41.792C183.121 41.152 183.193 40.312 183.241 39.272L183.433 34.088H194.473ZM203.089 33.896C205.089 33.896 206.625 34.376 207.697 35.336C208.769 36.28 209.305 37.712 209.305 39.632V47H205.801V45.392C205.097 46.592 203.785 47.192 201.865 47.192C200.873 47.192 200.009 47.024 199.273 46.688C198.553 46.352 198.001 45.888 197.617 45.296C197.233 44.704 197.041 44.032 197.041 43.28C197.041 42.08 197.489 41.136 198.385 40.448C199.297 39.76 200.697 39.416 202.585 39.416H205.561C205.561 38.6 205.313 37.976 204.817 37.544C204.321 37.096 203.577 36.872 202.585 36.872C201.897 36.872 201.217 36.984 200.545 37.208C199.889 37.416 199.329 37.704 198.865 38.072L197.521 35.456C198.225 34.96 199.065 34.576 200.041 34.304C201.033 34.032 202.049 33.896 203.089 33.896ZM202.801 44.672C203.441 44.672 204.009 44.528 204.505 44.24C205.001 43.936 205.353 43.496 205.561 42.92V41.6H202.993C201.457 41.6 200.689 42.104 200.689 43.112C200.689 43.592 200.873 43.976 201.241 44.264C201.625 44.536 202.145 44.672 202.801 44.672ZM220.67 47L217.838 43.04L214.91 47H210.83L215.798 40.496L210.998 34.088H215.198L217.934 37.856L220.742 34.088H224.726L219.926 40.4L224.918 47H220.67Z" fill="white"/>
</svg>
