<svg width="275" height="61" viewBox="0 0 275 61" fill="none" xmlns="http://www.w3.org/2000/svg">
<path d="M5.256 9.788H3.096V14H1.818V4.532H3.096V8.69H5.274L8.604 4.532H9.99L6.264 9.122L10.26 14H8.748L5.256 9.788ZM20.017 4.532V14H18.739V5.666H14.203L14.077 8.006C13.981 9.974 13.753 11.486 13.393 12.542C13.033 13.598 12.391 14.126 11.467 14.126C11.215 14.126 10.909 14.078 10.549 13.982L10.639 12.884C10.855 12.932 11.005 12.956 11.089 12.956C11.581 12.956 11.953 12.728 12.205 12.272C12.457 11.816 12.625 11.252 12.709 10.58C12.793 9.908 12.865 9.02 12.925 7.916L13.087 4.532H20.017ZM23.65 4.532H24.928V12.056L31.246 4.532H32.38V14H31.102V6.476L24.802 14H23.65V4.532ZM44.3226 9.662H36.4026C36.4746 10.646 36.8526 11.444 37.5366 12.056C38.2206 12.656 39.0846 12.956 40.1286 12.956C40.7166 12.956 41.2566 12.854 41.7486 12.65C42.2406 12.434 42.6666 12.122 43.0266 11.714L43.7466 12.542C43.3266 13.046 42.7986 13.43 42.1626 13.694C41.5386 13.958 40.8486 14.09 40.0926 14.09C39.1206 14.09 38.2566 13.886 37.5006 13.478C36.7566 13.058 36.1746 12.482 35.7546 11.75C35.3346 11.018 35.1246 10.19 35.1246 9.266C35.1246 8.342 35.3226 7.514 35.7186 6.782C36.1266 6.05 36.6786 5.48 37.3746 5.072C38.0826 4.664 38.8746 4.46 39.7506 4.46C40.6266 4.46 41.4126 4.664 42.1086 5.072C42.8046 5.48 43.3506 6.05 43.7466 6.782C44.1426 7.502 44.3406 8.33 44.3406 9.266L44.3226 9.662ZM39.7506 5.558C38.8386 5.558 38.0706 5.852 37.4466 6.44C36.8346 7.016 36.4866 7.772 36.4026 8.708H43.1166C43.0326 7.772 42.6786 7.016 42.0546 6.44C41.4426 5.852 40.6746 5.558 39.7506 5.558ZM47.1696 4.532H48.4476V8.726H54.4056V4.532H55.6836V14H54.4056V9.824H48.4476V14H47.1696V4.532ZM65.976 5.666H62.394V14H61.116V5.666H57.534V4.532H65.976V5.666ZM71.0819 4.46C72.3179 4.46 73.2659 4.772 73.9259 5.396C74.5859 6.008 74.9159 6.92 74.9159 8.132V14H73.6919V12.524C73.4039 13.016 72.9779 13.4 72.4139 13.676C71.8619 13.952 71.2019 14.09 70.4339 14.09C69.3779 14.09 68.5379 13.838 67.9139 13.334C67.2899 12.83 66.9779 12.164 66.9779 11.336C66.9779 10.532 67.2659 9.884 67.8419 9.392C68.4299 8.9 69.3599 8.654 70.6319 8.654H73.6379V8.078C73.6379 7.262 73.4099 6.644 72.9539 6.224C72.4979 5.792 71.8319 5.576 70.9559 5.576C70.3559 5.576 69.7799 5.678 69.2279 5.882C68.6759 6.074 68.2019 6.344 67.8059 6.692L67.2299 5.738C67.7099 5.33 68.2859 5.018 68.9579 4.802C69.6299 4.574 70.3379 4.46 71.0819 4.46ZM70.6319 13.082C71.3519 13.082 71.9699 12.92 72.4859 12.596C73.0019 12.26 73.3859 11.78 73.6379 11.156V9.608H70.6679C69.0479 9.608 68.2379 10.172 68.2379 11.3C68.2379 11.852 68.4479 12.29 68.8679 12.614C69.2879 12.926 69.8759 13.082 70.6319 13.082ZM88.902 4.532V14H87.732V6.512L83.898 12.848H83.322L79.488 6.494V14H78.318V4.532H79.614L83.628 11.354L87.714 4.532H88.902ZM106.394 12.848V14H97.4836V1.4H106.124V2.552H98.8156V7.034H105.332V8.168H98.8156V12.848H106.394ZM115.021 14L112.015 10.04L108.991 14H107.551L111.295 9.14L107.731 4.532H109.171L112.015 8.24L114.859 4.532H116.263L112.699 9.14L116.479 14H115.021ZM117.5 8.564H122.216V9.68H117.5V8.564ZM129.251 8.078L126.677 10.688V14H125.345V1.4H126.677V9.014L134.075 1.4H135.605L130.151 7.106L135.983 14H134.399L129.251 8.078ZM146.07 4.532V14H144.846V12.272C144.51 12.848 144.048 13.298 143.46 13.622C142.872 13.934 142.2 14.09 141.444 14.09C140.208 14.09 139.23 13.748 138.51 13.064C137.802 12.368 137.448 11.354 137.448 10.022V4.532H138.726V9.896C138.726 10.892 138.972 11.648 139.464 12.164C139.956 12.68 140.658 12.938 141.57 12.938C142.566 12.938 143.352 12.638 143.928 12.038C144.504 11.426 144.792 10.58 144.792 9.5V4.532H146.07ZM154.527 4.46C155.415 4.46 156.219 4.664 156.939 5.072C157.659 5.468 158.223 6.032 158.631 6.764C159.039 7.496 159.243 8.33 159.243 9.266C159.243 10.202 159.039 11.036 158.631 11.768C158.223 12.5 157.659 13.07 156.939 13.478C156.219 13.886 155.415 14.09 154.527 14.09C153.735 14.09 153.021 13.922 152.385 13.586C151.761 13.25 151.257 12.764 150.873 12.128V14H149.649V0.643999H150.927V6.332C151.323 5.72 151.827 5.258 152.439 4.946C153.063 4.622 153.759 4.46 154.527 4.46ZM154.437 12.956C155.097 12.956 155.697 12.806 156.237 12.506C156.777 12.194 157.197 11.756 157.497 11.192C157.809 10.628 157.965 9.986 157.965 9.266C157.965 8.546 157.809 7.904 157.497 7.34C157.197 6.776 156.777 6.344 156.237 6.044C155.697 5.732 155.097 5.576 154.437 5.576C153.765 5.576 153.159 5.732 152.619 6.044C152.091 6.344 151.671 6.776 151.359 7.34C151.059 7.904 150.909 8.546 150.909 9.266C150.909 9.986 151.059 10.628 151.359 11.192C151.671 11.756 152.091 12.194 152.619 12.506C153.159 12.806 153.765 12.956 154.437 12.956ZM165.108 4.46C166.344 4.46 167.292 4.772 167.952 5.396C168.612 6.008 168.942 6.92 168.942 8.132V14H167.718V12.524C167.43 13.016 167.004 13.4 166.44 13.676C165.888 13.952 165.228 14.09 164.46 14.09C163.404 14.09 162.564 13.838 161.94 13.334C161.316 12.83 161.004 12.164 161.004 11.336C161.004 10.532 161.292 9.884 161.868 9.392C162.456 8.9 163.386 8.654 164.658 8.654H167.664V8.078C167.664 7.262 167.436 6.644 166.98 6.224C166.524 5.792 165.858 5.576 164.982 5.576C164.382 5.576 163.806 5.678 163.254 5.882C162.702 6.074 162.228 6.344 161.832 6.692L161.256 5.738C161.736 5.33 162.312 5.018 162.984 4.802C163.656 4.574 164.364 4.46 165.108 4.46ZM164.658 13.082C165.378 13.082 165.996 12.92 166.512 12.596C167.028 12.26 167.412 11.78 167.664 11.156V9.608H164.694C163.074 9.608 162.264 10.172 162.264 11.3C162.264 11.852 162.474 12.29 162.894 12.614C163.314 12.926 163.902 13.082 164.658 13.082ZM177.237 4.46C178.425 4.46 179.367 4.808 180.063 5.504C180.771 6.188 181.125 7.19 181.125 8.51V14H179.847V8.636C179.847 7.652 179.601 6.902 179.109 6.386C178.617 5.87 177.915 5.612 177.003 5.612C175.983 5.612 175.173 5.918 174.573 6.53C173.985 7.13 173.691 7.964 173.691 9.032V14H172.413V4.532H173.637V6.278C173.985 5.702 174.465 5.258 175.077 4.946C175.701 4.622 176.421 4.46 177.237 4.46ZM189.341 4.532H190.619V8.726H196.577V4.532H197.855V14H196.577V9.824H190.619V14H189.341V4.532ZM204.746 4.46C205.982 4.46 206.93 4.772 207.59 5.396C208.25 6.008 208.58 6.92 208.58 8.132V14H207.356V12.524C207.068 13.016 206.642 13.4 206.078 13.676C205.526 13.952 204.866 14.09 204.098 14.09C203.042 14.09 202.202 13.838 201.578 13.334C200.954 12.83 200.642 12.164 200.642 11.336C200.642 10.532 200.93 9.884 201.506 9.392C202.094 8.9 203.024 8.654 204.296 8.654H207.302V8.078C207.302 7.262 207.074 6.644 206.618 6.224C206.162 5.792 205.496 5.576 204.62 5.576C204.02 5.576 203.444 5.678 202.892 5.882C202.34 6.074 201.866 6.344 201.47 6.692L200.894 5.738C201.374 5.33 201.95 5.018 202.622 4.802C203.294 4.574 204.002 4.46 204.746 4.46ZM204.296 13.082C205.016 13.082 205.634 12.92 206.15 12.596C206.666 12.26 207.05 11.78 207.302 11.156V9.608H204.332C202.712 9.608 201.902 10.172 201.902 11.3C201.902 11.852 202.112 12.29 202.532 12.614C202.952 12.926 203.54 13.082 204.296 13.082ZM224.739 4.532L220.005 15.134C219.621 16.022 219.177 16.652 218.673 17.024C218.169 17.396 217.563 17.582 216.855 17.582C216.399 17.582 215.973 17.51 215.577 17.366C215.181 17.222 214.839 17.006 214.551 16.718L215.145 15.764C215.625 16.244 216.201 16.484 216.873 16.484C217.305 16.484 217.671 16.364 217.971 16.124C218.283 15.884 218.571 15.476 218.835 14.9L219.249 13.982L215.019 4.532H216.351L219.915 12.578L223.479 4.532H224.739ZM230.426 14.09C229.49 14.09 228.65 13.886 227.906 13.478C227.174 13.07 226.598 12.5 226.178 11.768C225.758 11.024 225.548 10.19 225.548 9.266C225.548 8.342 225.758 7.514 226.178 6.782C226.598 6.05 227.174 5.48 227.906 5.072C228.65 4.664 229.49 4.46 230.426 4.46C231.242 4.46 231.968 4.622 232.604 4.946C233.252 5.258 233.762 5.72 234.134 6.332L233.18 6.98C232.868 6.512 232.472 6.164 231.992 5.936C231.512 5.696 230.99 5.576 230.426 5.576C229.742 5.576 229.124 5.732 228.572 6.044C228.032 6.344 227.606 6.776 227.294 7.34C226.994 7.904 226.844 8.546 226.844 9.266C226.844 9.998 226.994 10.646 227.294 11.21C227.606 11.762 228.032 12.194 228.572 12.506C229.124 12.806 229.742 12.956 230.426 12.956C230.99 12.956 231.512 12.842 231.992 12.614C232.472 12.386 232.868 12.038 233.18 11.57L234.134 12.218C233.762 12.83 233.252 13.298 232.604 13.622C231.956 13.934 231.23 14.09 230.426 14.09ZM244.033 4.532V14H242.755V5.666H238.219L238.093 8.006C237.997 9.974 237.769 11.486 237.409 12.542C237.049 13.598 236.407 14.126 235.483 14.126C235.231 14.126 234.925 14.078 234.565 13.982L234.655 12.884C234.871 12.932 235.021 12.956 235.105 12.956C235.597 12.956 235.969 12.728 236.221 12.272C236.473 11.816 236.641 11.252 236.725 10.58C236.809 9.908 236.881 9.02 236.941 7.916L237.103 4.532H244.033ZM255.712 4.532L250.978 15.134C250.594 16.022 250.15 16.652 249.646 17.024C249.142 17.396 248.536 17.582 247.828 17.582C247.372 17.582 246.946 17.51 246.55 17.366C246.154 17.222 245.812 17.006 245.524 16.718L246.118 15.764C246.598 16.244 247.174 16.484 247.846 16.484C248.278 16.484 248.644 16.364 248.944 16.124C249.256 15.884 249.544 15.476 249.808 14.9L250.222 13.982L245.992 4.532H247.324L250.888 12.578L254.452 4.532H255.712ZM264.399 5.666H258.981V14H257.703V4.532H264.399V5.666ZM266.246 4.532H267.524V12.056L273.842 4.532H274.976V14H273.698V6.476L267.398 14H266.246V4.532ZM7.596 30.412C8.424 30.616 9.072 30.988 9.54 31.528C10.02 32.068 10.26 32.716 10.26 33.472C10.26 34.204 10.032 34.846 9.576 35.398C9.12 35.95 8.514 36.376 7.758 36.676C7.002 36.964 6.18 37.108 5.292 37.108C4.452 37.108 3.624 36.976 2.808 36.712C2.004 36.436 1.278 36.028 0.63 35.488L1.116 34.534C1.668 35.002 2.298 35.362 3.006 35.614C3.714 35.854 4.428 35.974 5.148 35.974C5.832 35.974 6.462 35.866 7.038 35.65C7.614 35.434 8.07 35.128 8.406 34.732C8.754 34.324 8.928 33.844 8.928 33.292C8.928 32.56 8.64 31.996 8.064 31.6C7.488 31.204 6.678 31.006 5.634 31.006H2.934V29.926H5.562C6.45 29.926 7.14 29.74 7.632 29.368C8.136 28.984 8.388 28.456 8.388 27.784C8.388 27.04 8.07 26.458 7.434 26.038C6.798 25.606 6 25.39 5.04 25.39C4.44 25.39 3.834 25.48 3.222 25.66C2.61 25.828 2.028 26.086 1.476 26.434L1.026 25.336C2.274 24.592 3.624 24.22 5.076 24.22C5.928 24.22 6.708 24.358 7.416 24.634C8.124 24.91 8.682 25.306 9.09 25.822C9.51 26.338 9.72 26.944 9.72 27.64C9.72 28.312 9.534 28.894 9.162 29.386C8.79 29.866 8.268 30.208 7.596 30.412ZM16.5194 27.46C17.7554 27.46 18.7034 27.772 19.3634 28.396C20.0234 29.008 20.3534 29.92 20.3534 31.132V37H19.1294V35.524C18.8414 36.016 18.4154 36.4 17.8514 36.676C17.2994 36.952 16.6394 37.09 15.8714 37.09C14.8154 37.09 13.9754 36.838 13.3514 36.334C12.7274 35.83 12.4154 35.164 12.4154 34.336C12.4154 33.532 12.7034 32.884 13.2794 32.392C13.8674 31.9 14.7974 31.654 16.0694 31.654H19.0754V31.078C19.0754 30.262 18.8474 29.644 18.3914 29.224C17.9354 28.792 17.2694 28.576 16.3934 28.576C15.7934 28.576 15.2174 28.678 14.6654 28.882C14.1134 29.074 13.6394 29.344 13.2434 29.692L12.6674 28.738C13.1474 28.33 13.7234 28.018 14.3954 27.802C15.0674 27.574 15.7754 27.46 16.5194 27.46ZM16.0694 36.082C16.7894 36.082 17.4074 35.92 17.9234 35.596C18.4394 35.26 18.8234 34.78 19.0754 34.156V32.608H16.1054C14.4854 32.608 13.6754 33.172 13.6754 34.3C13.6754 34.852 13.8854 35.29 14.3054 35.614C14.7254 35.926 15.3134 36.082 16.0694 36.082ZM30.4515 28.666H25.0335V37H23.7555V27.532H30.4515V28.666ZM35.765 37.09C34.853 37.09 34.031 36.886 33.299 36.478C32.567 36.058 31.991 35.482 31.571 34.75C31.151 34.018 30.941 33.19 30.941 32.266C30.941 31.342 31.151 30.514 31.571 29.782C31.991 29.05 32.567 28.48 33.299 28.072C34.031 27.664 34.853 27.46 35.765 27.46C36.677 27.46 37.499 27.664 38.231 28.072C38.963 28.48 39.533 29.05 39.941 29.782C40.361 30.514 40.571 31.342 40.571 32.266C40.571 33.19 40.361 34.018 39.941 34.75C39.533 35.482 38.963 36.058 38.231 36.478C37.499 36.886 36.677 37.09 35.765 37.09ZM35.765 35.956C36.437 35.956 37.037 35.806 37.565 35.506C38.105 35.194 38.525 34.756 38.825 34.192C39.125 33.628 39.275 32.986 39.275 32.266C39.275 31.546 39.125 30.904 38.825 30.34C38.525 29.776 38.105 29.344 37.565 29.044C37.037 28.732 36.437 28.576 35.765 28.576C35.093 28.576 34.487 28.732 33.947 29.044C33.419 29.344 32.999 29.776 32.687 30.34C32.387 30.904 32.237 31.546 32.237 32.266C32.237 32.986 32.387 33.628 32.687 34.192C32.999 34.756 33.419 35.194 33.947 35.506C34.487 35.806 35.093 35.956 35.765 35.956ZM48.1804 27.46C49.0684 27.46 49.8724 27.664 50.5924 28.072C51.3124 28.468 51.8764 29.032 52.2844 29.764C52.6924 30.496 52.8964 31.33 52.8964 32.266C52.8964 33.214 52.6924 34.054 52.2844 34.786C51.8764 35.518 51.3124 36.088 50.5924 36.496C49.8844 36.892 49.0804 37.09 48.1804 37.09C47.4124 37.09 46.7164 36.934 46.0924 36.622C45.4804 36.298 44.9764 35.83 44.5804 35.218V40.492H43.3024V27.532H44.5264V29.404C44.9104 28.78 45.4144 28.3 46.0384 27.964C46.6744 27.628 47.3884 27.46 48.1804 27.46ZM48.0904 35.956C48.7504 35.956 49.3504 35.806 49.8904 35.506C50.4304 35.194 50.8504 34.756 51.1504 34.192C51.4624 33.628 51.6184 32.986 51.6184 32.266C51.6184 31.546 51.4624 30.91 51.1504 30.358C50.8504 29.794 50.4304 29.356 49.8904 29.044C49.3504 28.732 48.7504 28.576 48.0904 28.576C47.4184 28.576 46.8124 28.732 46.2724 29.044C45.7444 29.356 45.3244 29.794 45.0124 30.358C44.7124 30.91 44.5624 31.546 44.5624 32.266C44.5624 32.986 44.7124 33.628 45.0124 34.192C45.3244 34.756 45.7444 35.194 46.2724 35.506C46.8124 35.806 47.4184 35.956 48.0904 35.956ZM59.5482 37.09C58.6362 37.09 57.8142 36.886 57.0822 36.478C56.3502 36.058 55.7742 35.482 55.3542 34.75C54.9342 34.018 54.7242 33.19 54.7242 32.266C54.7242 31.342 54.9342 30.514 55.3542 29.782C55.7742 29.05 56.3502 28.48 57.0822 28.072C57.8142 27.664 58.6362 27.46 59.5482 27.46C60.4602 27.46 61.2822 27.664 62.0142 28.072C62.7462 28.48 63.3162 29.05 63.7242 29.782C64.1442 30.514 64.3542 31.342 64.3542 32.266C64.3542 33.19 64.1442 34.018 63.7242 34.75C63.3162 35.482 62.7462 36.058 62.0142 36.478C61.2822 36.886 60.4602 37.09 59.5482 37.09ZM59.5482 35.956C60.2202 35.956 60.8202 35.806 61.3482 35.506C61.8882 35.194 62.3082 34.756 62.6082 34.192C62.9082 33.628 63.0582 32.986 63.0582 32.266C63.0582 31.546 62.9082 30.904 62.6082 30.34C62.3082 29.776 61.8882 29.344 61.3482 29.044C60.8202 28.732 60.2202 28.576 59.5482 28.576C58.8762 28.576 58.2702 28.732 57.7302 29.044C57.2022 29.344 56.7822 29.776 56.4702 30.34C56.1702 30.904 56.0202 31.546 56.0202 32.266C56.0202 32.986 56.1702 33.628 56.4702 34.192C56.7822 34.756 57.2022 35.194 57.7302 35.506C58.2702 35.806 58.8762 35.956 59.5482 35.956ZM76.2668 35.884V39.286H75.0608V37H66.5828V39.286H65.3768V35.884H65.9168C66.5528 35.848 66.9848 35.38 67.2128 34.48C67.4408 33.58 67.5968 32.32 67.6808 30.7L67.8068 27.532H74.7908V35.884H76.2668ZM68.8508 30.772C68.7908 32.116 68.6768 33.226 68.5088 34.102C68.3408 34.966 68.0408 35.56 67.6088 35.884H73.5128V28.666H68.9588L68.8508 30.772ZM78.7575 27.532H80.0355V31.726H85.9935V27.532H87.2715V37H85.9935V32.824H80.0355V37H78.7575V27.532ZM94.8099 37.09C93.8979 37.09 93.0759 36.886 92.3439 36.478C91.6119 36.058 91.0359 35.482 90.6159 34.75C90.1959 34.018 89.9859 33.19 89.9859 32.266C89.9859 31.342 90.1959 30.514 90.6159 29.782C91.0359 29.05 91.6119 28.48 92.3439 28.072C93.0759 27.664 93.8979 27.46 94.8099 27.46C95.7219 27.46 96.5439 27.664 97.2759 28.072C98.0079 28.48 98.5779 29.05 98.9859 29.782C99.4059 30.514 99.6159 31.342 99.6159 32.266C99.6159 33.19 99.4059 34.018 98.9859 34.75C98.5779 35.482 98.0079 36.058 97.2759 36.478C96.5439 36.886 95.7219 37.09 94.8099 37.09ZM94.8099 35.956C95.4819 35.956 96.0819 35.806 96.6099 35.506C97.1499 35.194 97.5699 34.756 97.8699 34.192C98.1699 33.628 98.3199 32.986 98.3199 32.266C98.3199 31.546 98.1699 30.904 97.8699 30.34C97.5699 29.776 97.1499 29.344 96.6099 29.044C96.0819 28.732 95.4819 28.576 94.8099 28.576C94.1379 28.576 93.5319 28.732 92.9919 29.044C92.4639 29.344 92.0439 29.776 91.7319 30.34C91.4319 30.904 91.2819 31.546 91.2819 32.266C91.2819 32.986 91.4319 33.628 91.7319 34.192C92.0439 34.756 92.4639 35.194 92.9919 35.506C93.5319 35.806 94.1379 35.956 94.8099 35.956ZM109.043 28.666H103.625V37H102.347V27.532H109.043V28.666ZM114.357 37.09C113.445 37.09 112.623 36.886 111.891 36.478C111.159 36.058 110.583 35.482 110.163 34.75C109.743 34.018 109.533 33.19 109.533 32.266C109.533 31.342 109.743 30.514 110.163 29.782C110.583 29.05 111.159 28.48 111.891 28.072C112.623 27.664 113.445 27.46 114.357 27.46C115.269 27.46 116.091 27.664 116.823 28.072C117.555 28.48 118.125 29.05 118.533 29.782C118.953 30.514 119.163 31.342 119.163 32.266C119.163 33.19 118.953 34.018 118.533 34.75C118.125 35.482 117.555 36.058 116.823 36.478C116.091 36.886 115.269 37.09 114.357 37.09ZM114.357 35.956C115.029 35.956 115.629 35.806 116.157 35.506C116.697 35.194 117.117 34.756 117.417 34.192C117.717 33.628 117.867 32.986 117.867 32.266C117.867 31.546 117.717 30.904 117.417 30.34C117.117 29.776 116.697 29.344 116.157 29.044C115.629 28.732 115.029 28.576 114.357 28.576C113.685 28.576 113.079 28.732 112.539 29.044C112.011 29.344 111.591 29.776 111.279 30.34C110.979 30.904 110.829 31.546 110.829 32.266C110.829 32.986 110.979 33.628 111.279 34.192C111.591 34.756 112.011 35.194 112.539 35.506C113.079 35.806 113.685 35.956 114.357 35.956ZM130.043 32.788H127.883V37H126.605V27.532H127.883V31.69H130.061L133.391 27.532H134.777L131.051 32.122L135.047 37H133.535L130.043 32.788ZM144.804 27.532V37H143.526V28.666H138.99L138.864 31.006C138.768 32.974 138.54 34.486 138.18 35.542C137.82 36.598 137.178 37.126 136.254 37.126C136.002 37.126 135.696 37.078 135.336 36.982L135.426 35.884C135.642 35.932 135.792 35.956 135.876 35.956C136.368 35.956 136.74 35.728 136.992 35.272C137.244 34.816 137.412 34.252 137.496 33.58C137.58 32.908 137.652 32.02 137.712 30.916L137.874 27.532H144.804ZM156.483 27.532L151.749 38.134C151.365 39.022 150.921 39.652 150.417 40.024C149.913 40.396 149.307 40.582 148.599 40.582C148.143 40.582 147.717 40.51 147.321 40.366C146.925 40.222 146.583 40.006 146.295 39.718L146.889 38.764C147.369 39.244 147.945 39.484 148.617 39.484C149.049 39.484 149.415 39.364 149.715 39.124C150.027 38.884 150.315 38.476 150.579 37.9L150.993 36.982L146.763 27.532H148.095L151.659 35.578L155.223 27.532H156.483ZM162.924 27.766C163.8 27.766 164.58 27.964 165.264 28.36C165.96 28.744 166.5 29.29 166.884 29.998C167.268 30.694 167.46 31.492 167.46 32.392C167.46 33.316 167.256 34.138 166.848 34.858C166.452 35.566 165.894 36.118 165.174 36.514C164.454 36.91 163.626 37.108 162.69 37.108C161.118 37.108 159.9 36.556 159.036 35.452C158.172 34.348 157.74 32.824 157.74 30.88C157.74 28.852 158.124 27.298 158.892 26.218C159.672 25.138 160.884 24.406 162.528 24.022L166.776 23.05L166.992 24.22L162.996 25.138C161.64 25.438 160.644 25.972 160.008 26.74C159.372 27.496 159.024 28.618 158.964 30.106C159.348 29.374 159.882 28.804 160.566 28.396C161.25 27.976 162.036 27.766 162.924 27.766ZM162.726 36.046C163.386 36.046 163.974 35.896 164.49 35.596C165.018 35.284 165.426 34.852 165.714 34.3C166.014 33.748 166.164 33.124 166.164 32.428C166.164 31.732 166.02 31.12 165.732 30.592C165.444 30.064 165.036 29.656 164.508 29.368C163.992 29.068 163.398 28.918 162.726 28.918C162.054 28.918 161.454 29.068 160.926 29.368C160.41 29.656 160.002 30.064 159.702 30.592C159.414 31.12 159.27 31.732 159.27 32.428C159.27 33.124 159.414 33.748 159.702 34.3C160.002 34.852 160.416 35.284 160.944 35.596C161.472 35.896 162.066 36.046 162.726 36.046ZM173.404 27.46C174.64 27.46 175.588 27.772 176.248 28.396C176.908 29.008 177.238 29.92 177.238 31.132V37H176.014V35.524C175.726 36.016 175.3 36.4 174.736 36.676C174.184 36.952 173.524 37.09 172.756 37.09C171.7 37.09 170.86 36.838 170.236 36.334C169.612 35.83 169.3 35.164 169.3 34.336C169.3 33.532 169.588 32.884 170.164 32.392C170.752 31.9 171.682 31.654 172.954 31.654H175.96V31.078C175.96 30.262 175.732 29.644 175.276 29.224C174.82 28.792 174.154 28.576 173.278 28.576C172.678 28.576 172.102 28.678 171.55 28.882C170.998 29.074 170.524 29.344 170.128 29.692L169.552 28.738C170.032 28.33 170.608 28.018 171.28 27.802C171.952 27.574 172.66 27.46 173.404 27.46ZM172.954 36.082C173.674 36.082 174.292 35.92 174.808 35.596C175.324 35.26 175.708 34.78 175.96 34.156V32.608H172.99C171.37 32.608 170.56 33.172 170.56 34.3C170.56 34.852 170.77 35.29 171.19 35.614C171.61 35.926 172.198 36.082 172.954 36.082ZM194.585 24.4V37H193.271V33.184H189.509C189.341 33.184 189.101 33.172 188.789 33.148L186.143 37H184.721L187.583 32.914C186.659 32.638 185.951 32.152 185.459 31.456C184.967 30.748 184.721 29.884 184.721 28.864C184.721 27.448 185.165 26.35 186.053 25.57C186.953 24.79 188.165 24.4 189.689 24.4H194.585ZM186.053 28.828C186.053 29.86 186.353 30.658 186.953 31.222C187.565 31.774 188.453 32.05 189.617 32.05H193.271V25.552H189.743C188.567 25.552 187.655 25.834 187.007 26.398C186.371 26.95 186.053 27.76 186.053 28.828ZM205.231 28.666H199.813V37H198.535V27.532H205.231V28.666ZM210.544 37.09C209.632 37.09 208.81 36.886 208.078 36.478C207.346 36.058 206.77 35.482 206.35 34.75C205.93 34.018 205.72 33.19 205.72 32.266C205.72 31.342 205.93 30.514 206.35 29.782C206.77 29.05 207.346 28.48 208.078 28.072C208.81 27.664 209.632 27.46 210.544 27.46C211.456 27.46 212.278 27.664 213.01 28.072C213.742 28.48 214.312 29.05 214.72 29.782C215.14 30.514 215.35 31.342 215.35 32.266C215.35 33.19 215.14 34.018 214.72 34.75C214.312 35.482 213.742 36.058 213.01 36.478C212.278 36.886 211.456 37.09 210.544 37.09ZM210.544 35.956C211.216 35.956 211.816 35.806 212.344 35.506C212.884 35.194 213.304 34.756 213.604 34.192C213.904 33.628 214.054 32.986 214.054 32.266C214.054 31.546 213.904 30.904 213.604 30.34C213.304 29.776 212.884 29.344 212.344 29.044C211.816 28.732 211.216 28.576 210.544 28.576C209.872 28.576 209.266 28.732 208.726 29.044C208.198 29.344 207.778 29.776 207.466 30.34C207.166 30.904 207.016 31.546 207.016 32.266C207.016 32.986 207.166 33.628 207.466 34.192C207.778 34.756 208.198 35.194 208.726 35.506C209.266 35.806 209.872 35.956 210.544 35.956ZM227.263 35.884V39.286H226.057V37H217.579V39.286H216.373V35.884H216.913C217.549 35.848 217.981 35.38 218.209 34.48C218.437 33.58 218.593 32.32 218.677 30.7L218.803 27.532H225.787V35.884H227.263ZM219.847 30.772C219.787 32.116 219.673 33.226 219.505 34.102C219.337 34.966 219.037 35.56 218.605 35.884H224.509V28.666H219.955L219.847 30.772ZM233.012 27.46C234.248 27.46 235.196 27.772 235.856 28.396C236.516 29.008 236.846 29.92 236.846 31.132V37H235.622V35.524C235.334 36.016 234.908 36.4 234.344 36.676C233.792 36.952 233.132 37.09 232.364 37.09C231.308 37.09 230.468 36.838 229.844 36.334C229.22 35.83 228.908 35.164 228.908 34.336C228.908 33.532 229.196 32.884 229.772 32.392C230.36 31.9 231.29 31.654 232.562 31.654H235.568V31.078C235.568 30.262 235.34 29.644 234.884 29.224C234.428 28.792 233.762 28.576 232.886 28.576C232.286 28.576 231.71 28.678 231.158 28.882C230.606 29.074 230.132 29.344 229.736 29.692L229.16 28.738C229.64 28.33 230.216 28.018 230.888 27.802C231.56 27.574 232.268 27.46 233.012 27.46ZM232.562 36.082C233.282 36.082 233.9 35.92 234.416 35.596C234.932 35.26 235.316 34.78 235.568 34.156V32.608H232.598C230.978 32.608 230.168 33.172 230.168 34.3C230.168 34.852 230.378 35.29 230.798 35.614C231.218 35.926 231.806 36.082 232.562 36.082ZM15.21 47.4V60H13.932V49.92L8.982 58.398H8.352L3.402 49.974V60H2.124V47.4H3.222L8.694 56.742L14.112 47.4H15.21ZM22.408 50.46C23.644 50.46 24.592 50.772 25.252 51.396C25.912 52.008 26.242 52.92 26.242 54.132V60H25.018V58.524C24.73 59.016 24.304 59.4 23.74 59.676C23.188 59.952 22.528 60.09 21.76 60.09C20.704 60.09 19.864 59.838 19.24 59.334C18.616 58.83 18.304 58.164 18.304 57.336C18.304 56.532 18.592 55.884 19.168 55.392C19.756 54.9 20.686 54.654 21.958 54.654H24.964V54.078C24.964 53.262 24.736 52.644 24.28 52.224C23.824 51.792 23.158 51.576 22.282 51.576C21.682 51.576 21.106 51.678 20.554 51.882C20.002 52.074 19.528 52.344 19.132 52.692L18.556 51.738C19.036 51.33 19.612 51.018 20.284 50.802C20.956 50.574 21.664 50.46 22.408 50.46ZM21.958 59.082C22.678 59.082 23.296 58.92 23.812 58.596C24.328 58.26 24.712 57.78 24.964 57.156V55.608H21.994C20.374 55.608 19.564 56.172 19.564 57.3C19.564 57.852 19.774 58.29 20.194 58.614C20.614 58.926 21.202 59.082 21.958 59.082ZM37.3842 50.532V60H36.1062V51.666H31.5702L31.4442 54.006C31.3482 55.974 31.1202 57.486 30.7602 58.542C30.4002 59.598 29.7582 60.126 28.8342 60.126C28.5822 60.126 28.2762 60.078 27.9162 59.982L28.0062 58.884C28.2222 58.932 28.3722 58.956 28.4562 58.956C28.9482 58.956 29.3202 58.728 29.5722 58.272C29.8242 57.816 29.9922 57.252 30.0762 56.58C30.1602 55.908 30.2322 55.02 30.2922 53.916L30.4542 50.532H37.3842ZM41.0172 50.532H42.2952V58.056L48.6132 50.532H49.7472V60H48.4692V52.476L42.1692 60H41.0172V50.532ZM53.4098 50.532H54.6878V54.726H60.6458V50.532H61.9238V60H60.6458V55.824H54.6878V60H53.4098V50.532ZM68.8143 50.46C70.0503 50.46 70.9983 50.772 71.6583 51.396C72.3183 52.008 72.6483 52.92 72.6483 54.132V60H71.4243V58.524C71.1363 59.016 70.7103 59.4 70.1463 59.676C69.5943 59.952 68.9343 60.09 68.1663 60.09C67.1103 60.09 66.2703 59.838 65.6463 59.334C65.0223 58.83 64.7103 58.164 64.7103 57.336C64.7103 56.532 64.9983 55.884 65.5743 55.392C66.1623 54.9 67.0923 54.654 68.3643 54.654H71.3703V54.078C71.3703 53.262 71.1423 52.644 70.6863 52.224C70.2303 51.792 69.5643 51.576 68.6883 51.576C68.0883 51.576 67.5123 51.678 66.9603 51.882C66.4083 52.074 65.9343 52.344 65.5383 52.692L64.9623 51.738C65.4423 51.33 66.0183 51.018 66.6903 50.802C67.3623 50.574 68.0703 50.46 68.8143 50.46ZM68.3643 59.082C69.0843 59.082 69.7023 58.92 70.2183 58.596C70.7343 58.26 71.1183 57.78 71.3703 57.156V55.608H68.4003C66.7803 55.608 65.9703 56.172 65.9703 57.3C65.9703 57.852 66.1803 58.29 66.6003 58.614C67.0203 58.926 67.6083 59.082 68.3643 59.082Z" fill="#373737"/>
</svg>
