<svg width="226" height="16" viewBox="0 0 226 16" fill="none" xmlns="http://www.w3.org/2000/svg">
<path d="M12.52 0.799999V12H11.384V3.04L6.984 10.576H6.424L2.024 3.088V12H0.888V0.799999H1.864L6.728 9.104L11.544 0.799999H12.52ZM18.9183 3.52C20.0169 3.52 20.8596 3.79733 21.4463 4.352C22.0329 4.896 22.3263 5.70667 22.3263 6.784V12H21.2383V10.688C20.9823 11.1253 20.6036 11.4667 20.1023 11.712C19.6116 11.9573 19.0249 12.08 18.3423 12.08C17.4036 12.08 16.6569 11.856 16.1023 11.408C15.5476 10.96 15.2703 10.368 15.2703 9.632C15.2703 8.91733 15.5263 8.34133 16.0383 7.904C16.5609 7.46667 17.3876 7.248 18.5182 7.248H21.1903V6.736C21.1903 6.01067 20.9876 5.46133 20.5823 5.088C20.1769 4.704 19.5849 4.512 18.8063 4.512C18.2729 4.512 17.7609 4.60267 17.2703 4.784C16.7796 4.95467 16.3583 5.19467 16.0063 5.504L15.4943 4.656C15.9209 4.29333 16.4329 4.016 17.0303 3.824C17.6276 3.62133 18.2569 3.52 18.9183 3.52ZM18.5182 11.184C19.1583 11.184 19.7076 11.04 20.1663 10.752C20.6249 10.4533 20.9663 10.0267 21.1903 9.472V8.096H18.5503C17.1103 8.096 16.3903 8.59733 16.3903 9.6C16.3903 10.0907 16.5769 10.48 16.9503 10.768C17.3236 11.0453 17.8463 11.184 18.5182 11.184ZM29.6864 3.52C30.4757 3.52 31.1904 3.70133 31.8304 4.064C32.4704 4.416 32.9717 4.91733 33.3344 5.568C33.697 6.21867 33.8784 6.96 33.8784 7.792C33.8784 8.63467 33.697 9.38133 33.3344 10.032C32.9717 10.6827 32.4704 11.1893 31.8304 11.552C31.201 11.904 30.4864 12.08 29.6864 12.08C29.0037 12.08 28.385 11.9413 27.8304 11.664C27.2864 11.376 26.8384 10.96 26.4864 10.416V15.104H25.3504V3.584H26.4384V5.248C26.7797 4.69333 27.2277 4.26667 27.7824 3.968C28.3477 3.66933 28.9824 3.52 29.6864 3.52ZM29.6064 11.072C30.193 11.072 30.7264 10.9387 31.2064 10.672C31.6864 10.3947 32.0597 10.0053 32.3264 9.504C32.6037 9.00267 32.7424 8.432 32.7424 7.792C32.7424 7.152 32.6037 6.58667 32.3264 6.096C32.0597 5.59467 31.6864 5.20533 31.2064 4.928C30.7264 4.65067 30.193 4.512 29.6064 4.512C29.009 4.512 28.4704 4.65067 27.9904 4.928C27.521 5.20533 27.1477 5.59467 26.8704 6.096C26.6037 6.58667 26.4704 7.152 26.4704 7.792C26.4704 8.432 26.6037 9.00267 26.8704 9.504C27.1477 10.0053 27.521 10.3947 27.9904 10.672C28.4704 10.9387 29.009 11.072 29.6064 11.072ZM47.9351 3.584V12H36.3191V3.584H37.4551V11.008H41.5831V3.584H42.7191V11.008H46.7991V3.584H47.9351ZM55.5145 3.52C56.3038 3.52 57.0185 3.70133 57.6585 4.064C58.2985 4.416 58.7998 4.91733 59.1625 5.568C59.5252 6.21867 59.7065 6.96 59.7065 7.792C59.7065 8.63467 59.5252 9.38133 59.1625 10.032C58.7998 10.6827 58.2985 11.1893 57.6585 11.552C57.0292 11.904 56.3145 12.08 55.5145 12.08C54.8318 12.08 54.2132 11.9413 53.6585 11.664C53.1145 11.376 52.6665 10.96 52.3145 10.416V15.104H51.1785V3.584H52.2665V5.248C52.6078 4.69333 53.0558 4.26667 53.6105 3.968C54.1758 3.66933 54.8105 3.52 55.5145 3.52ZM55.4345 11.072C56.0212 11.072 56.5545 10.9387 57.0345 10.672C57.5145 10.3947 57.8878 10.0053 58.1545 9.504C58.4318 9.00267 58.5705 8.432 58.5705 7.792C58.5705 7.152 58.4318 6.58667 58.1545 6.096C57.8878 5.59467 57.5145 5.20533 57.0345 4.928C56.5545 4.65067 56.0212 4.512 55.4345 4.512C54.8372 4.512 54.2985 4.65067 53.8185 4.928C53.3492 5.20533 52.9758 5.59467 52.6985 6.096C52.4318 6.58667 52.2985 7.152 52.2985 7.792C52.2985 8.432 52.4318 9.00267 52.6985 9.504C52.9758 10.0053 53.3492 10.3947 53.8185 10.672C54.2985 10.9387 54.8372 11.072 55.4345 11.072ZM69.0649 3.584L64.8569 13.008C64.5155 13.7973 64.1209 14.3573 63.6729 14.688C63.2249 15.0187 62.6862 15.184 62.0569 15.184C61.6515 15.184 61.2729 15.12 60.9209 14.992C60.5689 14.864 60.2649 14.672 60.0089 14.416L60.5369 13.568C60.9635 13.9947 61.4755 14.208 62.0729 14.208C62.4569 14.208 62.7822 14.1013 63.0489 13.888C63.3262 13.6747 63.5822 13.312 63.8169 12.8L64.1849 11.984L60.4249 3.584H61.6089L64.7769 10.736L67.9449 3.584H69.0649ZM76.786 4.592H73.602V12H72.466V4.592H69.282V3.584H76.786V4.592ZM78.5085 5.264C78.2738 5.264 78.0712 5.17867 77.9005 5.008C77.7405 4.83733 77.6605 4.62933 77.6605 4.384C77.6605 4.13867 77.7405 3.936 77.9005 3.776C78.0712 3.60533 78.2738 3.52 78.5085 3.52C78.7432 3.52 78.9458 3.60533 79.1165 3.776C79.2872 3.936 79.3725 4.13867 79.3725 4.384C79.3725 4.62933 79.2872 4.83733 79.1165 5.008C78.9458 5.17867 78.7432 5.264 78.5085 5.264ZM78.5085 12.08C78.2738 12.08 78.0712 11.9947 77.9005 11.824C77.7405 11.6533 77.6605 11.4453 77.6605 11.2C77.6605 10.9547 77.7405 10.752 77.9005 10.592C78.0712 10.4213 78.2738 10.336 78.5085 10.336C78.7432 10.336 78.9458 10.4213 79.1165 10.592C79.2872 10.752 79.3725 10.9547 79.3725 11.2C79.3725 11.4453 79.2872 11.6533 79.1165 11.824C78.9458 11.9947 78.7432 12.08 78.5085 12.08ZM95.0626 0.799999V12H93.8946V1.824H88.4866L88.3586 5.568C88.3053 7.11467 88.1773 8.36267 87.9746 9.312C87.7826 10.2507 87.484 10.9547 87.0786 11.424C86.6733 11.8827 86.1346 12.112 85.4626 12.112C85.1746 12.112 84.876 12.0747 84.5666 12L84.6626 10.944C84.844 10.9867 85.02 11.008 85.1906 11.008C85.66 11.008 86.0386 10.8213 86.3266 10.448C86.6253 10.0747 86.8493 9.49867 86.9986 8.72C87.148 7.93067 87.2493 6.89067 87.3026 5.6L87.4626 0.799999H95.0626ZM105.929 8.144H98.8891C98.9531 9.01867 99.2891 9.728 99.8971 10.272C100.505 10.8053 101.273 11.072 102.201 11.072C102.724 11.072 103.204 10.9813 103.641 10.8C104.078 10.608 104.457 10.3307 104.777 9.968L105.417 10.704C105.044 11.152 104.574 11.4933 104.009 11.728C103.454 11.9627 102.841 12.08 102.169 12.08C101.305 12.08 100.537 11.8987 99.8651 11.536C99.2038 11.1627 98.6865 10.6507 98.3131 10C97.9398 9.34933 97.7531 8.61333 97.7531 7.792C97.7531 6.97067 97.9291 6.23467 98.2811 5.584C98.6438 4.93333 99.1345 4.42667 99.7531 4.064C100.382 3.70133 101.086 3.52 101.865 3.52C102.644 3.52 103.342 3.70133 103.961 4.064C104.58 4.42667 105.065 4.93333 105.417 5.584C105.769 6.224 105.945 6.96 105.945 7.792L105.929 8.144ZM101.865 4.496C101.054 4.496 100.372 4.75733 99.8171 5.28C99.2731 5.792 98.9638 6.464 98.8891 7.296H104.857C104.782 6.464 104.468 5.792 103.913 5.28C103.369 4.75733 102.686 4.496 101.865 4.496ZM111.98 12.08C111.148 12.08 110.401 11.8987 109.74 11.536C109.089 11.1733 108.577 10.6667 108.204 10.016C107.83 9.35467 107.644 8.61333 107.644 7.792C107.644 6.97067 107.83 6.23467 108.204 5.584C108.577 4.93333 109.089 4.42667 109.74 4.064C110.401 3.70133 111.148 3.52 111.98 3.52C112.705 3.52 113.35 3.664 113.916 3.952C114.492 4.22933 114.945 4.64 115.276 5.184L114.428 5.76C114.15 5.344 113.798 5.03467 113.372 4.832C112.945 4.61867 112.481 4.512 111.98 4.512C111.372 4.512 110.822 4.65067 110.332 4.928C109.852 5.19467 109.473 5.57867 109.196 6.08C108.929 6.58133 108.796 7.152 108.796 7.792C108.796 8.44267 108.929 9.01867 109.196 9.52C109.473 10.0107 109.852 10.3947 110.332 10.672C110.822 10.9387 111.372 11.072 111.98 11.072C112.481 11.072 112.945 10.9707 113.372 10.768C113.798 10.5653 114.15 10.256 114.428 9.84L115.276 10.416C114.945 10.96 114.492 11.376 113.916 11.664C113.34 11.9413 112.694 12.08 111.98 12.08ZM117.475 3.584H118.611V7.312H123.907V3.584H125.043V12H123.907V8.288H118.611V12H117.475V3.584ZM131.168 3.52C132.267 3.52 133.11 3.79733 133.696 4.352C134.283 4.896 134.576 5.70667 134.576 6.784V12H133.488V10.688C133.232 11.1253 132.854 11.4667 132.352 11.712C131.862 11.9573 131.275 12.08 130.592 12.08C129.654 12.08 128.907 11.856 128.352 11.408C127.798 10.96 127.52 10.368 127.52 9.632C127.52 8.91733 127.776 8.34133 128.288 7.904C128.811 7.46667 129.638 7.248 130.768 7.248H133.44V6.736C133.44 6.01067 133.238 5.46133 132.832 5.088C132.427 4.704 131.835 4.512 131.056 4.512C130.523 4.512 130.011 4.60267 129.52 4.784C129.03 4.95467 128.608 5.19467 128.256 5.504L127.744 4.656C128.171 4.29333 128.683 4.016 129.28 3.824C129.878 3.62133 130.507 3.52 131.168 3.52ZM130.768 11.184C131.408 11.184 131.958 11.04 132.416 10.752C132.875 10.4533 133.216 10.0267 133.44 9.472V8.096H130.8C129.36 8.096 128.64 8.59733 128.64 9.6C128.64 10.0907 128.827 10.48 129.2 10.768C129.574 11.0453 130.096 11.184 130.768 11.184ZM144.064 3.584V12H143.024V9.216H140.384H140.064L138.112 12H136.88L138.976 9.056C138.326 8.87467 137.824 8.56533 137.472 8.128C137.12 7.69067 136.944 7.136 136.944 6.464C136.944 5.52533 137.264 4.81067 137.904 4.32C138.544 3.82933 139.419 3.584 140.528 3.584H144.064ZM138.096 6.496C138.096 7.744 138.891 8.368 140.48 8.368H143.024V4.592H140.56C138.918 4.592 138.096 5.22667 138.096 6.496ZM159.043 3.584V12H157.907V4.592H152.627V12H151.491V3.584H159.043ZM166.608 3.52C167.398 3.52 168.112 3.70133 168.752 4.064C169.392 4.416 169.894 4.91733 170.256 5.568C170.619 6.21867 170.8 6.96 170.8 7.792C170.8 8.63467 170.619 9.38133 170.256 10.032C169.894 10.6827 169.392 11.1893 168.752 11.552C168.123 11.904 167.408 12.08 166.608 12.08C165.926 12.08 165.307 11.9413 164.752 11.664C164.208 11.376 163.76 10.96 163.408 10.416V15.104H162.272V3.584H163.36V5.248C163.702 4.69333 164.15 4.26667 164.704 3.968C165.27 3.66933 165.904 3.52 166.608 3.52ZM166.528 11.072C167.115 11.072 167.648 10.9387 168.128 10.672C168.608 10.3947 168.982 10.0053 169.248 9.504C169.526 9.00267 169.664 8.432 169.664 7.792C169.664 7.152 169.526 6.58667 169.248 6.096C168.982 5.59467 168.608 5.20533 168.128 4.928C167.648 4.65067 167.115 4.512 166.528 4.512C165.931 4.512 165.392 4.65067 164.912 4.928C164.443 5.20533 164.07 5.59467 163.792 6.096C163.526 6.58667 163.392 7.152 163.392 7.792C163.392 8.432 163.526 9.00267 163.792 9.504C164.07 10.0053 164.443 10.3947 164.912 10.672C165.392 10.9387 165.931 11.072 166.528 11.072ZM176.713 12.08C175.902 12.08 175.172 11.8987 174.521 11.536C173.87 11.1627 173.358 10.6507 172.985 10C172.612 9.34933 172.425 8.61333 172.425 7.792C172.425 6.97067 172.612 6.23467 172.985 5.584C173.358 4.93333 173.87 4.42667 174.521 4.064C175.172 3.70133 175.902 3.52 176.713 3.52C177.524 3.52 178.254 3.70133 178.905 4.064C179.556 4.42667 180.062 4.93333 180.425 5.584C180.798 6.23467 180.985 6.97067 180.985 7.792C180.985 8.61333 180.798 9.34933 180.425 10C180.062 10.6507 179.556 11.1627 178.905 11.536C178.254 11.8987 177.524 12.08 176.713 12.08ZM176.713 11.072C177.31 11.072 177.844 10.9387 178.313 10.672C178.793 10.3947 179.166 10.0053 179.433 9.504C179.7 9.00267 179.833 8.432 179.833 7.792C179.833 7.152 179.7 6.58133 179.433 6.08C179.166 5.57867 178.793 5.19467 178.313 4.928C177.844 4.65067 177.31 4.512 176.713 4.512C176.116 4.512 175.577 4.65067 175.097 4.928C174.628 5.19467 174.254 5.57867 173.977 6.08C173.71 6.58133 173.577 7.152 173.577 7.792C173.577 8.432 173.71 9.00267 173.977 9.504C174.254 10.0053 174.628 10.3947 175.097 10.672C175.577 10.9387 176.116 11.072 176.713 11.072ZM189.365 4.592H184.549V12H183.413V3.584H189.365V4.592ZM198.19 3.584L193.982 13.008C193.641 13.7973 193.246 14.3573 192.798 14.688C192.35 15.0187 191.811 15.184 191.182 15.184C190.777 15.184 190.398 15.12 190.046 14.992C189.694 14.864 189.39 14.672 189.134 14.416L189.662 13.568C190.089 13.9947 190.601 14.208 191.198 14.208C191.582 14.208 191.907 14.1013 192.174 13.888C192.451 13.6747 192.707 13.312 192.942 12.8L193.31 11.984L189.55 3.584H190.734L193.902 10.736L197.07 3.584H198.19ZM206.465 3.584V12H205.329V4.592H201.297L201.185 6.672C201.099 8.42133 200.897 9.76533 200.577 10.704C200.257 11.6427 199.686 12.112 198.865 12.112C198.641 12.112 198.369 12.0693 198.049 11.984L198.129 11.008C198.321 11.0507 198.454 11.072 198.529 11.072C198.966 11.072 199.297 10.8693 199.521 10.464C199.745 10.0587 199.894 9.55733 199.969 8.96C200.043 8.36267 200.107 7.57333 200.161 6.592L200.305 3.584H206.465ZM212.75 8.256H210.83V12H209.694V3.584H210.83V7.28H212.766L215.726 3.584H216.958L213.646 7.664L217.198 12H215.854L212.75 8.256ZM221.731 3.52C222.829 3.52 223.672 3.79733 224.259 4.352C224.845 4.896 225.139 5.70667 225.139 6.784V12H224.051V10.688C223.795 11.1253 223.416 11.4667 222.915 11.712C222.424 11.9573 221.837 12.08 221.155 12.08C220.216 12.08 219.469 11.856 218.915 11.408C218.36 10.96 218.083 10.368 218.083 9.632C218.083 8.91733 218.339 8.34133 218.851 7.904C219.373 7.46667 220.2 7.248 221.331 7.248H224.003V6.736C224.003 6.01067 223.8 5.46133 223.395 5.088C222.989 4.704 222.397 4.512 221.619 4.512C221.085 4.512 220.573 4.60267 220.083 4.784C219.592 4.95467 219.171 5.19467 218.819 5.504L218.307 4.656C218.733 4.29333 219.245 4.016 219.843 3.824C220.44 3.62133 221.069 3.52 221.731 3.52ZM221.331 11.184C221.971 11.184 222.52 11.04 222.979 10.752C223.437 10.4533 223.779 10.0267 224.003 9.472V8.096H221.363C219.923 8.096 219.203 8.59733 219.203 9.6C219.203 10.0907 219.389 10.48 219.763 10.768C220.136 11.0453 220.659 11.184 221.331 11.184Z" fill="white"/>
</svg>
