<svg width="136" height="13" viewBox="0 0 136 13" fill="none" xmlns="http://www.w3.org/2000/svg">
<path d="M9.052 0.199999V10H7.26V1.74H2.178V10H0.386V0.199999H9.052ZM18.8994 6.304C18.8994 6.42533 18.89 6.598 18.8714 6.822H13.0054C13.108 7.37267 13.374 7.81133 13.8034 8.138C14.242 8.45533 14.7834 8.614 15.4274 8.614C16.2487 8.614 16.9254 8.34333 17.4574 7.802L18.3954 8.88C18.0594 9.28133 17.6347 9.58467 17.1214 9.79C16.608 9.99533 16.0294 10.098 15.3854 10.098C14.564 10.098 13.8407 9.93467 13.2154 9.608C12.59 9.28133 12.1047 8.82867 11.7594 8.25C11.4234 7.662 11.2554 6.99933 11.2554 6.262C11.2554 5.534 11.4187 4.88067 11.7454 4.302C12.0814 3.714 12.5434 3.25667 13.1314 2.93C13.7194 2.60333 14.382 2.44 15.1194 2.44C15.8474 2.44 16.496 2.60333 17.0654 2.93C17.644 3.24733 18.092 3.7 18.4094 4.288C18.736 4.86667 18.8994 5.53867 18.8994 6.304ZM15.1194 3.84C14.5594 3.84 14.0834 4.008 13.6914 4.344C13.3087 4.67067 13.0754 5.10933 12.9914 5.66H17.2334C17.1587 5.11867 16.93 4.68 16.5474 4.344C16.1647 4.008 15.6887 3.84 15.1194 3.84ZM25.2374 2.44C25.9654 2.44 26.6141 2.59867 27.1834 2.916C27.7621 3.23333 28.2148 3.68133 28.5414 4.26C28.8681 4.83867 29.0314 5.506 29.0314 6.262C29.0314 7.018 28.8681 7.69 28.5414 8.278C28.2148 8.85667 27.7621 9.30467 27.1834 9.622C26.6141 9.93933 25.9654 10.098 25.2374 10.098C24.2294 10.098 23.4314 9.762 22.8434 9.09V12.716H21.0934V2.524H22.7594V3.504C23.0488 3.14933 23.4034 2.88333 23.8234 2.706C24.2528 2.52867 24.7241 2.44 25.2374 2.44ZM25.0414 8.6C25.6854 8.6 26.2128 8.38533 26.6234 7.956C27.0434 7.52667 27.2534 6.962 27.2534 6.262C27.2534 5.562 27.0434 4.99733 26.6234 4.568C26.2128 4.13867 25.6854 3.924 25.0414 3.924C24.6214 3.924 24.2434 4.022 23.9074 4.218C23.5714 4.40467 23.3054 4.67533 23.1094 5.03C22.9134 5.38467 22.8154 5.79533 22.8154 6.262C22.8154 6.72867 22.9134 7.13933 23.1094 7.494C23.3054 7.84867 23.5714 8.124 23.9074 8.32C24.2434 8.50667 24.6214 8.6 25.0414 8.6ZM38.0531 6.304C38.0531 6.42533 38.0438 6.598 38.0251 6.822H32.1591C32.2618 7.37267 32.5278 7.81133 32.9571 8.138C33.3958 8.45533 33.9371 8.614 34.5811 8.614C35.4024 8.614 36.0791 8.34333 36.6111 7.802L37.5491 8.88C37.2131 9.28133 36.7884 9.58467 36.2751 9.79C35.7618 9.99533 35.1831 10.098 34.5391 10.098C33.7178 10.098 32.9944 9.93467 32.3691 9.608C31.7438 9.28133 31.2584 8.82867 30.9131 8.25C30.5771 7.662 30.4091 6.99933 30.4091 6.262C30.4091 5.534 30.5724 4.88067 30.8991 4.302C31.2351 3.714 31.6971 3.25667 32.2851 2.93C32.8731 2.60333 33.5358 2.44 34.2731 2.44C35.0011 2.44 35.6498 2.60333 36.2191 2.93C36.7978 3.24733 37.2458 3.7 37.5631 4.288C37.8898 4.86667 38.0531 5.53867 38.0531 6.304ZM34.2731 3.84C33.7131 3.84 33.2371 4.008 32.8451 4.344C32.4624 4.67067 32.2291 5.10933 32.1451 5.66H36.3871C36.3124 5.11867 36.0838 4.68 35.7011 4.344C35.3184 4.008 34.8424 3.84 34.2731 3.84ZM44.5765 6.108C45.0431 6.23867 45.4025 6.45333 45.6545 6.752C45.9158 7.04133 46.0465 7.39133 46.0465 7.802C46.0465 8.25933 45.8925 8.66533 45.5845 9.02C45.2765 9.36533 44.8518 9.636 44.3105 9.832C43.7691 10.028 43.1531 10.126 42.4625 10.126C41.8838 10.126 41.3191 10.0607 40.7685 9.93C40.2178 9.79 39.7185 9.594 39.2705 9.342L39.7745 8.04C40.1385 8.24533 40.5491 8.404 41.0065 8.516C41.4638 8.628 41.9211 8.684 42.3785 8.684C42.9665 8.684 43.4238 8.59533 43.7505 8.418C44.0865 8.23133 44.2545 7.97933 44.2545 7.662C44.2545 7.37267 44.1238 7.14867 43.8625 6.99C43.6105 6.83133 43.2511 6.752 42.7845 6.752H41.3285V5.576H42.6445C43.0831 5.576 43.4238 5.50133 43.6665 5.352C43.9185 5.20267 44.0445 4.99267 44.0445 4.722C44.0445 4.45133 43.8951 4.23667 43.5965 4.078C43.2978 3.91933 42.8871 3.84 42.3645 3.84C41.6178 3.84 40.8291 4.022 39.9985 4.386L39.5505 3.098C40.5305 2.64067 41.5198 2.412 42.5185 2.412C43.1531 2.412 43.7225 2.50067 44.2265 2.678C44.7305 2.846 45.1225 3.08867 45.4025 3.406C45.6918 3.714 45.8365 4.06867 45.8365 4.47C45.8365 4.834 45.7245 5.16067 45.5005 5.45C45.2765 5.73 44.9685 5.94933 44.5765 6.108ZM53.5604 6.108C54.4844 6.388 54.9464 6.98533 54.9464 7.9C54.9464 8.572 54.6944 9.09 54.1904 9.454C53.6864 9.818 52.9397 10 51.9504 10H48.1424V2.524H51.7964C52.7111 2.524 53.4251 2.692 53.9384 3.028C54.4517 3.364 54.7084 3.84 54.7084 4.456C54.7084 4.83867 54.6057 5.17 54.4004 5.45C54.2044 5.73 53.9244 5.94933 53.5604 6.108ZM49.8084 5.646H51.6424C52.5477 5.646 53.0004 5.33333 53.0004 4.708C53.0004 4.10133 52.5477 3.798 51.6424 3.798H49.8084V5.646ZM51.8104 8.726C52.7717 8.726 53.2524 8.41333 53.2524 7.788C53.2524 7.46133 53.1404 7.21867 52.9164 7.06C52.6924 6.892 52.3424 6.808 51.8664 6.808H49.8084V8.726H51.8104ZM60.4224 10.098C59.6664 10.098 58.985 9.93467 58.3784 9.608C57.7717 9.28133 57.2957 8.82867 56.9504 8.25C56.6144 7.662 56.4464 6.99933 56.4464 6.262C56.4464 5.52467 56.6144 4.86667 56.9504 4.288C57.2957 3.70933 57.7717 3.25667 58.3784 2.93C58.985 2.60333 59.6664 2.44 60.4224 2.44C61.1877 2.44 61.8737 2.60333 62.4804 2.93C63.087 3.25667 63.5584 3.70933 63.8944 4.288C64.2397 4.86667 64.4124 5.52467 64.4124 6.262C64.4124 6.99933 64.2397 7.662 63.8944 8.25C63.5584 8.82867 63.087 9.28133 62.4804 9.608C61.8737 9.93467 61.1877 10.098 60.4224 10.098ZM60.4224 8.6C61.0664 8.6 61.5984 8.38533 62.0184 7.956C62.4384 7.52667 62.6484 6.962 62.6484 6.262C62.6484 5.562 62.4384 4.99733 62.0184 4.568C61.5984 4.13867 61.0664 3.924 60.4224 3.924C59.7784 3.924 59.2464 4.13867 58.8264 4.568C58.4157 4.99733 58.2104 5.562 58.2104 6.262C58.2104 6.962 58.4157 7.52667 58.8264 7.956C59.2464 8.38533 59.7784 8.6 60.4224 8.6ZM66.4212 2.524H68.1712V5.562H71.9372V2.524H73.6872V10H71.9372V7.046H68.1712V10H66.4212V2.524ZM76.3125 2.524H78.0625V7.452L82.1925 2.524H83.7885V10H82.0385V5.072L77.9225 10H76.3125V2.524ZM92.3446 4.008H89.7266V10H87.9766V4.008H85.3446V2.524H92.3446V4.008ZM100.566 6.304C100.566 6.42533 100.557 6.598 100.538 6.822H94.6718C94.7745 7.37267 95.0405 7.81133 95.4698 8.138C95.9085 8.45533 96.4498 8.614 97.0938 8.614C97.9152 8.614 98.5918 8.34333 99.1238 7.802L100.062 8.88C99.7258 9.28133 99.3012 9.58467 98.7878 9.79C98.2745 9.99533 97.6958 10.098 97.0518 10.098C96.2305 10.098 95.5072 9.93467 94.8818 9.608C94.2565 9.28133 93.7712 8.82867 93.4258 8.25C93.0898 7.662 92.9218 6.99933 92.9218 6.262C92.9218 5.534 93.0852 4.88067 93.4118 4.302C93.7478 3.714 94.2098 3.25667 94.7978 2.93C95.3858 2.60333 96.0485 2.44 96.7858 2.44C97.5138 2.44 98.1625 2.60333 98.7318 2.93C99.3105 3.24733 99.7585 3.7 100.076 4.288C100.403 4.86667 100.566 5.53867 100.566 6.304ZM96.7858 3.84C96.2258 3.84 95.7498 4.008 95.3578 4.344C94.9752 4.67067 94.7418 5.10933 94.6578 5.66H98.8998C98.8252 5.11867 98.5965 4.68 98.2138 4.344C97.8312 4.008 97.3552 3.84 96.7858 3.84ZM114.259 10V5.044L111.739 9.216H110.983L108.505 5.03V10H106.909V2.524H108.743L111.403 7.2L114.189 2.524H115.827L115.841 10H114.259ZM118.468 2.524H120.218V5.562H123.984V2.524H125.734V10H123.984V7.046H120.218V10H118.468V2.524ZM135.36 6.304C135.36 6.42533 135.35 6.598 135.332 6.822H129.466C129.568 7.37267 129.834 7.81133 130.264 8.138C130.702 8.45533 131.244 8.614 131.888 8.614C132.709 8.614 133.386 8.34333 133.918 7.802L134.856 8.88C134.52 9.28133 134.095 9.58467 133.582 9.79C133.068 9.99533 132.49 10.098 131.846 10.098C131.024 10.098 130.301 9.93467 129.676 9.608C129.05 9.28133 128.565 8.82867 128.22 8.25C127.884 7.662 127.716 6.99933 127.716 6.262C127.716 5.534 127.879 4.88067 128.206 4.302C128.542 3.714 129.004 3.25667 129.592 2.93C130.18 2.60333 130.842 2.44 131.58 2.44C132.308 2.44 132.956 2.60333 133.526 2.93C134.104 3.24733 134.552 3.7 134.87 4.288C135.196 4.86667 135.36 5.53867 135.36 6.304ZM131.58 3.84C131.02 3.84 130.544 4.008 130.152 4.344C129.769 4.67067 129.536 5.10933 129.452 5.66H133.694C133.619 5.11867 133.39 4.68 133.008 4.344C132.625 4.008 132.149 3.84 131.58 3.84Z" fill="white"/>
</svg>
