<svg width="175" height="17" viewBox="0 0 175 17" fill="none" xmlns="http://www.w3.org/2000/svg">
<path d="M10.488 1.8V13H8.44V3.56H2.632V13H0.584V1.8H10.488ZM17.2301 13.112C16.3661 13.112 15.5875 12.9253 14.8941 12.552C14.2008 12.1787 13.6568 11.6613 13.2621 11C12.8781 10.328 12.6861 9.57067 12.6861 8.728C12.6861 7.88533 12.8781 7.13333 13.2621 6.472C13.6568 5.81067 14.2008 5.29333 14.8941 4.92C15.5875 4.54667 16.3661 4.36 17.2301 4.36C18.1048 4.36 18.8888 4.54667 19.5821 4.92C20.2755 5.29333 20.8141 5.81067 21.1981 6.472C21.5928 7.13333 21.7901 7.88533 21.7901 8.728C21.7901 9.57067 21.5928 10.328 21.1981 11C20.8141 11.6613 20.2755 12.1787 19.5821 12.552C18.8888 12.9253 18.1048 13.112 17.2301 13.112ZM17.2301 11.4C17.9661 11.4 18.5741 11.1547 19.0541 10.664C19.5341 10.1733 19.7741 9.528 19.7741 8.728C19.7741 7.928 19.5341 7.28267 19.0541 6.792C18.5741 6.30133 17.9661 6.056 17.2301 6.056C16.4941 6.056 15.8861 6.30133 15.4061 6.792C14.9368 7.28267 14.7021 7.928 14.7021 8.728C14.7021 9.528 14.9368 10.1733 15.4061 10.664C15.8861 11.1547 16.4941 11.4 17.2301 11.4ZM32.7921 11.304V14.904H30.9201V13H24.3281V14.904H22.4721V11.304H22.8721C23.4161 11.2827 23.7841 10.936 23.9761 10.264C24.1788 9.58133 24.3121 8.62133 24.3761 7.384L24.4881 4.456H31.5281V11.304H32.7921ZM26.2001 7.528C26.1575 8.50933 26.0775 9.30933 25.9601 9.928C25.8428 10.5467 25.6295 11.0053 25.3201 11.304H29.5281V6.152H26.2481L26.2001 7.528ZM38.3864 13.112C37.5224 13.112 36.7437 12.9253 36.0504 12.552C35.357 12.1787 34.813 11.6613 34.4184 11C34.0344 10.328 33.8424 9.57067 33.8424 8.728C33.8424 7.88533 34.0344 7.13333 34.4184 6.472C34.813 5.81067 35.357 5.29333 36.0504 4.92C36.7437 4.54667 37.5224 4.36 38.3864 4.36C39.261 4.36 40.045 4.54667 40.7384 4.92C41.4317 5.29333 41.9704 5.81067 42.3544 6.472C42.749 7.13333 42.9464 7.88533 42.9464 8.728C42.9464 9.57067 42.749 10.328 42.3544 11C41.9704 11.6613 41.4317 12.1787 40.7384 12.552C40.045 12.9253 39.261 13.112 38.3864 13.112ZM38.3864 11.4C39.1224 11.4 39.7304 11.1547 40.2104 10.664C40.6904 10.1733 40.9304 9.528 40.9304 8.728C40.9304 7.928 40.6904 7.28267 40.2104 6.792C39.7304 6.30133 39.1224 6.056 38.3864 6.056C37.6504 6.056 37.0424 6.30133 36.5624 6.792C36.093 7.28267 35.8584 7.928 35.8584 8.728C35.8584 9.528 36.093 10.1733 36.5624 10.664C37.0424 11.1547 37.6504 11.4 38.3864 11.4ZM49.5461 4.872C50.3568 4.872 51.0715 5.048 51.6901 5.4C52.3088 5.74133 52.7888 6.22133 53.1301 6.84C53.4821 7.45867 53.6581 8.168 53.6581 8.968C53.6581 9.78933 53.4661 10.52 53.0821 11.16C52.6981 11.7893 52.1595 12.28 51.4661 12.632C50.7728 12.984 49.9835 13.16 49.0981 13.16C47.6155 13.16 46.4688 12.6693 45.6581 11.688C44.8475 10.7067 44.4421 9.29333 44.4421 7.448C44.4421 5.73067 44.8101 4.37067 45.5461 3.368C46.2821 2.36533 47.4075 1.704 48.9221 1.384L52.8901 0.535999L53.1781 2.328L49.5781 3.064C48.5435 3.27733 47.7701 3.64 47.2581 4.152C46.7461 4.664 46.4475 5.384 46.3621 6.312C46.7461 5.85333 47.2101 5.50133 47.7541 5.256C48.2981 5 48.8955 4.872 49.5461 4.872ZM49.1461 11.544C49.8821 11.544 50.4741 11.3093 50.9221 10.84C51.3808 10.36 51.6101 9.752 51.6101 9.016C51.6101 8.28 51.3808 7.688 50.9221 7.24C50.4741 6.792 49.8821 6.568 49.1461 6.568C48.3995 6.568 47.7968 6.792 47.3381 7.24C46.8795 7.688 46.6501 8.28 46.6501 9.016C46.6501 9.76267 46.8795 10.3707 47.3381 10.84C47.8075 11.3093 48.4101 11.544 49.1461 11.544ZM60.33 4.36C61.162 4.36 61.9033 4.54133 62.554 4.904C63.2153 5.26667 63.7327 5.77867 64.106 6.44C64.4793 7.10133 64.666 7.864 64.666 8.728C64.666 9.592 64.4793 10.36 64.106 11.032C63.7327 11.6933 63.2153 12.2053 62.554 12.568C61.9033 12.9307 61.162 13.112 60.33 13.112C59.178 13.112 58.266 12.728 57.594 11.96V16.104H55.594V4.456H57.498V5.576C57.8287 5.17067 58.234 4.86667 58.714 4.664C59.2047 4.46133 59.7433 4.36 60.33 4.36ZM60.106 11.4C60.842 11.4 61.4447 11.1547 61.914 10.664C62.394 10.1733 62.634 9.528 62.634 8.728C62.634 7.928 62.394 7.28267 61.914 6.792C61.4447 6.30133 60.842 6.056 60.106 6.056C59.626 6.056 59.194 6.168 58.81 6.392C58.426 6.60533 58.122 6.91467 57.898 7.32C57.674 7.72533 57.562 8.19467 57.562 8.728C57.562 9.26133 57.674 9.73067 57.898 10.136C58.122 10.5413 58.426 10.856 58.81 11.08C59.194 11.2933 59.626 11.4 60.106 11.4ZM69.7311 4.36C70.9898 4.36 71.9498 4.664 72.6111 5.272C73.2831 5.86933 73.6191 6.776 73.6191 7.992V13H71.7311V11.96C71.4858 12.3333 71.1338 12.6213 70.6751 12.824C70.2271 13.016 69.6831 13.112 69.0431 13.112C68.4031 13.112 67.8431 13.0053 67.3631 12.792C66.8831 12.568 66.5098 12.264 66.2431 11.88C65.9871 11.4853 65.8591 11.0427 65.8591 10.552C65.8591 9.784 66.1418 9.17067 66.7071 8.712C67.2831 8.24267 68.1845 8.008 69.4111 8.008H71.6191V7.88C71.6191 7.28267 71.4378 6.824 71.0751 6.504C70.7231 6.184 70.1951 6.024 69.4911 6.024C69.0111 6.024 68.5365 6.09867 68.0671 6.248C67.6085 6.39733 67.2191 6.60533 66.8991 6.872L66.1151 5.416C66.5631 5.07467 67.1018 4.81333 67.7311 4.632C68.3605 4.45067 69.0271 4.36 69.7311 4.36ZM69.4591 11.656C69.9605 11.656 70.4031 11.544 70.7871 11.32C71.1818 11.0853 71.4591 10.7547 71.6191 10.328V9.336H69.5551C68.4031 9.336 67.8271 9.71467 67.8271 10.472C67.8271 10.8347 67.9711 11.1227 68.2591 11.336C68.5471 11.5493 68.9471 11.656 69.4591 11.656ZM82.862 6.152H79.87V13H77.87V6.152H74.862V4.456H82.862V6.152ZM88.6008 7.272C89.6888 7.272 90.5208 7.51733 91.0968 8.008C91.6834 8.49867 91.9768 9.192 91.9768 10.088C91.9768 11.0267 91.6568 11.752 91.0168 12.264C90.3768 12.776 89.4754 13.0267 88.3128 13.016L84.3128 13V4.456H86.3128V7.256L88.6008 7.272ZM88.1368 11.544C88.7234 11.5547 89.1714 11.432 89.4808 11.176C89.7901 10.92 89.9448 10.5467 89.9448 10.056C89.9448 9.576 89.7954 9.224 89.4968 9C89.1981 8.776 88.7448 8.65867 88.1368 8.648L86.3128 8.632V11.528L88.1368 11.544ZM106.557 13V7.336L103.677 12.104H102.813L99.9805 7.32V13H98.1565V4.456H100.253L103.293 9.8L106.477 4.456H108.349L108.365 13H106.557ZM114.231 4.36C115.49 4.36 116.45 4.664 117.111 5.272C117.783 5.86933 118.119 6.776 118.119 7.992V13H116.231V11.96C115.986 12.3333 115.634 12.6213 115.175 12.824C114.727 13.016 114.183 13.112 113.543 13.112C112.903 13.112 112.343 13.0053 111.863 12.792C111.383 12.568 111.01 12.264 110.743 11.88C110.487 11.4853 110.359 11.0427 110.359 10.552C110.359 9.784 110.642 9.17067 111.207 8.712C111.783 8.24267 112.684 8.008 113.911 8.008H116.119V7.88C116.119 7.28267 115.938 6.824 115.575 6.504C115.223 6.184 114.695 6.024 113.991 6.024C113.511 6.024 113.036 6.09867 112.567 6.248C112.108 6.39733 111.719 6.60533 111.399 6.872L110.615 5.416C111.063 5.07467 111.602 4.81333 112.231 4.632C112.86 4.45067 113.527 4.36 114.231 4.36ZM113.959 11.656C114.46 11.656 114.903 11.544 115.287 11.32C115.682 11.0853 115.959 10.7547 116.119 10.328V9.336H114.055C112.903 9.336 112.327 9.71467 112.327 10.472C112.327 10.8347 112.471 11.1227 112.759 11.336C113.047 11.5493 113.447 11.656 113.959 11.656ZM125.33 4.36C126.162 4.36 126.903 4.54133 127.554 4.904C128.215 5.26667 128.733 5.77867 129.106 6.44C129.479 7.10133 129.666 7.864 129.666 8.728C129.666 9.592 129.479 10.36 129.106 11.032C128.733 11.6933 128.215 12.2053 127.554 12.568C126.903 12.9307 126.162 13.112 125.33 13.112C124.178 13.112 123.266 12.728 122.594 11.96V16.104H120.594V4.456H122.498V5.576C122.829 5.17067 123.234 4.86667 123.714 4.664C124.205 4.46133 124.743 4.36 125.33 4.36ZM125.106 11.4C125.842 11.4 126.445 11.1547 126.914 10.664C127.394 10.1733 127.634 9.528 127.634 8.728C127.634 7.928 127.394 7.28267 126.914 6.792C126.445 6.30133 125.842 6.056 125.106 6.056C124.626 6.056 124.194 6.168 123.81 6.392C123.426 6.60533 123.122 6.91467 122.898 7.32C122.674 7.72533 122.562 8.19467 122.562 8.728C122.562 9.26133 122.674 9.73067 122.898 10.136C123.122 10.5413 123.426 10.856 123.81 11.08C124.194 11.2933 124.626 11.4 125.106 11.4ZM144.249 4.456V13H131.657V4.456H133.657V11.304H136.969V4.456H138.969V11.304H142.249V4.456H144.249ZM151.674 4.36C152.506 4.36 153.247 4.54133 153.898 4.904C154.559 5.26667 155.076 5.77867 155.45 6.44C155.823 7.10133 156.01 7.864 156.01 8.728C156.01 9.592 155.823 10.36 155.45 11.032C155.076 11.6933 154.559 12.2053 153.898 12.568C153.247 12.9307 152.506 13.112 151.674 13.112C150.522 13.112 149.61 12.728 148.938 11.96V16.104H146.938V4.456H148.842V5.576C149.172 5.17067 149.578 4.86667 150.058 4.664C150.548 4.46133 151.087 4.36 151.674 4.36ZM151.45 11.4C152.186 11.4 152.788 11.1547 153.258 10.664C153.738 10.1733 153.978 9.528 153.978 8.728C153.978 7.928 153.738 7.28267 153.258 6.792C152.788 6.30133 152.186 6.056 151.45 6.056C150.97 6.056 150.538 6.168 150.154 6.392C149.77 6.60533 149.466 6.91467 149.242 7.32C149.018 7.72533 148.906 8.19467 148.906 8.728C148.906 9.26133 149.018 9.73067 149.242 10.136C149.466 10.5413 149.77 10.856 150.154 11.08C150.538 11.2933 150.97 11.4 151.45 11.4ZM165.83 4.456L161.83 13.688C161.457 14.616 161.003 15.2667 160.47 15.64C159.937 16.024 159.291 16.216 158.534 16.216C158.107 16.216 157.686 16.1467 157.27 16.008C156.854 15.8693 156.513 15.6773 156.246 15.432L157.046 13.96C157.238 14.1413 157.462 14.2853 157.718 14.392C157.985 14.4987 158.251 14.552 158.518 14.552C158.87 14.552 159.158 14.4613 159.382 14.28C159.617 14.0987 159.83 13.7947 160.022 13.368L160.166 13.032L156.438 4.456H158.518L161.206 10.776L163.91 4.456H165.83ZM174.05 6.152H171.058V13H169.058V6.152H166.05V4.456H174.05V6.152Z" fill="white"/>
</svg>
