<svg width="230" height="14" viewBox="0 0 230 14" fill="none" xmlns="http://www.w3.org/2000/svg">
<path d="M9.052 1.2V11H7.26V2.74H2.178V11H0.386V1.2H9.052ZM14.9514 11.098C14.1954 11.098 13.514 10.9347 12.9074 10.608C12.3007 10.2813 11.8247 9.82867 11.4794 9.25C11.1434 8.662 10.9754 7.99933 10.9754 7.262C10.9754 6.52467 11.1434 5.86667 11.4794 5.288C11.8247 4.70933 12.3007 4.25667 12.9074 3.93C13.514 3.60333 14.1954 3.44 14.9514 3.44C15.7167 3.44 16.4027 3.60333 17.0094 3.93C17.616 4.25667 18.0874 4.70933 18.4234 5.288C18.7687 5.86667 18.9414 6.52467 18.9414 7.262C18.9414 7.99933 18.7687 8.662 18.4234 9.25C18.0874 9.82867 17.616 10.2813 17.0094 10.608C16.4027 10.9347 15.7167 11.098 14.9514 11.098ZM14.9514 9.6C15.5954 9.6 16.1274 9.38533 16.5474 8.956C16.9674 8.52667 17.1774 7.962 17.1774 7.262C17.1774 6.562 16.9674 5.99733 16.5474 5.568C16.1274 5.13867 15.5954 4.924 14.9514 4.924C14.3074 4.924 13.7754 5.13867 13.3554 5.568C12.9447 5.99733 12.7394 6.562 12.7394 7.262C12.7394 7.962 12.9447 8.52667 13.3554 8.956C13.7754 9.38533 14.3074 9.6 14.9514 9.6ZM28.5681 9.516V12.666H26.9301V11H21.1621V12.666H19.5381V9.516H19.8881C20.3641 9.49733 20.6861 9.194 20.8541 8.606C21.0314 8.00867 21.1481 7.16867 21.2041 6.086L21.3021 3.524H27.4621V9.516H28.5681ZM22.8001 6.212C22.7628 7.07067 22.6928 7.77067 22.5901 8.312C22.4874 8.85333 22.3008 9.25467 22.0301 9.516H25.7121V5.008H22.8421L22.8001 6.212ZM34.1771 3.888C34.8864 3.888 35.5117 4.042 36.0531 4.35C36.5944 4.64867 37.0144 5.06867 37.3131 5.61C37.6211 6.15133 37.7751 6.772 37.7751 7.472C37.7751 8.19067 37.6071 8.83 37.2711 9.39C36.9351 9.94067 36.4637 10.37 35.8571 10.678C35.2504 10.986 34.5597 11.14 33.7851 11.14C32.4877 11.14 31.4844 10.7107 30.7751 9.852C30.0657 8.99333 29.7111 7.75667 29.7111 6.142C29.7111 4.63933 30.0331 3.44933 30.6771 2.572C31.3211 1.69467 32.3057 1.116 33.6311 0.836L37.1031 0.0939994L37.3551 1.662L34.2051 2.306C33.2997 2.49267 32.6231 2.81 32.1751 3.258C31.7271 3.706 31.4657 4.336 31.3911 5.148C31.7271 4.74667 32.1331 4.43867 32.6091 4.224C33.0851 4 33.6077 3.888 34.1771 3.888ZM33.8271 9.726C34.4711 9.726 34.9891 9.52067 35.3811 9.11C35.7824 8.69 35.9831 8.158 35.9831 7.514C35.9831 6.87 35.7824 6.352 35.3811 5.96C34.9891 5.568 34.4711 5.372 33.8271 5.372C33.1737 5.372 32.6464 5.568 32.2451 5.96C31.8437 6.352 31.6431 6.87 31.6431 7.514C31.6431 8.16733 31.8437 8.69933 32.2451 9.11C32.6557 9.52067 33.1831 9.726 33.8271 9.726ZM46.469 7.304C46.469 7.42533 46.4596 7.598 46.441 7.822H40.575C40.6776 8.37267 40.9436 8.81133 41.373 9.138C41.8116 9.45533 42.353 9.614 42.997 9.614C43.8183 9.614 44.495 9.34333 45.027 8.802L45.965 9.88C45.629 10.2813 45.2043 10.5847 44.691 10.79C44.1776 10.9953 43.599 11.098 42.955 11.098C42.1336 11.098 41.4103 10.9347 40.785 10.608C40.1596 10.2813 39.6743 9.82867 39.329 9.25C38.993 8.662 38.825 7.99933 38.825 7.262C38.825 6.534 38.9883 5.88067 39.315 5.302C39.651 4.714 40.113 4.25667 40.701 3.93C41.289 3.60333 41.9516 3.44 42.689 3.44C43.417 3.44 44.0656 3.60333 44.635 3.93C45.2136 4.24733 45.6616 4.7 45.979 5.288C46.3056 5.86667 46.469 6.53867 46.469 7.304ZM42.689 4.84C42.129 4.84 41.653 5.008 41.261 5.344C40.8783 5.67067 40.645 6.10933 40.561 6.66H44.803C44.7283 6.11867 44.4996 5.68 44.117 5.344C43.7343 5.008 43.2583 4.84 42.689 4.84ZM52.527 3.44C53.255 3.44 53.9037 3.59867 54.473 3.916C55.0517 4.23333 55.5044 4.68133 55.831 5.26C56.1577 5.83867 56.321 6.506 56.321 7.262C56.321 8.018 56.1577 8.69 55.831 9.278C55.5044 9.85667 55.0517 10.3047 54.473 10.622C53.9037 10.9393 53.255 11.098 52.527 11.098C51.519 11.098 50.721 10.762 50.133 10.09V13.716H48.383V3.524H50.049V4.504C50.3384 4.14933 50.693 3.88333 51.113 3.706C51.5424 3.52867 52.0137 3.44 52.527 3.44ZM52.331 9.6C52.975 9.6 53.5024 9.38533 53.913 8.956C54.333 8.52667 54.543 7.962 54.543 7.262C54.543 6.562 54.333 5.99733 53.913 5.568C53.5024 5.13867 52.975 4.924 52.331 4.924C51.911 4.924 51.533 5.022 51.197 5.218C50.861 5.40467 50.595 5.67533 50.399 6.03C50.203 6.38467 50.105 6.79533 50.105 7.262C50.105 7.72867 50.203 8.13933 50.399 8.494C50.595 8.84867 50.861 9.124 51.197 9.32C51.533 9.50667 51.911 9.6 52.331 9.6ZM65.0627 7.304C65.0627 7.42533 65.0534 7.598 65.0347 7.822H59.1687C59.2714 8.37267 59.5374 8.81133 59.9667 9.138C60.4054 9.45533 60.9467 9.614 61.5907 9.614C62.4121 9.614 63.0887 9.34333 63.6207 8.802L64.5587 9.88C64.2227 10.2813 63.7981 10.5847 63.2847 10.79C62.7714 10.9953 62.1927 11.098 61.5487 11.098C60.7274 11.098 60.0041 10.9347 59.3787 10.608C58.7534 10.2813 58.2681 9.82867 57.9227 9.25C57.5867 8.662 57.4187 7.99933 57.4187 7.262C57.4187 6.534 57.5821 5.88067 57.9087 5.302C58.2447 4.714 58.7067 4.25667 59.2947 3.93C59.8827 3.60333 60.5454 3.44 61.2827 3.44C62.0107 3.44 62.6594 3.60333 63.2287 3.93C63.8074 4.24733 64.2554 4.7 64.5727 5.288C64.8994 5.86667 65.0627 6.53867 65.0627 7.304ZM61.2827 4.84C60.7227 4.84 60.2467 5.008 59.8547 5.344C59.4721 5.67067 59.2387 6.10933 59.1547 6.66H63.3967C63.3221 6.11867 63.0934 5.68 62.7107 5.344C62.3281 5.008 61.8521 4.84 61.2827 4.84ZM74.3268 11V6.044L71.8068 10.216H71.0508L68.5728 6.03V11H66.9768V3.524H68.8108L71.4708 8.2L74.2568 3.524H75.8948L75.9088 11H74.3268ZM85.5272 11.098C84.7526 11.098 84.0572 10.9347 83.4412 10.608C82.8252 10.2813 82.3446 9.82867 81.9992 9.25C81.6539 8.662 81.4812 7.99933 81.4812 7.262C81.4812 6.52467 81.6539 5.86667 81.9992 5.288C82.3446 4.70933 82.8206 4.25667 83.4272 3.93C84.0432 3.60333 84.7432 3.44 85.5272 3.44C86.2646 3.44 86.9086 3.58933 87.4592 3.888C88.0192 4.18667 88.4392 4.616 88.7192 5.176L87.3752 5.96C87.1606 5.61467 86.8899 5.358 86.5632 5.19C86.2459 5.01267 85.8959 4.924 85.5132 4.924C84.8599 4.924 84.3186 5.13867 83.8892 5.568C83.4599 5.988 83.2452 6.55267 83.2452 7.262C83.2452 7.97133 83.4552 8.54067 83.8752 8.97C84.3046 9.39 84.8506 9.6 85.5132 9.6C85.8959 9.6 86.2459 9.516 86.5632 9.348C86.8899 9.17067 87.1606 8.90933 87.3752 8.564L88.7192 9.348C88.4299 9.908 88.0052 10.342 87.4452 10.65C86.8946 10.9487 86.2552 11.098 85.5272 11.098ZM97.1506 7.304C97.1506 7.42533 97.1413 7.598 97.1226 7.822H91.2566C91.3593 8.37267 91.6253 8.81133 92.0546 9.138C92.4933 9.45533 93.0346 9.614 93.6786 9.614C94.4999 9.614 95.1766 9.34333 95.7086 8.802L96.6466 9.88C96.3106 10.2813 95.8859 10.5847 95.3726 10.79C94.8593 10.9953 94.2806 11.098 93.6366 11.098C92.8153 11.098 92.0919 10.9347 91.4666 10.608C90.8413 10.2813 90.3559 9.82867 90.0106 9.25C89.6746 8.662 89.5066 7.99933 89.5066 7.262C89.5066 6.534 89.6699 5.88067 89.9966 5.302C90.3326 4.714 90.7946 4.25667 91.3826 3.93C91.9706 3.60333 92.6333 3.44 93.3706 3.44C94.0986 3.44 94.7473 3.60333 95.3166 3.93C95.8953 4.24733 96.3433 4.7 96.6606 5.288C96.9873 5.86667 97.1506 6.53867 97.1506 7.304ZM93.3706 4.84C92.8106 4.84 92.3346 5.008 91.9426 5.344C91.5599 5.67067 91.3266 6.10933 91.2426 6.66H95.4846C95.4099 6.11867 95.1813 5.68 94.7986 5.344C94.4159 5.008 93.9399 4.84 93.3706 4.84ZM103.209 3.44C103.937 3.44 104.585 3.59867 105.155 3.916C105.733 4.23333 106.186 4.68133 106.513 5.26C106.839 5.83867 107.003 6.506 107.003 7.262C107.003 8.018 106.839 8.69 106.513 9.278C106.186 9.85667 105.733 10.3047 105.155 10.622C104.585 10.9393 103.937 11.098 103.209 11.098C102.201 11.098 101.403 10.762 100.815 10.09V13.716H99.0647V3.524H100.731V4.504C101.02 4.14933 101.375 3.88333 101.795 3.706C102.224 3.52867 102.695 3.44 103.209 3.44ZM103.013 9.6C103.657 9.6 104.184 9.38533 104.595 8.956C105.015 8.52667 105.225 7.962 105.225 7.262C105.225 6.562 105.015 5.99733 104.595 5.568C104.184 5.13867 103.657 4.924 103.013 4.924C102.593 4.924 102.215 5.022 101.879 5.218C101.543 5.40467 101.277 5.67533 101.081 6.03C100.885 6.38467 100.787 6.79533 100.787 7.262C100.787 7.72867 100.885 8.13933 101.081 8.494C101.277 8.84867 101.543 9.124 101.879 9.32C102.215 9.50667 102.593 9.6 103.013 9.6ZM114.393 5.008H111.775V11H110.025V5.008H107.393V3.524H114.393V5.008ZM115.662 3.524H117.412V8.452L121.542 3.524H123.138V11H121.388V6.072L117.272 11H115.662V3.524ZM135.376 7.248C135.376 8.40533 134.989 9.31533 134.214 9.978C133.449 10.6407 132.352 11.0187 130.924 11.112V13.716H129.272V11.126C127.844 11.0327 126.748 10.6547 125.982 9.992C125.217 9.32933 124.834 8.41467 124.834 7.248C124.834 6.09067 125.217 5.19 125.982 4.546C126.748 3.89267 127.844 3.51933 129.272 3.426V0.611999H130.924V3.426C132.352 3.51933 133.449 3.89267 134.214 4.546C134.989 5.19933 135.376 6.1 135.376 7.248ZM126.556 7.248C126.556 7.96667 126.776 8.52667 127.214 8.928C127.662 9.32933 128.348 9.572 129.272 9.656V4.91C128.348 4.98467 127.662 5.218 127.214 5.61C126.776 6.002 126.556 6.548 126.556 7.248ZM130.924 9.656C132.754 9.488 133.668 8.68533 133.668 7.248C133.668 6.53867 133.44 5.99267 132.982 5.61C132.534 5.218 131.848 4.98467 130.924 4.91V9.656ZM137.072 3.524H138.822V8.452L142.952 3.524H144.548V11H142.798V6.072L138.682 11H137.072V3.524ZM150.011 8.004H148.653V11H146.903V3.524H148.653V6.548H150.053L152.265 3.524H154.141L151.425 7.122L154.323 11H152.265L150.011 8.004ZM158.206 3.44C159.307 3.44 160.147 3.706 160.726 4.238C161.314 4.76067 161.608 5.554 161.608 6.618V11H159.956V10.09C159.741 10.4167 159.433 10.6687 159.032 10.846C158.64 11.014 158.164 11.098 157.604 11.098C157.044 11.098 156.554 11.0047 156.134 10.818C155.714 10.622 155.387 10.356 155.154 10.02C154.93 9.67467 154.818 9.28733 154.818 8.858C154.818 8.186 155.065 7.64933 155.56 7.248C156.064 6.83733 156.853 6.632 157.926 6.632H159.858V6.52C159.858 5.99733 159.699 5.596 159.382 5.316C159.074 5.036 158.612 4.896 157.996 4.896C157.576 4.896 157.161 4.96133 156.75 5.092C156.349 5.22267 156.008 5.40467 155.728 5.638L155.042 4.364C155.434 4.06533 155.905 3.83667 156.456 3.678C157.007 3.51933 157.59 3.44 158.206 3.44ZM157.968 9.824C158.407 9.824 158.794 9.726 159.13 9.53C159.475 9.32467 159.718 9.03533 159.858 8.662V7.794H158.052C157.044 7.794 156.54 8.12533 156.54 8.788C156.54 9.10533 156.666 9.35733 156.918 9.544C157.17 9.73067 157.52 9.824 157.968 9.824ZM169.696 5.008H167.078V11H165.328V5.008H162.696V3.524H169.696V5.008ZM182.814 9.516V12.666H181.176V11H175.408V12.666H173.784V9.516H174.134C174.61 9.49733 174.932 9.194 175.1 8.606C175.278 8.00867 175.394 7.16867 175.45 6.086L175.548 3.524H181.708V9.516H182.814ZM177.046 6.212C177.009 7.07067 176.939 7.77067 176.836 8.312C176.734 8.85333 176.547 9.25467 176.276 9.516H179.958V5.008H177.088L177.046 6.212ZM191.153 3.524V11H189.403V5.008H186.603L186.533 6.492C186.487 7.48133 186.393 8.312 186.253 8.984C186.123 9.64667 185.894 10.174 185.567 10.566C185.25 10.9487 184.811 11.14 184.251 11.14C183.99 11.14 183.668 11.0887 183.285 10.986L183.369 9.516C183.5 9.544 183.612 9.558 183.705 9.558C184.06 9.558 184.326 9.418 184.503 9.138C184.681 8.84867 184.793 8.508 184.839 8.116C184.895 7.71467 184.942 7.14533 184.979 6.408L185.105 3.524H191.153ZM199.824 3.524V11H198.256V8.746H196.282L194.756 11H192.88L194.644 8.508C194.103 8.32133 193.687 8.03667 193.398 7.654C193.118 7.262 192.978 6.78133 192.978 6.212C192.978 5.35333 193.281 4.69067 193.888 4.224C194.495 3.75733 195.33 3.524 196.394 3.524H199.824ZM196.45 4.994C195.321 4.994 194.756 5.41867 194.756 6.268C194.756 7.108 195.302 7.528 196.394 7.528H198.256V4.994H196.45ZM211.465 7.108C212.389 7.388 212.851 7.98533 212.851 8.9C212.851 9.572 212.599 10.09 212.095 10.454C211.591 10.818 210.844 11 209.855 11H206.047V3.524H209.701C210.616 3.524 211.33 3.692 211.843 4.028C212.356 4.364 212.613 4.84 212.613 5.456C212.613 5.83867 212.51 6.17 212.305 6.45C212.109 6.73 211.829 6.94933 211.465 7.108ZM207.713 6.646H209.547C210.452 6.646 210.905 6.33333 210.905 5.708C210.905 5.10133 210.452 4.798 209.547 4.798H207.713V6.646ZM209.715 9.726C210.676 9.726 211.157 9.41333 211.157 8.788C211.157 8.46133 211.045 8.21867 210.821 8.06C210.597 7.892 210.247 7.808 209.771 7.808H207.713V9.726H209.715ZM217.501 3.44C218.602 3.44 219.442 3.706 220.021 4.238C220.609 4.76067 220.903 5.554 220.903 6.618V11H219.251V10.09C219.036 10.4167 218.728 10.6687 218.327 10.846C217.935 11.014 217.459 11.098 216.899 11.098C216.339 11.098 215.849 11.0047 215.429 10.818C215.009 10.622 214.682 10.356 214.449 10.02C214.225 9.67467 214.113 9.28733 214.113 8.858C214.113 8.186 214.36 7.64933 214.855 7.248C215.359 6.83733 216.148 6.632 217.221 6.632H219.153V6.52C219.153 5.99733 218.994 5.596 218.677 5.316C218.369 5.036 217.907 4.896 217.291 4.896C216.871 4.896 216.456 4.96133 216.045 5.092C215.644 5.22267 215.303 5.40467 215.023 5.638L214.337 4.364C214.729 4.06533 215.2 3.83667 215.751 3.678C216.302 3.51933 216.885 3.44 217.501 3.44ZM217.263 9.824C217.702 9.824 218.089 9.726 218.425 9.53C218.77 9.32467 219.013 9.03533 219.153 8.662V7.794H217.347C216.339 7.794 215.835 8.12533 215.835 8.788C215.835 9.10533 215.961 9.35733 216.213 9.544C216.465 9.73067 216.815 9.824 217.263 9.824ZM226.471 11.098C225.696 11.098 225.001 10.9347 224.385 10.608C223.769 10.2813 223.288 9.82867 222.943 9.25C222.597 8.662 222.425 7.99933 222.425 7.262C222.425 6.52467 222.597 5.86667 222.943 5.288C223.288 4.70933 223.764 4.25667 224.371 3.93C224.987 3.60333 225.687 3.44 226.471 3.44C227.208 3.44 227.852 3.58933 228.403 3.888C228.963 4.18667 229.383 4.616 229.663 5.176L228.319 5.96C228.104 5.61467 227.833 5.358 227.507 5.19C227.189 5.01267 226.839 4.924 226.457 4.924C225.803 4.924 225.262 5.13867 224.833 5.568C224.403 5.988 224.189 6.55267 224.189 7.262C224.189 7.97133 224.399 8.54067 224.819 8.97C225.248 9.39 225.794 9.6 226.457 9.6C226.839 9.6 227.189 9.516 227.507 9.348C227.833 9.17067 228.104 8.90933 228.319 8.564L229.663 9.348C229.373 9.908 228.949 10.342 228.389 10.65C227.838 10.9487 227.199 11.098 226.471 11.098Z" fill="#037E8C"/>
</svg>
