<svg width="84" height="14" viewBox="0 0 84 14" fill="none" xmlns="http://www.w3.org/2000/svg">
<path d="M9.052 1.2V11H7.26V2.74H2.178V11H0.386V1.2H9.052ZM14.9514 11.098C14.1954 11.098 13.514 10.9347 12.9074 10.608C12.3007 10.2813 11.8247 9.82867 11.4794 9.25C11.1434 8.662 10.9754 7.99933 10.9754 7.262C10.9754 6.52467 11.1434 5.86667 11.4794 5.288C11.8247 4.70933 12.3007 4.25667 12.9074 3.93C13.514 3.60333 14.1954 3.44 14.9514 3.44C15.7167 3.44 16.4027 3.60333 17.0094 3.93C17.616 4.25667 18.0874 4.70933 18.4234 5.288C18.7687 5.86667 18.9414 6.52467 18.9414 7.262C18.9414 7.99933 18.7687 8.662 18.4234 9.25C18.0874 9.82867 17.616 10.2813 17.0094 10.608C16.4027 10.9347 15.7167 11.098 14.9514 11.098ZM14.9514 9.6C15.5954 9.6 16.1274 9.38533 16.5474 8.956C16.9674 8.52667 17.1774 7.962 17.1774 7.262C17.1774 6.562 16.9674 5.99733 16.5474 5.568C16.1274 5.13867 15.5954 4.924 14.9514 4.924C14.3074 4.924 13.7754 5.13867 13.3554 5.568C12.9447 5.99733 12.7394 6.562 12.7394 7.262C12.7394 7.962 12.9447 8.52667 13.3554 8.956C13.7754 9.38533 14.3074 9.6 14.9514 9.6ZM28.5681 9.516V12.666H26.9301V11H21.1621V12.666H19.5381V9.516H19.8881C20.3641 9.49733 20.6861 9.194 20.8541 8.606C21.0314 8.00867 21.1481 7.16867 21.2041 6.086L21.3021 3.524H27.4621V9.516H28.5681ZM22.8001 6.212C22.7628 7.07067 22.6928 7.77067 22.5901 8.312C22.4874 8.85333 22.3008 9.25467 22.0301 9.516H25.7121V5.008H22.8421L22.8001 6.212ZM34.2751 3.44C35.0031 3.44 35.6517 3.59867 36.2211 3.916C36.7997 4.23333 37.2524 4.68133 37.5791 5.26C37.9057 5.83867 38.0691 6.506 38.0691 7.262C38.0691 8.018 37.9057 8.69 37.5791 9.278C37.2524 9.85667 36.7997 10.3047 36.2211 10.622C35.6517 10.9393 35.0031 11.098 34.2751 11.098C33.2671 11.098 32.4691 10.762 31.8811 10.09V13.716H30.1311V3.524H31.7971V4.504C32.0864 4.14933 32.4411 3.88333 32.8611 3.706C33.2904 3.52867 33.7617 3.44 34.2751 3.44ZM34.0791 9.6C34.7231 9.6 35.2504 9.38533 35.6611 8.956C36.0811 8.52667 36.2911 7.962 36.2911 7.262C36.2911 6.562 36.0811 5.99733 35.6611 5.568C35.2504 5.13867 34.7231 4.924 34.0791 4.924C33.6591 4.924 33.2811 5.022 32.9451 5.218C32.6091 5.40467 32.3431 5.67533 32.1471 6.03C31.9511 6.38467 31.8531 6.79533 31.8531 7.262C31.8531 7.72867 31.9511 8.13933 32.1471 8.494C32.3431 8.84867 32.6091 9.124 32.9451 9.32C33.2811 9.50667 33.6591 9.6 34.0791 9.6ZM43.1428 11.098C42.3868 11.098 41.7054 10.9347 41.0988 10.608C40.4921 10.2813 40.0161 9.82867 39.6708 9.25C39.3348 8.662 39.1668 7.99933 39.1668 7.262C39.1668 6.52467 39.3348 5.86667 39.6708 5.288C40.0161 4.70933 40.4921 4.25667 41.0988 3.93C41.7054 3.60333 42.3868 3.44 43.1428 3.44C43.9081 3.44 44.5941 3.60333 45.2008 3.93C45.8074 4.25667 46.2788 4.70933 46.6148 5.288C46.9601 5.86667 47.1328 6.52467 47.1328 7.262C47.1328 7.99933 46.9601 8.662 46.6148 9.25C46.2788 9.82867 45.8074 10.2813 45.2008 10.608C44.5941 10.9347 43.9081 11.098 43.1428 11.098ZM43.1428 9.6C43.7868 9.6 44.3188 9.38533 44.7388 8.956C45.1588 8.52667 45.3688 7.962 45.3688 7.262C45.3688 6.562 45.1588 5.99733 44.7388 5.568C44.3188 5.13867 43.7868 4.924 43.1428 4.924C42.4988 4.924 41.9668 5.13867 41.5468 5.568C41.1361 5.99733 40.9308 6.562 40.9308 7.262C40.9308 7.962 41.1361 8.52667 41.5468 8.956C41.9668 9.38533 42.4988 9.6 43.1428 9.6ZM52.9075 3.888C53.6169 3.888 54.2422 4.042 54.7835 4.35C55.3249 4.64867 55.7449 5.06867 56.0435 5.61C56.3515 6.15133 56.5055 6.772 56.5055 7.472C56.5055 8.19067 56.3375 8.83 56.0015 9.39C55.6655 9.94067 55.1942 10.37 54.5875 10.678C53.9809 10.986 53.2902 11.14 52.5155 11.14C51.2182 11.14 50.2149 10.7107 49.5055 9.852C48.7962 8.99333 48.4415 7.75667 48.4415 6.142C48.4415 4.63933 48.7635 3.44933 49.4075 2.572C50.0515 1.69467 51.0362 1.116 52.3615 0.836L55.8335 0.0939994L56.0855 1.662L52.9355 2.306C52.0302 2.49267 51.3535 2.81 50.9055 3.258C50.4575 3.706 50.1962 4.336 50.1215 5.148C50.4575 4.74667 50.8635 4.43867 51.3395 4.224C51.8155 4 52.3382 3.888 52.9075 3.888ZM52.5575 9.726C53.2015 9.726 53.7195 9.52067 54.1115 9.11C54.5129 8.69 54.7135 8.158 54.7135 7.514C54.7135 6.87 54.5129 6.352 54.1115 5.96C53.7195 5.568 53.2015 5.372 52.5575 5.372C51.9042 5.372 51.3769 5.568 50.9755 5.96C50.5742 6.352 50.3735 6.87 50.3735 7.514C50.3735 8.16733 50.5742 8.69933 50.9755 9.11C51.3862 9.52067 51.9135 9.726 52.5575 9.726ZM58.1994 3.524H59.9494V6.562H63.7154V3.524H65.4654V11H63.7154V8.046H59.9494V11H58.1994V3.524ZM74.8108 7.304C74.8108 7.42533 74.8014 7.598 74.7828 7.822H68.9168C69.0194 8.37267 69.2854 8.81133 69.7148 9.138C70.1534 9.45533 70.6948 9.614 71.3388 9.614C72.1601 9.614 72.8368 9.34333 73.3688 8.802L74.3068 9.88C73.9708 10.2813 73.5461 10.5847 73.0328 10.79C72.5194 10.9953 71.9408 11.098 71.2968 11.098C70.4754 11.098 69.7521 10.9347 69.1268 10.608C68.5014 10.2813 68.0161 9.82867 67.6708 9.25C67.3348 8.662 67.1668 7.99933 67.1668 7.262C67.1668 6.534 67.3301 5.88067 67.6568 5.302C67.9928 4.714 68.4548 4.25667 69.0428 3.93C69.6308 3.60333 70.2934 3.44 71.0308 3.44C71.7588 3.44 72.4074 3.60333 72.9768 3.93C73.5554 4.24733 74.0034 4.7 74.3208 5.288C74.6474 5.86667 74.8108 6.53867 74.8108 7.304ZM71.0308 4.84C70.4708 4.84 69.9948 5.008 69.6028 5.344C69.2201 5.67067 68.9868 6.10933 68.9028 6.66H73.1448C73.0701 6.11867 72.8414 5.68 72.4588 5.344C72.0761 5.008 71.6001 4.84 71.0308 4.84ZM83.7248 7.304C83.7248 7.42533 83.7155 7.598 83.6968 7.822H77.8308C77.9335 8.37267 78.1995 8.81133 78.6288 9.138C79.0675 9.45533 79.6088 9.614 80.2528 9.614C81.0742 9.614 81.7508 9.34333 82.2828 8.802L83.2208 9.88C82.8848 10.2813 82.4602 10.5847 81.9468 10.79C81.4335 10.9953 80.8548 11.098 80.2108 11.098C79.3895 11.098 78.6662 10.9347 78.0408 10.608C77.4155 10.2813 76.9302 9.82867 76.5848 9.25C76.2488 8.662 76.0808 7.99933 76.0808 7.262C76.0808 6.534 76.2442 5.88067 76.5708 5.302C76.9068 4.714 77.3688 4.25667 77.9568 3.93C78.5448 3.60333 79.2075 3.44 79.9448 3.44C80.6728 3.44 81.3215 3.60333 81.8908 3.93C82.4695 4.24733 82.9175 4.7 83.2348 5.288C83.5615 5.86667 83.7248 6.53867 83.7248 7.304ZM79.9448 4.84C79.3848 4.84 78.9088 5.008 78.5168 5.344C78.1342 5.67067 77.9008 6.10933 77.8168 6.66H82.0588C81.9842 6.11867 81.7555 5.68 81.3728 5.344C80.9902 5.008 80.5142 4.84 79.9448 4.84Z" fill="#037E8C"/>
</svg>
