<svg width="493" height="35" viewBox="0 0 493 35" fill="none" xmlns="http://www.w3.org/2000/svg">
<path d="M23.266 2.8V28H17.47V7.552H6.09402V28H0.298016V2.8H23.266ZM38.1529 28.288C36.1129 28.288 34.2769 27.868 32.6449 27.028C31.0369 26.164 29.7769 24.976 28.8649 23.464C27.9529 21.952 27.4969 20.236 27.4969 18.316C27.4969 16.396 27.9529 14.68 28.8649 13.168C29.7769 11.656 31.0369 10.48 32.6449 9.64C34.2769 8.776 36.1129 8.344 38.1529 8.344C40.1929 8.344 42.0169 8.776 43.6249 9.64C45.2329 10.48 46.4929 11.656 47.4049 13.168C48.3169 14.68 48.7729 16.396 48.7729 18.316C48.7729 20.236 48.3169 21.952 47.4049 23.464C46.4929 24.976 45.2329 26.164 43.6249 27.028C42.0169 27.868 40.1929 28.288 38.1529 28.288ZM38.1529 23.68C39.5929 23.68 40.7689 23.2 41.6809 22.24C42.6169 21.256 43.0849 19.948 43.0849 18.316C43.0849 16.684 42.6169 15.388 41.6809 14.428C40.7689 13.444 39.5929 12.952 38.1529 12.952C36.7129 12.952 35.5249 13.444 34.5889 14.428C33.6529 15.388 33.1849 16.684 33.1849 18.316C33.1849 19.948 33.6529 21.256 34.5889 22.24C35.5249 23.2 36.7129 23.68 38.1529 23.68ZM74.0623 23.392V32.176H68.8423V28H55.2343V32.176H50.0143V23.392H50.8063C52.0063 23.368 52.8343 22.66 53.2903 21.268C53.7463 19.876 54.0343 17.896 54.1543 15.328L54.4063 8.632H71.2903V23.392H74.0623ZM59.2303 15.724C59.1583 17.692 59.0023 19.3 58.7623 20.548C58.5463 21.796 58.1263 22.744 57.5023 23.392H65.6743V13.24H59.3383L59.2303 15.724ZM85.1205 8.344C88.1205 8.344 90.4245 9.064 92.0325 10.504C93.6405 11.92 94.4445 14.068 94.4445 16.948V28H89.1885V25.588C88.1325 27.388 86.1645 28.288 83.2845 28.288C81.7965 28.288 80.5005 28.036 79.3965 27.532C78.3165 27.028 77.4885 26.332 76.9125 25.444C76.3365 24.556 76.0485 23.548 76.0485 22.42C76.0485 20.62 76.7205 19.204 78.0645 18.172C79.4325 17.14 81.5325 16.624 84.3645 16.624H88.8285C88.8285 15.4 88.4565 14.464 87.7125 13.816C86.9685 13.144 85.8525 12.808 84.3645 12.808C83.3325 12.808 82.3125 12.976 81.3045 13.312C80.3205 13.624 79.4805 14.056 78.7845 14.608L76.7685 10.684C77.8245 9.94 79.0845 9.364 80.5485 8.956C82.0365 8.548 83.5605 8.344 85.1205 8.344ZM84.6885 24.508C85.6485 24.508 86.5005 24.292 87.2445 23.86C87.9885 23.404 88.5165 22.744 88.8285 21.88V19.9H84.9765C82.6725 19.9 81.5205 20.656 81.5205 22.168C81.5205 22.888 81.7965 23.464 82.3485 23.896C82.9245 24.304 83.7045 24.508 84.6885 24.508ZM110.735 8.344C112.535 8.344 114.167 8.764 115.631 9.604C117.119 10.42 118.283 11.584 119.123 13.096C119.963 14.584 120.383 16.324 120.383 18.316C120.383 20.308 119.963 22.06 119.123 23.572C118.283 25.06 117.119 26.224 115.631 27.064C114.167 27.88 112.535 28.288 110.735 28.288C108.263 28.288 106.319 27.508 104.903 25.948V34.984H99.287V8.632H104.651V10.864C106.043 9.184 108.071 8.344 110.735 8.344ZM109.763 23.68C111.203 23.68 112.379 23.2 113.291 22.24C114.227 21.256 114.695 19.948 114.695 18.316C114.695 16.684 114.227 15.388 113.291 14.428C112.379 13.444 111.203 12.952 109.763 12.952C108.323 12.952 107.135 13.444 106.199 14.428C105.287 15.388 104.831 16.684 104.831 18.316C104.831 19.948 105.287 21.256 106.199 22.24C107.135 23.2 108.323 23.68 109.763 23.68ZM133.391 28.288C131.351 28.288 129.515 27.868 127.883 27.028C126.275 26.164 125.015 24.976 124.103 23.464C123.191 21.952 122.735 20.236 122.735 18.316C122.735 16.396 123.191 14.68 124.103 13.168C125.015 11.656 126.275 10.48 127.883 9.64C129.515 8.776 131.351 8.344 133.391 8.344C135.431 8.344 137.255 8.776 138.863 9.64C140.471 10.48 141.731 11.656 142.643 13.168C143.555 14.68 144.011 16.396 144.011 18.316C144.011 20.236 143.555 21.952 142.643 23.464C141.731 24.976 140.471 26.164 138.863 27.028C137.255 27.868 135.431 28.288 133.391 28.288ZM133.391 23.68C134.831 23.68 136.007 23.2 136.919 22.24C137.855 21.256 138.323 19.948 138.323 18.316C138.323 16.684 137.855 15.388 136.919 14.428C136.007 13.444 134.831 12.952 133.391 12.952C131.951 12.952 130.763 13.444 129.827 14.428C128.891 15.388 128.423 16.684 128.423 18.316C128.423 19.948 128.891 21.256 129.827 22.24C130.763 23.2 131.951 23.68 133.391 23.68ZM165.298 8.632V28H159.682V20.8C158.05 21.616 156.25 22.024 154.282 22.024C151.666 22.024 149.686 21.436 148.342 20.26C147.022 19.06 146.362 17.212 146.362 14.716V8.632H151.978V14.356C151.978 15.532 152.278 16.384 152.878 16.912C153.502 17.44 154.39 17.704 155.542 17.704C157.006 17.704 158.386 17.392 159.682 16.768V8.632H165.298ZM170.69 8.632H176.27V16.192H184.694V8.632H190.31V28H184.694V20.764H176.27V28H170.69V8.632ZM205.874 14.824C208.394 14.848 210.302 15.412 211.598 16.516C212.894 17.62 213.542 19.204 213.542 21.268C213.542 23.428 212.81 25.096 211.346 26.272C209.882 27.448 207.806 28.036 205.118 28.036L195.686 28V8.632H201.266V14.824H205.874ZM215.63 8.632H221.21V28H215.63V8.632ZM204.614 24.04C205.694 24.064 206.522 23.836 207.098 23.356C207.674 22.876 207.962 22.156 207.962 21.196C207.962 20.26 207.674 19.576 207.098 19.144C206.546 18.712 205.718 18.484 204.614 18.46L201.266 18.424V24.04H204.614ZM226.624 8.632H232.204V20.152L241.636 8.632H246.784V28H241.204V16.48L231.808 28H226.624V8.632ZM236.344 6.544C232.12 6.544 229.996 4.684 229.972 0.963998H233.644C233.668 1.804 233.896 2.464 234.328 2.944C234.784 3.4 235.444 3.628 236.308 3.628C237.172 3.628 237.832 3.4 238.288 2.944C238.768 2.464 239.008 1.804 239.008 0.963998H242.752C242.728 4.684 240.592 6.544 236.344 6.544ZM271.594 28.288C269.53 28.288 267.67 27.868 266.014 27.028C264.382 26.164 263.098 24.976 262.162 23.464C261.25 21.952 260.794 20.236 260.794 18.316C260.794 16.396 261.25 14.68 262.162 13.168C263.098 11.656 264.382 10.48 266.014 9.64C267.67 8.776 269.53 8.344 271.594 8.344C273.634 8.344 275.41 8.776 276.922 9.64C278.458 10.48 279.574 11.692 280.27 13.276L275.914 15.616C274.906 13.84 273.454 12.952 271.558 12.952C270.094 12.952 268.882 13.432 267.922 14.392C266.962 15.352 266.482 16.66 266.482 18.316C266.482 19.972 266.962 21.28 267.922 22.24C268.882 23.2 270.094 23.68 271.558 23.68C273.478 23.68 274.93 22.792 275.914 21.016L280.27 23.392C279.574 24.928 278.458 26.128 276.922 26.992C275.41 27.856 273.634 28.288 271.594 28.288ZM302.264 18.388C302.264 18.46 302.228 18.964 302.156 19.9H287.504C287.768 21.1 288.392 22.048 289.376 22.744C290.36 23.44 291.584 23.788 293.048 23.788C294.056 23.788 294.944 23.644 295.712 23.356C296.504 23.044 297.236 22.564 297.908 21.916L300.896 25.156C299.072 27.244 296.408 28.288 292.904 28.288C290.72 28.288 288.788 27.868 287.108 27.028C285.428 26.164 284.132 24.976 283.22 23.464C282.308 21.952 281.852 20.236 281.852 18.316C281.852 16.42 282.296 14.716 283.184 13.204C284.096 11.668 285.332 10.48 286.892 9.64C288.476 8.776 290.24 8.344 292.184 8.344C294.08 8.344 295.796 8.752 297.332 9.568C298.868 10.384 300.068 11.56 300.932 13.096C301.82 14.608 302.264 16.372 302.264 18.388ZM292.22 12.592C290.948 12.592 289.88 12.952 289.016 13.672C288.152 14.392 287.624 15.376 287.432 16.624H296.972C296.78 15.4 296.252 14.428 295.388 13.708C294.524 12.964 293.468 12.592 292.22 12.592ZM317.981 8.344C319.781 8.344 321.413 8.764 322.877 9.604C324.365 10.42 325.529 11.584 326.369 13.096C327.209 14.584 327.629 16.324 327.629 18.316C327.629 20.308 327.209 22.06 326.369 23.572C325.529 25.06 324.365 26.224 322.877 27.064C321.413 27.88 319.781 28.288 317.981 28.288C315.509 28.288 313.565 27.508 312.149 25.948V34.984H306.533V8.632H311.897V10.864C313.289 9.184 315.317 8.344 317.981 8.344ZM317.009 23.68C318.449 23.68 319.625 23.2 320.537 22.24C321.473 21.256 321.941 19.948 321.941 18.316C321.941 16.684 321.473 15.388 320.537 14.428C319.625 13.444 318.449 12.952 317.009 12.952C315.569 12.952 314.381 13.444 313.445 14.428C312.533 15.388 312.077 16.684 312.077 18.316C312.077 19.948 312.533 21.256 313.445 22.24C314.381 23.2 315.569 23.68 317.009 23.68ZM347.134 13.24H340.582V28H335.002V13.24H328.45V8.632H347.134V13.24ZM350.128 8.632H355.708V20.152L365.14 8.632H370.288V28H364.708V16.48L355.312 28H350.128V8.632ZM402.434 18.244C402.434 21.244 401.426 23.62 399.41 25.372C397.418 27.1 394.562 28.096 390.842 28.36V34.984H385.694V28.36C381.974 28.096 379.106 27.112 377.09 25.408C375.098 23.68 374.102 21.292 374.102 18.244C374.102 15.244 375.086 12.916 377.054 11.26C379.046 9.604 381.926 8.644 385.694 8.38V1.288H390.842V8.38C394.562 8.644 397.418 9.616 399.41 11.296C401.426 12.976 402.434 15.292 402.434 18.244ZM379.538 18.244C379.538 19.972 380.03 21.304 381.014 22.24C381.998 23.176 383.558 23.764 385.694 24.004V12.736C383.558 12.952 381.998 13.516 381.014 14.428C380.03 15.316 379.538 16.588 379.538 18.244ZM390.842 24.004C392.978 23.764 394.538 23.176 395.522 22.24C396.53 21.304 397.034 19.972 397.034 18.244C397.034 16.588 396.53 15.316 395.522 14.428C394.538 13.516 392.978 12.952 390.842 12.736V24.004ZM406.237 8.632H411.817V20.152L421.249 8.632H426.397V28H420.817V16.48L411.421 28H406.237V8.632ZM440.328 20.656H437.412V28H431.796V8.632H437.412V16.156H440.436L445.692 8.632H451.668L444.9 17.92L452.136 28H445.512L440.328 20.656ZM462.066 8.344C465.066 8.344 467.37 9.064 468.978 10.504C470.586 11.92 471.39 14.068 471.39 16.948V28H466.134V25.588C465.078 27.388 463.11 28.288 460.23 28.288C458.742 28.288 457.446 28.036 456.342 27.532C455.262 27.028 454.434 26.332 453.858 25.444C453.282 24.556 452.994 23.548 452.994 22.42C452.994 20.62 453.666 19.204 455.01 18.172C456.378 17.14 458.478 16.624 461.31 16.624H465.774C465.774 15.4 465.402 14.464 464.658 13.816C463.914 13.144 462.798 12.808 461.31 12.808C460.278 12.808 459.258 12.976 458.25 13.312C457.266 13.624 456.426 14.056 455.73 14.608L453.714 10.684C454.77 9.94 456.03 9.364 457.494 8.956C458.982 8.548 460.506 8.344 462.066 8.344ZM461.634 24.508C462.594 24.508 463.446 24.292 464.19 23.86C464.934 23.404 465.462 22.744 465.774 21.88V19.9H461.922C459.618 19.9 458.466 20.656 458.466 22.168C458.466 22.888 458.742 23.464 459.294 23.896C459.87 24.304 460.65 24.508 461.634 24.508ZM492.54 13.24H485.988V28H480.408V13.24H473.856V8.632H492.54V13.24Z" fill="#151515"/>
</svg>
