<svg width="365" height="38" viewBox="0 0 365 38" fill="none" xmlns="http://www.w3.org/2000/svg">
<path d="M18.872 36.768C15.32 36.768 12.12 36.032 9.272 34.56C6.424 33.056 4.184 30.976 2.552 28.32C0.952 25.632 0.152 22.592 0.152 19.2C0.152 15.808 0.952 12.784 2.552 10.128C4.184 7.44 6.424 5.36 9.272 3.888C12.12 2.384 15.32 1.632 18.872 1.632C22.136 1.632 25.048 2.208 27.608 3.36C30.168 4.512 32.28 6.176 33.944 8.352L26.792 14.736C24.712 12.112 22.264 10.8 19.448 10.8C17.08 10.8 15.176 11.568 13.736 13.104C12.296 14.608 11.576 16.64 11.576 19.2C11.576 21.76 12.296 23.808 13.736 25.344C15.176 26.848 17.08 27.6 19.448 27.6C22.264 27.6 24.712 26.288 26.792 23.664L33.944 30.048C32.28 32.224 30.168 33.888 27.608 35.04C25.048 36.192 22.136 36.768 18.872 36.768ZM65.3026 27.456V36H37.3666V2.4H64.6786V10.944H48.5026V14.88H62.7106V23.04H48.5026V27.456H65.3026ZM86.0739 2.4C89.1779 2.4 91.8819 2.912 94.1859 3.936C96.4899 4.96 98.2659 6.432 99.5139 8.352C100.762 10.272 101.386 12.512 101.386 15.072C101.386 17.632 100.762 19.872 99.5139 21.792C98.2659 23.712 96.4899 25.184 94.1859 26.208C91.8819 27.232 89.1779 27.744 86.0739 27.744H81.2259V36H69.8979V2.4H86.0739ZM85.3539 19.008C86.8899 19.008 88.0419 18.672 88.8099 18C89.5779 17.296 89.9619 16.32 89.9619 15.072C89.9619 13.824 89.5779 12.864 88.8099 12.192C88.0419 11.488 86.8899 11.136 85.3539 11.136H81.2259V19.008H85.3539ZM132.678 11.184H122.838V36H111.702V11.184H101.862V2.4H132.678V11.184ZM136.414 2.4H147.549V19.872L159.118 2.4H169.774V36H158.638V18.576L147.118 36H136.414V2.4ZM218.75 19.056C218.75 23.472 217.278 26.976 214.334 29.568C211.39 32.128 207.102 33.6 201.47 33.984V37.728H191.102V33.936C185.438 33.456 181.134 31.952 178.19 29.424C175.278 26.896 173.822 23.44 173.822 19.056C173.822 14.672 175.278 11.232 178.19 8.736C181.134 6.208 185.438 4.704 191.102 4.224V0.719999H201.47V4.224C207.134 4.64 211.422 6.128 214.334 8.688C217.278 11.216 218.75 14.672 218.75 19.056ZM201.47 25.152C203.71 24.832 205.326 24.192 206.318 23.232C207.31 22.24 207.806 20.832 207.806 19.008C207.806 17.216 207.294 15.84 206.27 14.88C205.278 13.92 203.678 13.28 201.47 12.96V25.152ZM184.766 19.056C184.766 20.816 185.278 22.176 186.302 23.136C187.358 24.096 188.958 24.752 191.102 25.104V13.008C188.83 13.328 187.198 13.968 186.206 14.928C185.246 15.856 184.766 17.232 184.766 19.056ZM222.804 2.4H233.94V19.872L245.508 2.4H256.164V36H245.028V18.576L233.508 36H222.804V2.4ZM285.604 18.72L295.54 36H282.772L276.34 23.856H273.172V36H261.844V2.4H273.172V14.928H276.628L283.78 2.4H295.588L285.604 18.72ZM320.626 30.144H307.858L305.602 36H294.082L308.77 2.4H319.906L334.594 36H322.882L320.626 30.144ZM317.506 21.984L314.242 13.536L310.978 21.984H317.506ZM364.615 11.184H354.775V36H343.639V11.184H333.799V2.4H364.615V11.184Z" fill="#121214"/>
</svg>
