<svg width="245" height="63" viewBox="0 0 245 63" fill="none" xmlns="http://www.w3.org/2000/svg">
<path d="M13.976 26.504C11.336 26.504 8.96 25.952 6.848 24.848C4.76 23.72 3.116 22.16 1.916 20.168C0.716 18.176 0.116 15.92 0.116 13.4C0.116 10.88 0.716 8.624 1.916 6.632C3.116 4.64 4.76 3.092 6.848 1.988C8.96 0.859998 11.336 0.295998 13.976 0.295998C16.28 0.295998 18.356 0.703999 20.204 1.52C22.052 2.336 23.588 3.512 24.812 5.048L20.276 9.152C18.644 7.184 16.664 6.2 14.336 6.2C12.968 6.2 11.744 6.5 10.664 7.1C9.608 7.7 8.78 8.552 8.18 9.656C7.604 10.736 7.316 11.984 7.316 13.4C7.316 14.816 7.604 16.076 8.18 17.18C8.78 18.26 9.608 19.1 10.664 19.7C11.744 20.3 12.968 20.6 14.336 20.6C16.664 20.6 18.644 19.616 20.276 17.648L24.812 21.752C23.588 23.288 22.052 24.464 20.204 25.28C18.356 26.096 16.28 26.504 13.976 26.504ZM36.78 19.052H34.476V26H27.636V6.488H34.476V13.688H36.924L41.712 6.488H48.948L42.396 15.848L49.38 26H41.316L36.78 19.052ZM51.6478 6.488H58.4518V16.712L66.6238 6.488H72.9238V26H66.0838V15.74L57.9838 26H51.6478V6.488ZM100.599 20.528V30.032H94.2628V26H81.9868V30.032H75.6148V20.528H76.3348C77.5108 20.504 78.3268 19.868 78.7828 18.62C79.2388 17.348 79.5148 15.572 79.6108 13.292L79.8628 6.488H97.8988V20.528H100.599ZM85.7668 13.796C85.6948 15.548 85.5628 16.952 85.3708 18.008C85.1788 19.064 84.8188 19.904 84.2908 20.528H91.0588V11.924H85.8388L85.7668 13.796ZM112.682 19.052H110.378V26H103.538V6.488H110.378V13.688H112.826L117.614 6.488H124.85L118.298 15.848L125.282 26H117.218L112.682 19.052ZM135.155 6.164C138.395 6.164 140.867 6.908 142.571 8.396C144.275 9.86 145.127 12.116 145.127 15.164V26H138.755V23.48C137.771 25.376 135.851 26.324 132.995 26.324C131.483 26.324 130.175 26.06 129.071 25.532C127.967 25.004 127.127 24.296 126.551 23.408C125.999 22.496 125.723 21.464 125.723 20.312C125.723 18.464 126.431 17.036 127.847 16.028C129.263 14.996 131.447 14.48 134.399 14.48H138.287C138.167 12.416 136.787 11.384 134.147 11.384C133.211 11.384 132.263 11.54 131.303 11.852C130.343 12.14 129.527 12.548 128.855 13.076L126.551 8.432C127.631 7.712 128.939 7.16 130.475 6.776C132.035 6.368 133.595 6.164 135.155 6.164ZM134.903 22.004C135.695 22.004 136.391 21.812 136.991 21.428C137.591 21.044 138.023 20.48 138.287 19.736V18.044H135.335C133.343 18.044 132.347 18.704 132.347 20.024C132.347 20.624 132.575 21.104 133.031 21.464C133.487 21.824 134.111 22.004 134.903 22.004ZM169.438 0.799998V26H162.31V6.308H157.63V0.799998H169.438ZM184.352 26.504C182.192 26.504 180.272 25.988 178.592 24.956C176.912 23.924 175.592 22.424 174.632 20.456C173.696 18.464 173.228 16.112 173.228 13.4C173.228 10.688 173.696 8.348 174.632 6.38C175.592 4.388 176.912 2.876 178.592 1.844C180.272 0.811999 182.192 0.295998 184.352 0.295998C186.488 0.295998 188.396 0.811999 190.076 1.844C191.756 2.876 193.064 4.388 194 6.38C194.96 8.348 195.44 10.688 195.44 13.4C195.44 16.112 194.96 18.464 194 20.456C193.064 22.424 191.756 23.924 190.076 24.956C188.396 25.988 186.488 26.504 184.352 26.504ZM184.352 20.672C185.552 20.672 186.5 20.096 187.196 18.944C187.916 17.768 188.276 15.92 188.276 13.4C188.276 10.88 187.916 9.044 187.196 7.892C186.5 6.716 185.552 6.128 184.352 6.128C183.128 6.128 182.156 6.716 181.436 7.892C180.74 9.044 180.392 10.88 180.392 13.4C180.392 15.92 180.74 17.768 181.436 18.944C182.156 20.096 183.128 20.672 184.352 20.672ZM203.884 14.444C201.988 14.444 200.44 13.82 199.24 12.572C198.04 11.324 197.44 9.62 197.44 7.46C197.44 6.044 197.716 4.808 198.268 3.752C198.82 2.696 199.576 1.892 200.536 1.34C201.52 0.763998 202.636 0.475998 203.884 0.475998C205.804 0.475998 207.364 1.112 208.564 2.384C209.764 3.632 210.364 5.324 210.364 7.46C210.364 9.62 209.764 11.324 208.564 12.572C207.364 13.82 205.804 14.444 203.884 14.444ZM218.788 0.799998H223.972L206.764 26H201.58L218.788 0.799998ZM203.884 11.024C204.532 11.024 205.048 10.736 205.432 10.16C205.816 9.584 206.008 8.684 206.008 7.46C206.008 6.236 205.816 5.336 205.432 4.76C205.048 4.184 204.532 3.896 203.884 3.896C203.26 3.896 202.744 4.196 202.336 4.796C201.952 5.372 201.76 6.26 201.76 7.46C201.76 8.66 201.952 9.56 202.336 10.16C202.744 10.736 203.26 11.024 203.884 11.024ZM221.668 26.324C219.748 26.324 218.188 25.7 216.988 24.452C215.812 23.204 215.224 21.5 215.224 19.34C215.224 17.204 215.824 15.512 217.024 14.264C218.224 12.992 219.772 12.356 221.668 12.356C223.588 12.356 225.148 12.992 226.348 14.264C227.548 15.512 228.148 17.204 228.148 19.34C228.148 21.5 227.548 23.204 226.348 24.452C225.148 25.7 223.588 26.324 221.668 26.324ZM221.668 22.904C222.316 22.904 222.832 22.616 223.216 22.04C223.6 21.464 223.792 20.564 223.792 19.34C223.792 18.116 223.6 17.216 223.216 16.64C222.832 16.064 222.316 15.776 221.668 15.776C221.02 15.776 220.504 16.064 220.12 16.64C219.736 17.216 219.544 18.116 219.544 19.34C219.544 20.564 219.736 21.464 220.12 22.04C220.504 22.616 221.02 22.904 221.668 22.904ZM0.8 46.088H4.52V51.128H10.136V46.088H13.88V59H10.136V54.176H4.52V59H0.8V46.088ZM22.4801 45.896C24.4801 45.896 26.0161 46.376 27.0881 47.336C28.1601 48.28 28.6961 49.712 28.6961 51.632V59H25.1921V57.392C24.4881 58.592 23.1761 59.192 21.2561 59.192C20.2641 59.192 19.4001 59.024 18.6641 58.688C17.9441 58.352 17.3921 57.888 17.0081 57.296C16.6241 56.704 16.4321 56.032 16.4321 55.28C16.4321 54.08 16.8801 53.136 17.7761 52.448C18.6881 51.76 20.0881 51.416 21.9761 51.416H24.9521C24.9521 50.6 24.7041 49.976 24.2081 49.544C23.7121 49.096 22.9681 48.872 21.9761 48.872C21.2881 48.872 20.6081 48.984 19.9361 49.208C19.2801 49.416 18.7201 49.704 18.2561 50.072L16.9121 47.456C17.6161 46.96 18.4561 46.576 19.4321 46.304C20.4241 46.032 21.4401 45.896 22.4801 45.896ZM22.1921 56.672C22.8321 56.672 23.4001 56.528 23.8961 56.24C24.3921 55.936 24.7441 55.496 24.9521 54.92V53.6H22.3841C20.8481 53.6 20.0801 54.104 20.0801 55.112C20.0801 55.592 20.2641 55.976 20.6321 56.264C21.0161 56.536 21.5361 56.672 22.1921 56.672ZM56.3613 55.832V62.48H52.7613V59H40.9053V62.48H37.3053L37.3293 55.832H38.0013C39.0093 55.8 39.7213 55.064 40.1373 53.624C40.5533 52.184 40.8093 50.128 40.9053 47.456L41.0973 42.2H54.0093V55.832H56.3613ZM44.3373 47.816C44.2573 49.816 44.0893 51.496 43.8333 52.856C43.5773 54.2 43.1853 55.192 42.6573 55.832H50.1693V45.368H44.4093L44.3373 47.816ZM71.0786 52.592C71.0786 52.64 71.0546 52.976 71.0066 53.6H61.2386C61.4146 54.4 61.8306 55.032 62.4866 55.496C63.1426 55.96 63.9586 56.192 64.9346 56.192C65.6066 56.192 66.1986 56.096 66.7106 55.904C67.2386 55.696 67.7266 55.376 68.1746 54.944L70.1666 57.104C68.9506 58.496 67.1746 59.192 64.8386 59.192C63.3826 59.192 62.0946 58.912 60.9746 58.352C59.8546 57.776 58.9906 56.984 58.3826 55.976C57.7746 54.968 57.4706 53.824 57.4706 52.544C57.4706 51.28 57.7666 50.144 58.3586 49.136C58.9666 48.112 59.7906 47.32 60.8306 46.76C61.8866 46.184 63.0626 45.896 64.3586 45.896C65.6226 45.896 66.7666 46.168 67.7906 46.712C68.8146 47.256 69.6146 48.04 70.1906 49.064C70.7826 50.072 71.0786 51.248 71.0786 52.592ZM64.3826 48.728C63.5346 48.728 62.8226 48.968 62.2466 49.448C61.6706 49.928 61.3186 50.584 61.1906 51.416H67.5506C67.4226 50.6 67.0706 49.952 66.4946 49.472C65.9186 48.976 65.2146 48.728 64.3826 48.728ZM73.9484 46.088H77.6684V51.128H83.2844V46.088H87.0284V59H83.2844V54.176H77.6684V59H73.9484V46.088ZM97.5965 50.216C99.2765 50.232 100.565 50.616 101.461 51.368C102.357 52.104 102.805 53.152 102.805 54.512C102.805 55.936 102.301 57.048 101.293 57.848C100.301 58.632 98.9005 59.024 97.0925 59.024L90.6125 59V46.088H94.3325V50.216H97.5965ZM96.7565 56.36C97.4765 56.376 98.0285 56.224 98.4125 55.904C98.7965 55.584 98.9885 55.104 98.9885 54.464C98.9885 53.84 98.7965 53.384 98.4125 53.096C98.0445 52.808 97.4925 52.656 96.7565 52.64L94.3325 52.616V56.36H96.7565ZM119.501 42.2C120.989 42.2 122.277 42.448 123.365 42.944C124.469 43.44 125.317 44.144 125.909 45.056C126.501 45.968 126.797 47.048 126.797 48.296C126.797 49.528 126.501 50.608 125.909 51.536C125.317 52.448 124.469 53.152 123.365 53.648C122.277 54.128 120.989 54.368 119.501 54.368H116.117V59H112.229V42.2H119.501ZM119.285 51.2C120.453 51.2 121.341 50.952 121.949 50.456C122.557 49.944 122.861 49.224 122.861 48.296C122.861 47.352 122.557 46.632 121.949 46.136C121.341 45.624 120.453 45.368 119.285 45.368H116.117V51.2H119.285ZM135.098 59.192C133.738 59.192 132.514 58.912 131.426 58.352C130.354 57.776 129.514 56.984 128.906 55.976C128.298 54.968 127.994 53.824 127.994 52.544C127.994 51.264 128.298 50.12 128.906 49.112C129.514 48.104 130.354 47.32 131.426 46.76C132.514 46.184 133.738 45.896 135.098 45.896C136.458 45.896 137.674 46.184 138.746 46.76C139.818 47.32 140.658 48.104 141.266 49.112C141.874 50.12 142.178 51.264 142.178 52.544C142.178 53.824 141.874 54.968 141.266 55.976C140.658 56.984 139.818 57.776 138.746 58.352C137.674 58.912 136.458 59.192 135.098 59.192ZM135.098 56.12C136.058 56.12 136.842 55.8 137.45 55.16C138.074 54.504 138.386 53.632 138.386 52.544C138.386 51.456 138.074 50.592 137.45 49.952C136.842 49.296 136.058 48.968 135.098 48.968C134.138 48.968 133.346 49.296 132.722 49.952C132.098 50.592 131.786 51.456 131.786 52.544C131.786 53.632 132.098 54.504 132.722 55.16C133.346 55.8 134.138 56.12 135.098 56.12ZM157.147 54.104H155.347V59H151.651V54.104H149.851L147.115 59H142.699L146.755 52.328L142.987 46.088H146.947L149.803 51.104H151.651V46.088H155.347V51.104H157.171L160.051 46.088H164.011L160.243 52.328L164.323 59H159.883L157.147 54.104ZM180.741 55.928V61.784H177.261V59H168.189V61.784H164.709V55.928H165.237C166.037 55.912 166.589 55.44 166.893 54.512C167.197 53.584 167.389 52.264 167.469 50.552L167.637 46.088H178.893V55.928H180.741ZM170.853 50.816C170.805 52.128 170.701 53.2 170.541 54.032C170.397 54.864 170.117 55.496 169.701 55.928H175.149V49.16H170.925L170.853 50.816ZM195.649 52.592C195.649 52.64 195.625 52.976 195.577 53.6H185.809C185.985 54.4 186.401 55.032 187.057 55.496C187.713 55.96 188.529 56.192 189.505 56.192C190.177 56.192 190.769 56.096 191.281 55.904C191.809 55.696 192.297 55.376 192.745 54.944L194.737 57.104C193.521 58.496 191.745 59.192 189.409 59.192C187.953 59.192 186.665 58.912 185.545 58.352C184.425 57.776 183.561 56.984 182.953 55.976C182.345 54.968 182.041 53.824 182.041 52.544C182.041 51.28 182.337 50.144 182.929 49.136C183.537 48.112 184.361 47.32 185.401 46.76C186.457 46.184 187.633 45.896 188.929 45.896C190.193 45.896 191.337 46.168 192.361 46.712C193.385 47.256 194.185 48.04 194.761 49.064C195.353 50.072 195.649 51.248 195.649 52.592ZM188.953 48.728C188.105 48.728 187.393 48.968 186.817 49.448C186.241 49.928 185.889 50.584 185.761 51.416H192.121C191.993 50.6 191.641 49.952 191.065 49.472C190.489 48.976 189.785 48.728 188.953 48.728ZM198.519 46.088H202.239V51.128H207.855V46.088H211.599V59H207.855V54.176H202.239V59H198.519V46.088ZM215.183 46.088H218.903V53.768L225.191 46.088H228.623V59H224.903V51.32L218.639 59H215.183V46.088ZM244.774 52.592C244.774 52.64 244.75 52.976 244.702 53.6H234.934C235.11 54.4 235.526 55.032 236.182 55.496C236.838 55.96 237.654 56.192 238.63 56.192C239.302 56.192 239.894 56.096 240.406 55.904C240.934 55.696 241.422 55.376 241.87 54.944L243.862 57.104C242.646 58.496 240.87 59.192 238.534 59.192C237.078 59.192 235.79 58.912 234.67 58.352C233.55 57.776 232.686 56.984 232.078 55.976C231.47 54.968 231.166 53.824 231.166 52.544C231.166 51.28 231.462 50.144 232.054 49.136C232.662 48.112 233.486 47.32 234.526 46.76C235.582 46.184 236.758 45.896 238.054 45.896C239.318 45.896 240.462 46.168 241.486 46.712C242.51 47.256 243.31 48.04 243.886 49.064C244.478 50.072 244.774 51.248 244.774 52.592ZM238.078 48.728C237.23 48.728 236.518 48.968 235.942 49.448C235.366 49.928 235.014 50.584 234.886 51.416H241.246C241.118 50.6 240.766 49.952 240.19 49.472C239.614 48.976 238.91 48.728 238.078 48.728Z" fill="#037E8C"/>
</svg>
