<svg width="229" height="31" viewBox="0 0 229 31" fill="none" xmlns="http://www.w3.org/2000/svg">
<path d="M13.976 26.504C11.336 26.504 8.96 25.952 6.848 24.848C4.76 23.72 3.116 22.16 1.916 20.168C0.716 18.176 0.116 15.92 0.116 13.4C0.116 10.88 0.716 8.624 1.916 6.632C3.116 4.64 4.76 3.092 6.848 1.988C8.96 0.859998 11.336 0.295998 13.976 0.295998C16.28 0.295998 18.356 0.703999 20.204 1.52C22.052 2.336 23.588 3.512 24.812 5.048L20.276 9.152C18.644 7.184 16.664 6.2 14.336 6.2C12.968 6.2 11.744 6.5 10.664 7.1C9.608 7.7 8.78 8.552 8.18 9.656C7.604 10.736 7.316 11.984 7.316 13.4C7.316 14.816 7.604 16.076 8.18 17.18C8.78 18.26 9.608 19.1 10.664 19.7C11.744 20.3 12.968 20.6 14.336 20.6C16.664 20.6 18.644 19.616 20.276 17.648L24.812 21.752C23.588 23.288 22.052 24.464 20.204 25.28C18.356 26.096 16.28 26.504 13.976 26.504ZM36.78 19.052H34.476V26H27.636V6.488H34.476V13.688H36.924L41.712 6.488H48.948L42.396 15.848L49.38 26H41.316L36.78 19.052ZM51.6478 6.488H58.4518V16.712L66.6238 6.488H72.9238V26H66.0838V15.74L57.9838 26H51.6478V6.488ZM100.599 20.528V30.032H94.2628V26H81.9868V30.032H75.6148V20.528H76.3348C77.5108 20.504 78.3268 19.868 78.7828 18.62C79.2388 17.348 79.5148 15.572 79.6108 13.292L79.8628 6.488H97.8988V20.528H100.599ZM85.7668 13.796C85.6948 15.548 85.5628 16.952 85.3708 18.008C85.1788 19.064 84.8188 19.904 84.2908 20.528H91.0588V11.924H85.8388L85.7668 13.796ZM112.682 19.052H110.378V26H103.538V6.488H110.378V13.688H112.826L117.614 6.488H124.85L118.298 15.848L125.282 26H117.218L112.682 19.052ZM135.155 6.164C138.395 6.164 140.867 6.908 142.571 8.396C144.275 9.86 145.127 12.116 145.127 15.164V26H138.755V23.48C137.771 25.376 135.851 26.324 132.995 26.324C131.483 26.324 130.175 26.06 129.071 25.532C127.967 25.004 127.127 24.296 126.551 23.408C125.999 22.496 125.723 21.464 125.723 20.312C125.723 18.464 126.431 17.036 127.847 16.028C129.263 14.996 131.447 14.48 134.399 14.48H138.287C138.167 12.416 136.787 11.384 134.147 11.384C133.211 11.384 132.263 11.54 131.303 11.852C130.343 12.14 129.527 12.548 128.855 13.076L126.551 8.432C127.631 7.712 128.939 7.16 130.475 6.776C132.035 6.368 133.595 6.164 135.155 6.164ZM134.903 22.004C135.695 22.004 136.391 21.812 136.991 21.428C137.591 21.044 138.023 20.48 138.287 19.736V18.044H135.335C133.343 18.044 132.347 18.704 132.347 20.024C132.347 20.624 132.575 21.104 133.031 21.464C133.487 21.824 134.111 22.004 134.903 22.004ZM169.438 0.799998V26H162.31V6.308H157.63V0.799998H169.438ZM184.352 26.504C182.192 26.504 180.272 25.988 178.592 24.956C176.912 23.924 175.592 22.424 174.632 20.456C173.696 18.464 173.228 16.112 173.228 13.4C173.228 10.688 173.696 8.348 174.632 6.38C175.592 4.388 176.912 2.876 178.592 1.844C180.272 0.811999 182.192 0.295998 184.352 0.295998C186.488 0.295998 188.396 0.811999 190.076 1.844C191.756 2.876 193.064 4.388 194 6.38C194.96 8.348 195.44 10.688 195.44 13.4C195.44 16.112 194.96 18.464 194 20.456C193.064 22.424 191.756 23.924 190.076 24.956C188.396 25.988 186.488 26.504 184.352 26.504ZM184.352 20.672C185.552 20.672 186.5 20.096 187.196 18.944C187.916 17.768 188.276 15.92 188.276 13.4C188.276 10.88 187.916 9.044 187.196 7.892C186.5 6.716 185.552 6.128 184.352 6.128C183.128 6.128 182.156 6.716 181.436 7.892C180.74 9.044 180.392 10.88 180.392 13.4C180.392 15.92 180.74 17.768 181.436 18.944C182.156 20.096 183.128 20.672 184.352 20.672ZM203.884 14.444C201.988 14.444 200.44 13.82 199.24 12.572C198.04 11.324 197.44 9.62 197.44 7.46C197.44 6.044 197.716 4.808 198.268 3.752C198.82 2.696 199.576 1.892 200.536 1.34C201.52 0.763998 202.636 0.475998 203.884 0.475998C205.804 0.475998 207.364 1.112 208.564 2.384C209.764 3.632 210.364 5.324 210.364 7.46C210.364 9.62 209.764 11.324 208.564 12.572C207.364 13.82 205.804 14.444 203.884 14.444ZM218.788 0.799998H223.972L206.764 26H201.58L218.788 0.799998ZM203.884 11.024C204.532 11.024 205.048 10.736 205.432 10.16C205.816 9.584 206.008 8.684 206.008 7.46C206.008 6.236 205.816 5.336 205.432 4.76C205.048 4.184 204.532 3.896 203.884 3.896C203.26 3.896 202.744 4.196 202.336 4.796C201.952 5.372 201.76 6.26 201.76 7.46C201.76 8.66 201.952 9.56 202.336 10.16C202.744 10.736 203.26 11.024 203.884 11.024ZM221.668 26.324C219.748 26.324 218.188 25.7 216.988 24.452C215.812 23.204 215.224 21.5 215.224 19.34C215.224 17.204 215.824 15.512 217.024 14.264C218.224 12.992 219.772 12.356 221.668 12.356C223.588 12.356 225.148 12.992 226.348 14.264C227.548 15.512 228.148 17.204 228.148 19.34C228.148 21.5 227.548 23.204 226.348 24.452C225.148 25.7 223.588 26.324 221.668 26.324ZM221.668 22.904C222.316 22.904 222.832 22.616 223.216 22.04C223.6 21.464 223.792 20.564 223.792 19.34C223.792 18.116 223.6 17.216 223.216 16.64C222.832 16.064 222.316 15.776 221.668 15.776C221.02 15.776 220.504 16.064 220.12 16.64C219.736 17.216 219.544 18.116 219.544 19.34C219.544 20.564 219.736 21.464 220.12 22.04C220.504 22.616 221.02 22.904 221.668 22.904Z" fill="#037E8C"/>
</svg>
