<svg width="18" height="21" viewBox="0 0 18 21" fill="none" xmlns="http://www.w3.org/2000/svg">
<path d="M16.0272 9.296V4.996C16.0202 4.54446 15.9515 4.09598 15.8232 3.663C15.4951 2.51832 14.7689 1.52848 13.7755 0.871864C12.7821 0.215245 11.5869 -0.0649701 10.4052 0.0817182C9.22345 0.228407 8.13299 0.792351 7.3303 1.67192C6.52761 2.55149 6.06548 3.68884 6.02718 4.879V5.127L6.01718 5.997V15.949H6.01318V15.99C6.01318 16.5204 5.80247 17.0291 5.4274 17.4042C5.05232 17.7793 4.54362 17.99 4.01318 17.99C3.48275 17.99 2.97404 17.7793 2.59897 17.4042C2.2239 17.0291 2.01318 16.5204 2.01318 15.99C2.01318 15.978 2.01618 15.966 2.01718 15.953H2.01318V14.01H0.0131836V16.01H0.0151834C0.0158465 17.0703 0.437699 18.087 1.18794 18.8363C1.93818 19.5856 2.95535 20.0062 4.01568 20.0055C5.07602 20.0048 6.09266 19.583 6.84196 18.8327C7.59127 18.0825 8.01185 17.0653 8.01118 16.005H8.01318V15.023H8.01818V6.997L8.02818 5.127V4.88C8.05669 4.09276 8.39359 3.3483 8.96618 2.80728C9.53878 2.26626 10.3011 1.97208 11.0887 1.98823C11.8763 2.00437 12.626 2.32955 13.1759 2.89358C13.7259 3.45761 14.032 4.21525 14.0282 5.003V9.278C13.6452 9.49468 13.3445 9.83165 13.1725 10.2367C13.0006 10.6417 12.9671 11.0921 13.0772 11.5181C13.1873 11.9441 13.4349 12.3218 13.7816 12.5928C14.1283 12.8638 14.5546 13.0128 14.9946 13.0167C15.4346 13.0207 15.8636 12.8794 16.2151 12.6147C16.5666 12.35 16.8209 11.9768 16.9387 11.5528C17.0564 11.1289 17.031 10.6779 16.8664 10.2699C16.7018 9.86187 16.4072 9.51954 16.0282 9.296H16.0272Z" fill="#121214"/>
</svg>
