<svg width="195" height="23" viewBox="0 0 195 23" fill="none" xmlns="http://www.w3.org/2000/svg">
<path d="M164.043 11.682L163.431 12.006C163.191 11.454 162.765 11.178 162.153 11.178C161.769 11.178 161.463 11.298 161.235 11.538C161.019 11.778 160.911 12.048 160.911 12.348C160.911 12.576 160.977 12.774 161.109 12.942C161.241 13.098 161.379 13.218 161.523 13.302C161.667 13.374 161.895 13.47 162.207 13.59C162.255 13.602 162.369 13.65 162.549 13.734C162.741 13.806 162.867 13.854 162.927 13.878C162.987 13.902 163.089 13.95 163.233 14.022C163.389 14.082 163.503 14.142 163.575 14.202C163.647 14.25 163.731 14.316 163.827 14.4C163.935 14.484 164.025 14.574 164.097 14.67C164.349 14.982 164.475 15.378 164.475 15.858C164.475 16.638 164.235 17.226 163.755 17.622C163.287 18.006 162.729 18.198 162.081 18.198C161.457 18.198 160.917 18.024 160.461 17.676C160.005 17.328 159.699 16.854 159.543 16.254L160.245 16.038C160.365 16.506 160.593 16.872 160.929 17.136C161.277 17.388 161.661 17.514 162.081 17.514C162.549 17.514 162.939 17.364 163.251 17.064C163.563 16.752 163.719 16.362 163.719 15.894C163.719 15.51 163.599 15.216 163.359 15.012C163.119 14.796 162.693 14.562 162.081 14.31C161.241 13.962 160.707 13.638 160.479 13.338C160.263 13.05 160.155 12.732 160.155 12.384C160.155 11.832 160.341 11.382 160.713 11.034C161.085 10.674 161.553 10.494 162.117 10.494C163.065 10.494 163.707 10.89 164.043 11.682ZM172.197 11.43V12.384C171.501 11.58 170.655 11.178 169.659 11.178C168.771 11.178 168.039 11.484 167.463 12.096C166.887 12.696 166.599 13.452 166.599 14.364C166.599 15.348 166.905 16.122 167.517 16.686C168.129 17.238 168.831 17.514 169.623 17.514C170.595 17.514 171.483 17.076 172.287 16.2V17.172C171.519 17.856 170.625 18.198 169.605 18.198C168.501 18.198 167.595 17.838 166.887 17.118C166.191 16.386 165.843 15.474 165.843 14.382C165.843 13.266 166.191 12.342 166.887 11.61C167.583 10.866 168.507 10.494 169.659 10.494C170.607 10.494 171.453 10.806 172.197 11.43ZM174.274 18V10.656H174.994V11.61C175.318 10.866 175.858 10.494 176.614 10.494C176.902 10.494 177.16 10.554 177.388 10.674L177.028 11.322C176.896 11.226 176.716 11.178 176.488 11.178C176.14 11.178 175.852 11.28 175.624 11.484C175.408 11.676 175.258 11.952 175.174 12.312C175.102 12.66 175.054 12.954 175.03 13.194C175.006 13.434 174.994 13.722 174.994 14.058V18H174.274ZM179.193 11.61C179.937 10.866 180.855 10.494 181.947 10.494C183.039 10.494 183.951 10.866 184.683 11.61C185.427 12.342 185.799 13.254 185.799 14.346C185.799 15.438 185.427 16.356 184.683 17.1C183.951 17.832 183.039 18.198 181.947 18.198C180.855 18.198 179.937 17.832 179.193 17.1C178.461 16.356 178.095 15.438 178.095 14.346C178.095 13.254 178.461 12.342 179.193 11.61ZM179.733 16.596C180.333 17.208 181.071 17.514 181.947 17.514C182.823 17.514 183.555 17.208 184.143 16.596C184.743 15.984 185.043 15.234 185.043 14.346C185.043 13.458 184.743 12.708 184.143 12.096C183.555 11.484 182.823 11.178 181.947 11.178C181.071 11.178 180.333 11.484 179.733 12.096C179.145 12.708 178.851 13.458 178.851 14.346C178.851 15.234 179.145 15.984 179.733 16.596ZM187.914 4.878H188.634V18H187.914V4.878ZM191.219 4.878H191.939V18L191.219 18V4.878Z" fill="#121214"/>
<line x1="145.003" y1="14.5" x2="91.0032" y2="14.5" stroke="#121214"/>
<circle cx="50.0032" cy="14" r="4" transform="rotate(90 50.0032 14)" fill="#121214"/>
<circle cx="27.0032" cy="14" r="4" transform="rotate(90 27.0032 14)" fill="#121214"/>
<circle cx="4.00317" cy="14" r="4" transform="rotate(90 4.00317 14)" fill="#037E8C"/>
</svg>
